<?xml version="1.0" encoding="utf-8"?>
<!DOCTYPE svg PUBLIC "-//W3C//DTD SVG 1.1//EN" "http://www.w3.org/Graphics/SVG/1.1/DTD/svg11.dtd">
<svg version="1.1" xmlns="http://www.w3.org/2000/svg" width="1163.1100001660154" height="482.825058046875" viewBox="0 0 1163.1100001660154 482.825058046875">
<g>
<g>
<rect fill="#FFFFFF" width="0" height="0" />
</g>
<g transform="translate(0,0)">
<path fill="#ce30d5" d="M40.19 51.71L40.19 51.71Q43.39 48 45.82 51.71L45.82 51.71Q46.59 53.25 43.78 56.96L43.78 56.96Q41.98 59.01 40 62.66Q38.02 66.30 38.02 66.94L38.02 66.94Q38.02 67.20 39.30 66.94L39.30 66.94Q41.86 66.82 42.37 69.63Q42.88 72.45 41.86 80.90L41.86 80.90Q40.70 91.26 40.32 95.74L40.32 95.74L39.55 100.22L46.59 99.46Q52.22 98.94 53.57 99.78Q54.91 100.61 54.14 103.42L54.14 103.42Q53.76 105.09 52.80 105.41Q51.84 105.73 47.23 105.73L47.23 105.73Q41.34 105.73 40 107.33Q38.66 108.93 38.66 116.10L38.66 116.10Q38.40 121.98 37.38 123.84Q36.35 125.70 34.18 124.42L34.18 124.42Q30.46 122.50 32.26 112.38L32.26 112.38Q33.02 107.39 32.26 107.01Q31.49 106.62 22.78 108.03L22.78 108.03Q11.14 109.82 8.06 111.10L8.06 111.10Q6.53 111.87 5.82 111.55Q5.12 111.23 4.35 109.70L4.35 109.70Q3.58 108.42 3.58 107.39Q3.58 106.37 4.74 104.45L4.74 104.45Q6.53 101.12 8 99.46Q9.47 97.79 14.34 90.62L14.34 90.62L22.14 79.74Q24.83 75.78 24.83 74.88Q24.83 73.98 25.73 73.98Q26.62 73.98 27.78 70.78Q28.93 67.58 29.50 67.58Q30.08 67.58 34.11 60.80Q38.14 54.02 40.19 51.71ZM36.35 74.24L36.35 74.24Q36.61 72.58 36.61 71.23Q36.61 69.89 36.61 69.18Q36.61 68.48 36.61 68.48L36.61 68.48Q36.22 68.48 32 75.65L32 75.65Q23.55 89.34 15.87 98.82L15.87 98.82Q12.67 102.66 12.67 103.30L12.67 103.30Q13.06 103.55 15.23 103.49Q17.41 103.42 20.35 102.98Q23.30 102.53 24.58 101.89L24.58 101.89Q26.88 101.12 30.02 101.12Q33.15 101.12 33.54 100.29Q33.92 99.46 34.50 92.61Q35.07 85.76 35.65 82.94Q36.22 80.13 36.35 74.24Z"/>
</g>
<g transform="translate(58.007234375,0)">
<path fill="#ce30d5" d="M22.72 56.77Q27.14 56.19 28.03 55.87Q28.93 55.55 29.38 55.49Q29.82 55.42 33.28 57.98L33.28 57.98Q36.35 60.03 38.21 64.45Q40.06 68.86 41.98 78.46L41.98 78.46Q43.52 85.76 43.01 94.59Q42.50 103.42 40.58 108.80L40.58 108.80Q38.27 114.82 32.38 117.50Q26.50 120.19 20.10 118.53L20.10 118.53Q16.90 117.50 14.91 115.46Q12.93 113.41 9.98 108.16L9.98 108.16Q8.32 105.09 7.81 102.53Q7.30 99.97 7.17 93.18L7.17 93.18Q6.78 82.43 8.32 75.97Q9.86 69.50 9.28 68.61Q8.70 67.71 10.18 67.26Q11.65 66.82 11.65 65.54Q11.65 64.26 14.98 60.80Q18.30 57.34 22.72 56.77ZM29.82 63.49L29.82 63.49Q27.90 62.21 24.06 62.08L24.06 62.08Q21.38 62.08 20.61 62.66Q19.84 63.23 18.43 66.43L18.43 66.43Q12.93 78.85 13.82 93.70L13.82 93.70Q14.08 100.99 15.17 103.94Q16.26 106.88 19.71 110.08L19.71 110.08Q24.06 114.30 29.18 111.87L29.18 111.87Q33.54 109.95 34.94 106.18Q36.35 102.40 36.35 92.80L36.35 92.80Q36.22 81.66 34.56 73.66Q32.90 65.66 29.82 63.49Z"/>
</g>
<g transform="translate(108.23473437500002,0)">
<path fill="#ce30d5" d="M22.72 56.77Q27.14 56.19 28.03 55.87Q28.93 55.55 29.38 55.49Q29.82 55.42 33.28 57.98L33.28 57.98Q36.35 60.03 38.21 64.45Q40.06 68.86 41.98 78.46L41.98 78.46Q43.52 85.76 43.01 94.59Q42.50 103.42 40.58 108.80L40.58 108.80Q38.27 114.82 32.38 117.50Q26.50 120.19 20.10 118.53L20.10 118.53Q16.90 117.50 14.91 115.46Q12.93 113.41 9.98 108.16L9.98 108.16Q8.32 105.09 7.81 102.53Q7.30 99.97 7.17 93.18L7.17 93.18Q6.78 82.43 8.32 75.97Q9.86 69.50 9.28 68.61Q8.70 67.71 10.18 67.26Q11.65 66.82 11.65 65.54Q11.65 64.26 14.98 60.80Q18.30 57.34 22.72 56.77ZM29.82 63.49L29.82 63.49Q27.90 62.21 24.06 62.08L24.06 62.08Q21.38 62.08 20.61 62.66Q19.84 63.23 18.43 66.43L18.43 66.43Q12.93 78.85 13.82 93.70L13.82 93.70Q14.08 100.99 15.17 103.94Q16.26 106.88 19.71 110.08L19.71 110.08Q24.06 114.30 29.18 111.87L29.18 111.87Q33.54 109.95 34.94 106.18Q36.35 102.40 36.35 92.80L36.35 92.80Q36.22 81.66 34.56 73.66Q32.90 65.66 29.82 63.49Z"/>
</g>
<g transform="translate(0,153.94422140625)">
<path fill="#ce30d5" d="M35.97 122.88L35.97 122.88Q35.97 119.04 51.84 126.46L51.84 126.46Q54.02 127.49 54.46 129.09Q54.91 130.69 53.25 131.33L53.25 131.33Q51.71 132.10 43.84 128.13Q35.97 124.16 35.97 122.88ZM59.14 118.66Q59.39 117.89 60.54 117.50Q61.70 117.12 66.30 118.85Q70.91 120.58 72.83 120.58L72.83 120.58Q75.01 120.58 76.16 122.11Q77.31 123.65 76.29 125.18L76.29 125.18Q74.37 128 66.30 124.16L66.30 124.16Q58.75 120.70 59.14 118.66L59.14 118.66ZM80.51 114.18L80.51 114.18Q81.28 111.87 86.91 115.33L86.91 115.33Q90.50 117.63 92.42 117.63Q94.34 117.63 95.49 118.78L95.49 118.78Q98.18 121.73 95.10 123.26L95.10 123.26Q93.06 124.16 89.98 123.39L89.98 123.39Q87.30 122.62 83.71 119.10Q80.13 115.58 80.51 114.18ZM98.94 113.02L98.94 113.02Q99.97 111.74 103.23 112.32Q106.50 112.90 109.18 114.94L109.18 114.94Q112.64 117.63 114.56 118.27L114.56 118.27Q116.22 118.78 116.74 120.70Q117.25 122.62 115.84 124.03L115.84 124.03Q114.94 124.93 114.05 124.74Q113.15 124.54 110.85 123.01L110.85 123.01Q107.26 120.58 105.02 118.27Q102.78 115.97 101.25 115.97L101.25 115.97Q99.71 115.97 98.94 115.07Q98.18 114.18 98.94 113.02ZM61.06 37.12L61.06 37.12Q61.31 36.74 62.46 36.74Q63.62 36.74 65.41 37.25Q67.20 37.76 68.74 38.53L68.74 38.53Q71.30 39.68 71.30 41.09Q71.30 42.50 68.74 45.06L68.74 45.06Q63.36 50.43 52.86 64.26L52.86 64.26Q48.64 69.63 48.26 70.72Q47.87 71.81 49.41 72.58L49.41 72.58Q51.33 73.47 52.61 77.31L52.61 77.31Q54.91 83.71 56.06 79.62L56.06 79.62Q58.75 71.55 60.67 70.78L60.67 70.78Q62.08 70.27 64.38 71.42L64.38 71.42Q65.92 71.94 67.26 71.55Q68.61 71.17 72.06 68.74L72.06 68.74Q77.31 65.15 80.77 62.46L80.77 62.46L86.91 57.86Q89.60 55.81 91.90 53.63L91.90 53.63L94.34 51.58L88.06 52.10Q81.66 52.74 78.59 53.50L78.59 53.50Q75.78 54.27 73.15 54.27Q70.53 54.27 69.89 53.50L69.89 53.50Q68.74 51.20 84.61 48.26L84.61 48.26Q93.44 46.72 97.41 45.82L97.41 45.82Q101.89 44.80 103.42 45.12Q104.96 45.44 105.47 47.10L105.47 47.10Q105.86 48.26 105.28 49.34Q104.70 50.43 102.27 52.48L102.27 52.48L98.43 55.94L98.18 64.38L98.05 72.96L102.02 72.96Q105.86 72.96 105.86 74.24L105.86 74.24Q105.86 76.54 104.83 77.63Q103.81 78.72 101.12 79.23L101.12 79.23Q98.56 79.62 97.73 80.38Q96.90 81.15 95.49 84.10L95.49 84.10Q93.82 88.45 92.03 91.78L92.03 91.78Q89.73 95.74 90.30 96.51Q90.88 97.28 95.87 96.77L95.87 96.77Q101.63 96 103.30 96.06Q104.96 96.13 104.96 94.85L104.96 94.85Q104.96 93.82 106.18 93.76Q107.39 93.70 111.62 94.08L111.62 94.08Q118.40 94.59 120.13 95.17Q121.86 95.74 121.86 97.15L121.86 97.15Q121.86 100.99 115.46 100.22L115.46 100.22Q111.23 99.84 100.48 100.99L100.48 100.99Q84.74 102.53 80.38 107.52L80.38 107.52Q79.36 108.42 78.14 108.99Q76.93 109.57 76.03 109.31Q75.14 109.06 75.14 108.03L75.14 108.03Q75.14 106.75 76.93 105.73L76.93 105.73Q78.59 104.58 76.54 104.58L76.54 104.58Q73.22 104.58 70.40 106.11L70.40 106.11Q67.46 107.65 65.98 107.07Q64.51 106.50 61.70 107.52L61.70 107.52Q50.69 110.98 39.17 113.41L39.17 113.41Q29.95 115.58 13.06 120.70L13.06 120.70Q6.14 122.62 6.14 118.78L6.14 118.78Q6.14 116.86 11.52 114.94L11.52 114.94Q17.28 112.90 34.94 109.82L34.94 109.82Q43.01 108.42 47.62 107.26L47.62 107.26Q50.94 106.37 51.58 105.66Q52.22 104.96 52.10 102.66L52.10 102.66Q51.71 98.69 50.94 97.92Q50.18 97.15 46.34 97.66L46.34 97.66Q39.81 98.69 38.27 96.64Q36.74 94.59 41.34 91.01L41.34 91.01Q47.62 86.14 48.38 84.99Q49.15 83.84 48.38 80.77L48.38 80.77Q47.23 77.18 46.40 76.29Q45.57 75.39 44.10 76.48Q42.62 77.57 39.55 81.41L39.55 81.41Q34.56 87.94 33.02 87.94L33.02 87.94Q31.74 87.94 31.42 86.66Q31.10 85.38 32.26 84.61L32.26 84.61Q33.28 84.10 34.94 80.64L34.94 80.64Q36.35 77.95 44.61 66.56Q52.86 55.17 59.39 46.98L59.39 46.98Q62.59 42.88 63.10 41.73Q63.62 40.58 62.59 39.42L62.59 39.42Q61.06 37.76 61.06 37.12ZM90.88 75.01L90.88 75.01Q92.29 74.11 92.54 72.77Q92.80 71.42 92.67 67.46L92.67 67.46Q92.42 62.72 92.03 62.46L92.03 62.46Q91.65 62.34 90.88 63.23L90.88 63.23Q89.22 65.41 87.68 68.61Q86.14 71.81 85.89 74.11L85.89 74.11Q85.76 75.65 86.02 76.22Q86.27 76.80 87.30 76.80L87.30 76.80Q88.96 76.80 90.88 75.01ZM83.97 68.74L83.97 68.74Q84.61 66.18 84.03 65.66Q83.46 65.15 81.28 66.69L81.28 66.69Q80.38 67.46 80.26 68.29Q80.13 69.12 80.90 71.04L80.90 71.04Q82.30 75.26 83.58 70.40L83.58 70.40Q83.84 69.63 83.97 68.74ZM74.37 79.49Q75.39 79.49 75.84 78.14Q76.29 76.80 75.90 75.26L75.90 75.26Q75.52 73.86 75.46 73.86Q75.39 73.86 74.75 75.26L74.75 75.26Q74.37 76.54 74.11 77.31Q73.86 78.08 73.73 78.66Q73.60 79.23 73.79 79.36Q73.98 79.49 74.37 79.49L74.37 79.49ZM69.89 78.08L69.89 78.08Q70.53 75.65 70.14 75.26L70.14 75.26Q69.89 74.88 69.25 75.46Q68.61 76.03 68.10 77.06Q67.58 78.08 67.58 78.85L67.58 78.85Q67.58 80.38 68.35 80.38L68.35 80.38Q69.38 80.64 69.89 78.08ZM62.98 83.71L62.98 83.71Q62.98 80.38 62.21 80.38L62.21 80.38Q61.06 80.38 59.71 82.30Q58.37 84.22 57.86 86.40L57.86 86.40Q57.47 88.06 57.73 88.38Q57.98 88.70 60.16 87.94L60.16 87.94Q62.08 87.17 62.53 86.40Q62.98 85.63 62.98 83.71ZM90.11 82.69L90.11 82.69Q90.11 81.79 89.47 81.60Q88.83 81.41 87.74 81.79Q86.66 82.18 85.76 83.07L85.76 83.07Q83.84 84.61 83.33 89.98Q82.82 95.36 83.58 95.36L83.58 95.36Q84.35 95.36 87.23 89.73Q90.11 84.10 90.11 82.69ZM73.86 99.97Q76.16 99.97 76.61 98.75Q77.06 97.54 76.93 91.90L76.93 91.90Q76.67 87.94 76.29 87.23Q75.90 86.53 74.62 87.17L74.62 87.17Q72.83 87.68 72.26 89.34Q71.68 91.01 71.55 95.62L71.55 95.62Q71.30 98.69 71.68 99.33Q72.06 99.97 73.86 99.97L73.86 99.97ZM64.77 97.54L64.77 97.54Q64.38 93.31 63.62 92.54Q62.85 91.78 59.90 92.67L59.90 92.67Q58.24 93.44 57.86 94.34Q57.47 95.23 57.60 98.30L57.60 98.30Q57.98 102.91 58.50 103.36Q59.01 103.81 62.08 103.30L62.08 103.30Q64.13 102.66 64.51 102.02Q64.90 101.38 64.77 97.54Z"/>
</g>
<g transform="translate(127.9548955078125,153.94422140625)">
<path fill="#ce30d5" d="M49.66 96.64L49.66 96.64Q50.18 96.13 52.86 97.73Q55.55 99.33 57.41 100.22Q59.26 101.12 59.01 103.94L59.01 103.94Q58.88 105.73 58.37 106.18Q57.86 106.62 56.58 106.50L56.58 106.50Q53.50 106.24 50.69 102.34Q47.87 98.43 49.66 96.64ZM59.26 92.29L59.26 92.29Q59.26 89.22 65.79 92.03L65.79 92.03Q66.56 92.42 67.33 92.80L67.33 92.80Q70.53 94.34 71.30 95.10Q72.06 95.87 71.68 97.28L71.68 97.28Q70.78 100.86 68.29 100.99Q65.79 101.12 64 97.41L64 97.41Q62.72 95.10 60.99 94.53Q59.26 93.95 59.26 92.29ZM13.95 70.27L13.95 70.27Q14.34 69.50 14.72 69.25Q15.10 68.99 15.94 69.44Q16.77 69.89 18.05 71.04Q19.33 72.19 21.38 74.75L21.38 74.75Q25.47 78.98 26.11 80.58Q26.75 82.18 25.47 84.35L25.47 84.35Q24.45 85.50 22.72 85.31Q20.99 85.12 20.99 83.71L20.99 83.71Q20.99 82.82 18.30 79.36L18.30 79.36Q12.93 72.58 13.95 70.27ZM29.89 46.66Q26.62 43.01 26.62 41.09Q26.62 39.17 27.39 39.17L27.39 39.17Q28.29 39.17 32.26 42.18Q36.22 45.18 37.12 46.85L37.12 46.85Q38.53 48.77 38.02 51.07Q37.50 53.38 35.97 54.27Q34.43 55.17 32.77 54.02L32.77 54.02Q31.23 52.86 32.19 51.58Q33.15 50.30 29.89 46.66ZM81.60 31.36Q87.68 29.82 90.50 27.97Q93.31 26.11 96.38 26.11L96.38 26.11Q98.43 26.11 98.94 26.50Q99.46 26.88 99.20 28.67L99.20 28.67Q99.07 30.21 97.79 31.04Q96.51 31.87 92.16 33.41L92.16 33.41Q85.63 35.71 86.40 36.74L86.40 36.74Q87.30 37.63 87.30 40.96L87.30 40.96Q87.30 44.54 88.06 45.50Q88.83 46.46 91.39 45.70L91.39 45.70Q100.99 42.62 103.04 45.31L103.04 45.31Q104.06 46.34 103.68 46.98Q103.30 47.62 101.38 49.41L101.38 49.41Q98.43 52.22 96.90 52.22L96.90 52.22Q95.74 52.22 90.11 55.10Q84.48 57.98 83.84 59.01L83.84 59.01Q83.33 59.90 84.86 60.67L84.86 60.67Q88.70 62.85 83.07 65.54L83.07 65.54Q80 67.07 79.17 67.07Q78.34 67.07 76.16 69.38Q73.98 71.68 73.15 71.68Q72.32 71.68 73.34 73.41Q74.37 75.14 73.47 78.21L73.47 78.21Q72.70 80.26 72.77 80.64Q72.83 81.02 74.37 80.51L74.37 80.51Q76.54 79.87 78.85 78.59L78.85 78.59L81.15 77.18L78.72 77.82Q76.67 78.21 76.10 77.44Q75.52 76.67 76.67 74.88L76.67 74.88Q78.08 72.96 81.28 70.98Q84.48 68.99 86.02 68.99L86.02 68.99Q88.06 68.99 88.64 70.40Q89.22 71.81 87.68 73.73L87.68 73.73Q86.14 75.52 87.17 75.26L87.17 75.26Q87.94 75.26 93.44 73.98L93.44 73.98Q102.27 72.06 108.35 73.86Q114.43 75.65 114.18 80.51L114.18 80.51Q114.18 83.33 112.64 85.38L112.64 85.38Q110.72 87.68 103.42 90.94Q96.13 94.21 91.90 94.72L91.90 94.72Q88.45 95.10 84.61 96.83Q80.77 98.56 80.77 99.97L80.77 99.97Q80.77 100.35 82.62 101.31Q84.48 102.27 86.53 103.04L86.53 103.04Q88.45 103.55 88.06 105.47Q87.68 107.39 85.63 108.16L85.63 108.16Q83.07 109.18 81.54 112.64L81.54 112.64L80 116.22L85.25 116.10Q90.24 116.10 90.62 117.50Q91.01 118.91 87.17 122.62L87.17 122.62Q71.55 137.22 73.47 137.73L73.47 137.73Q73.98 137.98 75.14 137.60L75.14 137.60Q84.61 135.04 90.24 135.42L90.24 135.42Q92.67 135.42 93.57 135.94Q94.46 136.45 94.59 137.73L94.59 137.73Q94.85 139.90 93.70 141.44L93.70 141.44Q92.67 142.59 87.87 144.96Q83.07 147.33 81.79 147.33L81.79 147.33Q79.49 147.33 81.54 144.90L81.54 144.90Q82.30 143.87 83.71 143.10L83.71 143.10Q87.68 140.80 84.48 141.06L84.48 141.06Q82.56 141.06 78.27 142.21Q73.98 143.36 72.77 143.36Q71.55 143.36 70.02 142.21L70.02 142.21Q67.07 140.42 67.84 137.73Q68.61 135.04 73.22 130.05L73.22 130.05Q79.10 123.90 78.53 123.33Q77.95 122.75 75.01 123.90L75.01 123.90Q68.22 126.21 67.33 123.52L67.33 123.52Q66.69 121.98 69.38 120.45L69.38 120.45Q71.30 119.30 73.34 116.61Q75.39 113.92 74.75 113.15L74.75 113.15Q74.37 112.77 70.14 113.86Q65.92 114.94 62.85 114.56L62.85 114.56Q59.65 114.30 59.65 113.15L59.65 113.15Q59.78 111.23 74.75 99.33L74.75 99.33Q76.54 98.05 78.85 96.13L78.85 96.13Q86.40 90.37 86.40 89.34L86.40 89.34Q86.40 88.19 81.54 91.52L81.54 91.52Q77.18 94.59 73.22 91.52L73.22 91.52Q71.17 89.98 71.81 88.83Q72.45 87.68 75.52 87.68L75.52 87.68Q78.72 87.68 83.14 85.25Q87.55 82.82 90.37 83.33L90.37 83.33Q92.93 83.97 94.27 85.50Q95.62 87.04 94.98 88.83L94.98 88.83Q94.59 89.98 94.91 90.18Q95.23 90.37 96.77 89.98L96.77 89.98Q99.84 88.96 104.26 85.50Q108.67 82.05 108.67 80.64L108.67 80.64Q108.67 79.36 105.86 78.40Q103.04 77.44 99.46 77.44L99.46 77.44Q95.36 77.44 87.68 80Q80 82.56 72.45 86.53L72.45 86.53Q68.22 88.58 66.82 88.96Q65.41 89.34 64.38 88.58L64.38 88.58Q63.49 87.81 63.74 86.66Q64 85.50 66.30 81.41L66.30 81.41Q67.71 78.72 68.35 77.31Q68.99 75.90 69.18 75.01Q69.38 74.11 68.99 73.86Q68.61 73.60 67.71 73.60L67.71 73.60Q66.18 73.60 65.86 72.45Q65.54 71.30 66.94 70.14L66.94 70.14Q67.84 69.12 68.16 65.28Q68.48 61.44 67.58 60.99Q66.69 60.54 64.19 62.46Q61.70 64.38 60.03 63.74L60.03 63.74Q59.01 63.36 57.66 66.05Q56.32 68.74 52.74 77.95L52.74 77.95Q45.44 96.26 37.12 113.54L37.12 113.54Q26.62 135.81 24.32 143.36L24.32 143.36Q23.68 145.41 22.85 145.41Q22.02 145.41 22.02 146.88Q22.02 148.35 20.54 148.35Q19.07 148.35 19.07 147.33L19.07 147.33Q19.07 146.05 21.57 138.82Q24.06 131.58 25.98 127.62L25.98 127.62L28.54 122.24L26.37 122.24Q24.32 122.24 19.97 118.46Q15.62 114.69 14.59 112Q13.57 109.31 13.70 106.11L13.70 106.11Q14.08 103.04 15.42 103.04Q16.77 103.04 17.41 106.24L17.41 106.24Q17.79 108.42 21.12 112.45Q24.45 116.48 25.98 116.48L25.98 116.48Q26.75 116.48 28.29 118.02L28.29 118.02Q29.70 118.91 31.62 115.33L31.62 115.33Q32.77 112.77 36.61 103.94L36.61 103.94Q43.26 88.83 48.26 76.29L48.26 76.29Q53.12 64.38 58.30 54.08Q63.49 43.78 65.02 42.62L65.02 42.62Q67.84 40.96 70.91 47.87L70.91 47.87Q72.70 52.22 73.34 52.22Q73.98 52.22 78.34 50.30L78.34 50.30L82.56 48.64L82.56 42.50Q82.56 36.35 81.66 36.35Q80.77 36.35 76.29 37.63L76.29 37.63Q65.15 40.96 53.50 43.26L53.50 43.26Q52.35 43.39 50.62 42.62Q48.90 41.86 48.90 40.96L48.90 40.96Q48.90 40.19 51.01 39.81Q53.12 39.42 64.32 36.16Q75.52 32.90 81.60 31.36ZM64.32 58.18Q67.71 55.68 67.71 52.99Q67.71 50.30 67.01 50.30Q66.30 50.30 63.23 55.10Q60.16 59.90 60.54 60.29Q60.93 60.67 64.32 58.18ZM79.10 56.70L79.10 56.70Q79.23 55.94 79.36 55.36Q79.49 54.78 79.55 54.46Q79.62 54.14 79.49 54.02L79.49 54.02Q79.23 54.14 76.29 55.30L76.29 55.30Q74.37 56.32 73.92 57.15Q73.47 57.98 73.47 60.93L73.47 60.93Q73.47 62.21 73.47 62.98Q73.47 63.74 73.66 64.13Q73.86 64.51 74.05 64.64Q74.24 64.77 74.62 64.51L74.62 64.51Q75.90 64.13 77.18 61.82Q78.46 59.52 79.10 56.70ZM82.69 77.44Q84.22 77.44 84.80 76.48Q85.38 75.52 84.61 75.52Q83.84 75.52 82.56 76.42L82.56 76.42Q81.54 77.06 81.66 77.25Q81.79 77.44 82.69 77.44L82.69 77.44ZM76.29 105.09L76.29 105.09Q76.93 103.17 75.14 103.55L75.14 103.55Q73.86 103.94 71.30 106.11L71.30 106.11L68.10 108.93L71.94 107.78Q75.90 106.88 76.29 105.09ZM66.56 20.10L66.56 20.10Q68.99 19.71 70.85 20.03Q72.70 20.35 75.52 20.35L75.52 20.35Q78.08 20.35 80.32 22.21Q82.56 24.06 81.92 25.60L81.92 25.60Q81.02 28.29 75.78 26.11L75.78 26.11Q73.60 25.34 68.35 24.19Q63.10 23.04 63.49 21.50L63.49 21.50Q63.87 20.61 66.56 20.10Z"/>
</g>
<g transform="translate(255.909791015625,153.94422140625)">
<path fill="#ce30d5" d="M91.90 46.46L91.90 46.46Q91.52 45.44 94.34 45.31Q97.15 45.18 101.18 45.89Q105.22 46.59 108.80 47.74L108.80 47.74Q117.63 50.43 112.51 54.27L112.51 54.27Q109.44 56.70 106.75 53.76L106.75 53.76Q104.83 51.97 98.69 49.79Q92.54 47.62 91.90 46.46ZM66.43 48.26Q64.64 44.42 65.28 43.46Q65.92 42.50 68.10 42.50Q70.27 42.50 71.30 45.12Q72.32 47.74 73.86 51.01Q75.39 54.27 75.58 56.58Q75.78 58.88 77.70 63.36L77.70 63.36L79.36 67.58L82.94 65.66Q86.40 63.62 86.85 62.59Q87.30 61.57 82.30 59.39L82.30 59.39Q80.26 58.37 78.98 57.41Q77.70 56.45 77.82 55.94L77.82 55.94Q78.34 55.17 79.17 55.49Q80 55.81 83.84 56.83L83.84 56.83Q94.59 59.65 94.59 62.34L94.59 62.34Q94.59 63.87 88.06 67.90Q81.54 71.94 81.41 73.09L81.41 73.09Q81.41 74.37 83.90 81.15Q86.40 87.94 87.30 88.70L87.30 88.70Q88.06 89.47 89.60 86.27L89.60 86.27Q92.80 79.62 92.80 73.34L92.80 73.34Q92.80 67.71 94.08 67.71L94.08 67.71Q97.15 67.71 97.54 73.79Q97.92 79.87 95.36 86.02L95.36 86.02Q92.80 91.14 91.14 93.57L91.14 93.57Q89.47 95.23 89.47 96.19Q89.47 97.15 91.14 101.25L91.14 101.25Q92.80 105.86 96.45 112.32Q100.10 118.78 101.76 120.19L101.76 120.19Q102.91 121.34 102.91 119.30L102.91 119.30Q102.91 118.02 102.66 113.92L102.66 113.92Q102.02 106.50 101.50 104.19L101.50 104.19Q100.99 102.40 101.63 102.40L101.63 102.40Q101.76 102.40 102.02 102.40L102.02 102.40Q104.32 103.17 106.62 113.92L106.62 113.92Q107.39 117.63 108.93 122.75L108.93 122.75Q110.08 126.98 109.63 129.60Q109.18 132.22 106.88 132.22L106.88 132.22Q104.96 132.22 100.61 127.74Q96.26 123.26 93.31 118.66L93.31 118.66Q91.52 115.58 88.45 108.80Q85.38 102.02 85.38 101.25L85.38 101.25Q85.38 100.10 83.46 100.99L83.46 100.99Q82.43 101.38 79.87 102.91L79.87 102.91Q75.39 105.47 73.47 104.58L73.47 104.58Q72.19 104.19 72.19 104Q72.19 103.81 73.47 102.78L73.47 102.78Q75.39 101.38 79.36 98.43L79.36 98.43L83.07 95.49L80.64 87.81Q80.51 87.42 80 86.27L80 86.27Q77.31 78.46 76.22 77.50Q75.14 76.54 71.04 79.49L71.04 79.49Q70.40 79.87 70.27 80.13L70.27 80.13L62.46 85.38Q55.42 90.37 50.94 94.72L50.94 94.72Q48.26 97.15 48 112.77L48 112.77Q48 124.42 45.31 124.54L45.31 124.54Q43.78 124.67 41.09 121.47L41.09 121.47Q36.86 115.84 29.18 114.18L29.18 114.18Q24.32 112.90 28.80 107.78L28.80 107.78Q31.87 104.06 41.60 95.62L41.60 95.62Q43.26 94.08 43.71 92.61Q44.16 91.14 44.42 86.02L44.42 86.02Q44.42 83.71 44.42 82.30Q44.42 80.90 44.16 80.06Q43.90 79.23 43.71 79.04Q43.52 78.85 43.14 78.85L43.14 78.85Q41.86 79.10 31.74 83.07L31.74 83.07Q15.23 89.73 13.95 87.42L13.95 87.42Q13.18 86.27 14.78 83.97Q16.38 81.66 17.79 82.05L17.79 82.05Q19.07 82.18 26.69 79.68Q34.30 77.18 40.70 74.50L40.70 74.50L45.18 72.58L45.18 63.62Q45.18 57.22 46.21 52.67Q47.23 48.13 48.51 48.13L48.51 48.13Q50.69 48.13 51.20 49.86Q51.71 51.58 51.20 56.45L51.20 56.45Q50.69 63.10 51.84 63.10Q52.99 63.10 56.83 66.30L56.83 66.30Q59.14 68.35 59.58 69.25Q60.03 70.14 59.39 71.30L59.39 71.30Q58.62 73.09 57.73 73.15Q56.83 73.22 55.42 73.66Q54.02 74.11 52.48 74.56Q50.94 75.01 50.30 80.13L50.30 80.13Q49.66 86.78 50.69 86.78L50.69 86.78Q52.22 86.91 62.21 80.13L62.21 80.13Q73.98 71.94 73.98 70.53L73.98 70.53Q74.11 69.12 71.30 60.93Q68.48 52.74 66.43 48.26L66.43 48.26ZM42.62 108.16L42.62 108.16Q42.75 106.11 42.88 104.64Q43.01 103.17 43.01 102.27Q43.01 101.38 43.01 101.38L43.01 101.38Q42.24 101.38 38.08 105.47Q33.92 109.57 33.92 110.27Q33.92 110.98 37.70 113.28Q41.47 115.58 41.86 115.33L41.86 115.33Q42.11 114.82 42.62 108.16Z"/>
</g>
<g transform="translate(383.8646865234375,153.94422140625)">
<path fill="#ce30d5" d="M98.05 37.50L98.05 37.50Q100.10 36.10 102.27 36.42Q104.45 36.74 105.34 38.78L105.34 38.78Q106.50 41.34 105.28 48.83Q104.06 56.32 103.81 83.84L103.81 83.84Q103.81 111.87 103.42 119.23Q103.04 126.59 100.99 133.63L100.99 133.63Q99.58 138.62 98.69 138.62L98.69 138.62Q97.54 138.62 97.92 134.91L97.92 134.91Q98.69 130.94 98.18 97.79L98.18 97.79Q98.05 63.23 98.11 56.51Q98.18 49.79 98.94 46.59L98.94 46.59L99.46 42.50L97.02 44.54Q93.44 48.13 88.45 60.03Q83.46 71.94 81.54 81.66L81.54 81.66Q80.77 86.66 79.49 88.32Q78.21 89.98 76.29 88.70L76.29 88.70Q74.62 87.94 74.11 81.92L74.11 81.92L73.73 76.03L69.38 82.69Q60.16 96.38 49.28 103.55L49.28 103.55Q41.22 109.06 33.34 112.32Q25.47 115.58 23.42 114.94L23.42 114.94Q19.33 113.54 27.14 107.78L27.14 107.78Q30.85 104.83 34.75 100.29Q38.66 95.74 38.66 94.34L38.66 94.34Q38.66 93.18 35.97 93.18L35.97 93.18Q33.15 93.18 30.98 90.88Q28.80 88.58 29.18 86.02L29.18 86.02Q29.70 83.58 30.72 82.18L30.72 82.18Q32.13 80.38 36.29 78.78Q40.45 77.18 43.90 77.06L43.90 77.06Q48.26 77.06 48.26 76.74Q48.26 76.42 46.72 72.83L46.72 72.83Q44.16 66.82 46.72 59.78L46.72 59.78Q48.26 55.55 48.26 55.42L48.26 55.42Q48.26 55.42 47.23 55.62Q46.21 55.81 44.80 56.32Q43.39 56.83 41.47 57.47L41.47 57.47Q37.25 58.75 35.71 58.94Q34.18 59.14 32.38 58.50L32.38 58.50Q30.21 57.47 29.82 56.51Q29.44 55.55 30.21 54.14L30.21 54.14Q31.23 52.74 33.09 53.76Q34.94 54.78 39.42 53.38Q43.90 51.97 44.86 51.07Q45.82 50.18 51.07 48.51Q56.32 46.85 57.34 47.62L57.34 47.62Q58.62 49.02 58.18 50.24Q57.73 51.46 55.04 54.66L55.04 54.66Q51.46 58.75 50.88 62.53Q50.30 66.30 52.61 71.55L52.61 71.55Q56.45 80.38 56.90 82.94Q57.34 85.50 56.32 88.06L56.32 88.06Q54.66 90.50 51.97 92.42Q49.28 94.34 46.85 94.34L46.85 94.34Q44.42 94.34 41.73 97.73Q39.04 101.12 38.02 102.66L38.02 102.66Q36.10 104.19 37.89 104.06L37.89 104.06Q38.91 104.06 41.73 102.66L41.73 102.66Q45.06 100.74 50.82 96.90Q56.58 93.06 58.11 91.39L58.11 91.39Q59.26 90.37 60.16 90.37L60.16 90.37Q61.82 90.37 67.58 80.38Q73.34 70.40 73.34 67.46L73.34 67.46Q73.34 64.13 76.29 64.38L76.29 64.38Q78.85 64.90 80 68.10L80 68.10Q80.26 70.14 81.79 67.07L81.79 67.07Q82.69 66.05 83.97 62.98L83.97 62.98Q94.46 39.94 98.05 37.50ZM44.93 84.61L44.93 84.61Q45.44 82.69 44.93 82.30Q44.42 81.92 42.37 82.18L42.37 82.18Q37.12 82.18 34.56 85.50L34.56 85.50Q32.90 87.94 35.46 88.70L35.46 88.70Q37.38 89.60 39.94 89.47Q42.50 89.34 43.14 88.19L43.14 88.19Q44.16 87.17 44.93 84.61Z"/>
</g>
<g transform="translate(511.81958203125,153.94422140625)">
<path fill="#ce30d5" d="M54.78 82.18L54.78 82.18Q60.54 78.98 62.08 81.41L62.08 81.41Q62.85 82.56 59.78 84.99Q56.70 87.42 50.05 90.50L50.05 90.50Q43.14 93.70 41.47 95.55Q39.81 97.41 40.58 100.61L40.58 100.61L41.22 102.91L43.26 100.99Q47.74 97.02 54.66 95.17Q61.57 93.31 63.49 95.62L63.49 95.62Q65.02 97.54 63.55 102.53Q62.08 107.52 59.26 110.08L59.26 110.08Q56.96 112.13 53.50 113.22Q50.05 114.30 48.58 113.41Q47.10 112.51 47.62 110.72Q48.13 108.93 50.18 107.90L50.18 107.90Q52.35 106.75 55.30 103.81Q58.24 100.86 57.73 100.48L57.73 100.48Q57.34 99.84 52.10 101.76L52.10 101.76Q46.98 103.94 45.31 106.62Q43.65 109.31 44.80 114.05L44.80 114.05Q45.95 118.66 44.61 120Q43.26 121.34 41.73 120.83L41.73 120.83Q40.06 120.19 38.53 114.43Q36.99 108.67 36.99 102.91L36.99 102.91Q36.99 98.69 36.67 97.34Q36.35 96 35.20 95.62L35.20 95.62Q33.92 95.23 33.73 93.50Q33.54 91.78 34.69 91.01L34.69 91.01Q35.84 90.24 38.59 90.05Q41.34 89.86 45.31 86.98Q49.28 84.10 50.30 84.10Q51.33 84.10 54.78 82.18ZM43.52 77.38Q48.13 74.50 52.22 72.26Q56.32 70.02 57.47 70.02L57.47 70.02Q59.26 70.02 59.46 71.68Q59.65 73.34 58.24 74.62L58.24 74.62Q55.94 76.80 47.81 80.83Q39.68 84.86 37.50 84.86L37.50 84.86Q35.20 84.86 34.37 83.52Q33.54 82.18 34.69 80.26L34.69 80.26Q35.97 77.57 37.89 79.36L37.89 79.36Q38.91 80.26 43.52 77.38ZM57.86 56.58L57.86 56.58Q69.76 52.22 68.99 56.06L68.99 56.06Q68.86 56.83 67.84 58.11L67.84 58.11Q66.94 59.14 61.25 61.31Q55.55 63.49 53.50 63.49L53.50 63.49Q51.97 63.49 44.48 66.11Q36.99 68.74 31.62 71.04L31.62 71.04Q21.38 75.39 18.69 72.32L18.69 72.32Q17.54 70.78 18.24 69.38Q18.94 67.97 20.61 68.48L20.61 68.48Q23.68 69.25 41.73 61.82L41.73 61.82Q48.64 58.88 50.18 58.82Q51.71 58.75 57.86 56.58ZM48.13 41.86L48.13 41.86Q52.48 40.32 56.51 40.32Q60.54 40.32 62.02 41.73Q63.49 43.14 63.36 43.90Q63.23 44.67 61.70 46.21L61.70 46.21Q60.03 47.74 57.98 46.72Q55.94 45.70 49.41 45.70L49.41 45.70Q43.65 45.70 43.26 44.61Q42.88 43.52 48.13 41.86ZM89.86 29.18L89.86 29.18Q91.01 27.78 92.42 28.35Q93.82 28.93 94.98 31.10L94.98 31.10Q96.13 33.54 98.43 33.54L98.43 33.54Q100.61 33.54 102.14 34.82Q103.68 36.10 103.30 37.38L103.30 37.38Q102.66 38.78 98.43 40.96Q94.21 43.14 93.31 46.59L93.31 46.59Q91.90 51.97 93.31 51.97L93.31 51.97Q93.70 51.97 94.21 51.84L94.21 51.84Q96 51.20 97.92 53.06Q99.84 54.91 99.20 56.58L99.20 56.58Q98.69 58.37 95.62 62.21L95.62 62.21Q92.67 65.79 93.06 66.11Q93.44 66.43 96.90 63.49L96.90 63.49Q100.61 60.80 103.87 59.46Q107.14 58.11 108.67 58.88L108.67 58.88Q110.72 60.03 109.89 61.70Q109.06 63.36 104.83 65.79L104.83 65.79Q96.13 71.42 94.21 75.01L94.21 75.01Q93.44 76.29 94.85 76.29L94.85 76.29Q95.74 76.29 98.69 76.03L98.69 76.03Q102.66 75.65 103.62 75.97Q104.58 76.29 105.98 78.21L105.98 78.21Q107.26 79.87 107.58 83.26Q107.90 86.66 107.90 98.94L107.90 98.94Q107.90 117.12 106.50 120.83L106.50 120.83Q104.06 127.87 101.12 127.87L101.12 127.87Q99.46 127.87 97.34 125.38Q95.23 122.88 95.23 120.96L95.23 120.96Q95.23 118.91 95.81 118.78Q96.38 118.66 98.05 120.58L98.05 120.58L99.58 122.75L100.74 119.81Q102.53 115.84 103.10 101.06Q103.68 86.27 102.27 82.94L102.27 82.94Q101.50 81.41 98.05 82.05L98.05 82.05Q90.75 82.94 89.09 85.89L89.09 85.89Q88.06 87.17 90.62 87.55L90.62 87.55Q90.75 87.55 91.14 87.55L91.14 87.55Q94.08 87.81 94.66 88.77Q95.23 89.73 94.85 92.80L94.85 92.80Q93.70 102.02 94.85 102.02L94.85 102.02Q95.74 101.76 98.30 103.94L98.30 103.94Q99.97 105.22 100.16 105.92Q100.35 106.62 99.46 107.78L99.46 107.78Q98.05 109.44 95.68 108.86Q93.31 108.29 90.37 105.60L90.37 105.60Q88.83 103.94 88.38 102.85Q87.94 101.76 88.32 99.71L88.32 99.71Q89.09 96.64 89.86 95.10L89.86 95.10Q90.62 93.57 89.66 92.86Q88.70 92.16 87.55 93.25Q86.40 94.34 86.40 108.16L86.40 108.16Q86.40 116.99 86.78 120.70Q87.17 124.42 88.70 129.41L88.70 129.41Q90.37 135.42 90.18 137.73Q89.98 140.03 87.68 140.03L87.68 140.03Q86.02 140.03 85.12 137.98Q84.22 135.94 82.56 128.26L82.56 128.26Q80.77 120.83 80.77 107.01L80.77 107.01Q80.90 97.02 81.54 92.67Q82.18 88.32 84.61 79.49L84.61 79.49L85.25 77.44L81.54 79.36Q75.14 82.82 72.70 79.74L72.70 79.74Q71.94 78.72 72.90 77.25Q73.86 75.78 78.46 71.42L78.46 71.42Q89.09 61.57 85.76 61.57L85.76 61.57Q84.61 61.57 81.92 64.13L81.92 64.13Q80.38 65.66 79.62 65.86Q78.85 66.05 77.82 65.41L77.82 65.41Q75.90 63.74 77.06 62.21Q78.21 60.67 85.25 55.81L85.25 55.81Q86.78 54.66 87.30 50.69L87.30 50.69Q87.94 47.62 87.62 47.10Q87.30 46.59 85.76 47.23L85.76 47.23Q83.46 47.74 80.26 49.60Q77.06 51.46 76.29 50.69L76.29 50.69Q73.22 47.62 82.30 43.14L82.30 43.14L88.45 39.94L88.45 35.07Q88.70 30.46 89.86 29.18Z"/>
</g>
<g transform="translate(639.7744775390624,153.94422140625)">
<path fill="#ce30d5" d="M88.83 50.94Q88.06 50.94 88.06 49.09Q88.06 47.23 89.60 47.23L89.60 47.23Q91.39 47.36 97.02 50.24Q102.66 53.12 103.17 54.27L103.17 54.27Q103.94 55.42 102.72 57.79Q101.50 60.16 100.48 60.16L100.48 60.16Q99.46 60.16 94.53 55.55Q89.60 50.94 88.83 50.94ZM59.65 42.24L59.65 42.24Q60.16 40.96 61.63 40.83Q63.10 40.70 64.77 41.60L64.77 41.60Q65.54 42.11 65.54 44.29Q65.54 46.46 64.77 53.63L64.77 53.63Q63.49 66.69 65.54 66.69L65.54 66.69Q65.92 66.69 66.69 66.18L66.69 66.18Q68.10 65.41 68.48 65.41L68.48 65.41Q73.09 64.77 73.09 61.70L73.09 61.70Q73.09 59.65 74.69 59.20Q76.29 58.75 78.98 60.16L78.98 60.16Q86.02 64.26 74.37 68.61L74.37 68.61Q72.58 69.50 70.40 70.14L70.40 70.14Q66.56 71.17 65.60 72Q64.64 72.83 64.26 74.62L64.26 74.62Q63.62 78.72 64.13 83.14Q64.64 87.55 65.79 88.19L65.79 88.19Q67.20 89.09 65.98 90.37Q64.77 91.65 64.77 94.72L64.77 94.72L64.77 97.92L68.99 93.82Q74.24 88.96 77.82 83.65Q81.41 78.34 80.90 76.54L80.90 76.54Q80.51 74.37 82.30 73.98L82.30 73.98Q84.61 73.09 86.34 73.86Q88.06 74.62 88.06 76.54L88.06 76.54Q88.06 79.10 84.35 84.29Q80.64 89.47 76.29 92.67L76.29 92.67Q71.30 96.64 71.30 97.47Q71.30 98.30 77.06 98.94L77.06 98.94Q99.97 100.61 106.37 106.62L106.37 106.62Q109.31 109.31 106.37 111.49L106.37 111.49Q105.47 112.38 104.70 112.19Q103.94 112 102.66 110.98L102.66 110.98Q98.43 106.88 87.17 105.09L87.17 105.09L74.11 102.91Q66.05 101.50 65.41 102.14Q64.77 102.78 64.64 116.03Q64.51 129.28 63.49 131.20L63.49 131.20Q61.57 135.04 58.11 133.70Q54.66 132.35 50.56 126.21L50.56 126.21Q45.95 119.04 47.36 119.04L47.36 119.04Q48.51 118.91 52.86 123.26L52.86 123.26Q57.09 127.49 58.24 127.49Q59.39 127.49 59.39 112.64L59.39 112.64L59.39 98.05L55.55 101.63Q52.10 105.60 46.85 112L46.85 112Q41.73 118.53 39.17 120.70Q36.61 122.88 35.20 122.75L35.20 122.75Q30.98 121.98 35.84 114.56L35.84 114.56Q37.89 111.23 39.68 106.05Q41.47 100.86 41.47 97.92L41.47 97.92Q41.47 96 39.81 94.91Q38.14 93.82 36.22 94.59L36.22 94.59Q34.30 95.10 33.54 93.95Q32.77 92.80 34.05 91.65L34.05 91.65Q35.97 89.73 38.78 89.66Q41.60 89.60 43.65 91.14L43.65 91.14Q45.57 92.67 45.89 93.89Q46.21 95.10 46.08 99.71L46.08 99.71L45.57 105.98L52.35 99.20L59.39 92.54L59.14 83.20Q58.88 74.75 57.86 74.62L57.86 74.62Q57.60 74.37 56.96 74.62L56.96 74.62Q55.04 75.26 47.62 77.06Q40.19 78.85 33.22 81.28Q26.24 83.71 24.32 83.71L24.32 83.71Q20.86 83.71 20.35 81.02Q19.84 78.34 22.78 76.29L22.78 76.29Q23.94 75.65 24.38 75.78Q24.83 75.90 25.47 77.18L25.47 77.18Q25.73 78.59 26.69 78.46Q27.65 78.34 32.64 76.54L32.64 76.54Q39.04 74.24 46.53 72.32Q54.02 70.40 56.58 69.50L56.58 69.50L59.39 68.48L59.14 56.19Q59.14 43.90 59.65 42.24Z"/>
</g>
<g transform="translate(767.7293730468749,153.94422140625)">
<path fill="#ce30d5" d="M73.47 75.26L73.47 75.26Q84.74 69.63 89.86 71.49Q94.98 73.34 97.28 83.71L97.28 83.71Q99.20 91.39 97.09 100.93Q94.98 110.46 90.11 114.94L90.11 114.94Q87.94 117.38 86.78 117.70Q85.63 118.02 81.28 117.50L81.28 117.50Q68.86 116.22 67.07 109.31L67.07 109.31Q66.43 106.11 66.94 102.91L66.94 102.91Q67.58 99.71 71.17 95.74Q74.75 91.78 77.44 91.14L77.44 91.14Q80.51 90.62 84.22 92.67Q87.94 94.72 89.86 98.18L89.86 98.18L91.52 101.50L92.29 96.13Q93.44 86.91 90.11 80.26L90.11 80.26Q88.96 77.44 88.13 76.93Q87.30 76.42 84.61 76.54L84.61 76.54Q81.28 76.67 75.33 79.42Q69.38 82.18 64.38 85.50L64.38 85.50L59.65 88.96L59.65 97.15Q59.39 105.47 57.34 110.08L57.34 110.08Q55.55 114.30 52.29 117.50Q49.02 120.70 47.62 120.19L47.62 120.19Q46.21 119.55 45.25 116.99Q44.29 114.43 44.29 111.23Q44.29 108.03 46.59 100.67Q48.90 93.31 50.43 91.78L50.43 91.78Q52.86 88.96 50.43 87.04L50.43 87.04Q49.02 86.27 47.36 87.94Q45.70 89.60 44.29 93.31L44.29 93.31Q40.58 103.94 38.78 103.94L38.78 103.94Q37.38 103.94 38.27 100.48L38.27 100.48Q38.78 98.43 40.70 92.67L40.70 92.67Q43.65 83.84 46.21 82.43L46.21 82.43Q48.38 81.28 50.75 81.73Q53.12 82.18 54.78 83.84L54.78 83.84Q55.94 84.86 56.83 84.61Q57.73 84.35 60.54 82.43L60.54 82.43Q64.90 79.36 73.47 75.26ZM54.27 100.10L54.27 100.10Q54.78 95.36 53.89 95.62L53.89 95.62Q52.35 95.87 50.43 104.70L50.43 104.70Q49.02 110.46 49.79 110.98L49.79 110.98Q50.56 111.36 51.39 109.70Q52.22 108.03 53.12 105.28Q54.02 102.53 54.27 100.10ZM83.07 99.46L83.07 99.46Q81.15 97.54 78.78 97.41Q76.42 97.28 74.75 98.94L74.75 98.94Q70.27 104.19 72.13 108.22Q73.98 112.26 80.90 112.26L80.90 112.26Q87.30 112.26 89.86 105.60L89.86 105.60Q90.75 103.30 90.11 103.30L90.11 103.30Q89.98 103.30 89.22 103.55L89.22 103.55Q87.94 104.32 86.53 104.13Q85.12 103.94 85.12 102.78L85.12 102.78Q85.12 101.38 83.07 99.46ZM36.99 57.47L36.99 57.47Q37.50 55.55 38.08 54.98Q38.66 54.40 39.94 54.66L39.94 54.66Q41.22 54.78 41.47 55.49Q41.73 56.19 41.73 58.62L41.73 58.62Q41.73 63.10 38.91 82.56Q36.10 102.02 35.20 105.22L35.20 105.22Q34.82 106.62 36.16 106.62Q37.50 106.62 36.86 109.82L36.86 109.82Q35.71 113.66 35.01 114.94Q34.30 116.22 32.51 116.22L32.51 116.22Q30.59 116.22 30.21 115.01Q29.82 113.79 29.95 109.06L29.95 109.06Q30.34 99.71 33.92 80.26L33.92 80.26Q34.82 75.26 35.39 67.90Q35.97 60.54 36.99 57.47Z"/>
</g>
<g transform="translate(895.6842685546874,153.94422140625)">
<path fill="#ce30d5" d="M67.84 126.85L67.84 126.85Q68.35 125.70 71.17 126.14Q73.98 126.59 77.89 128.64Q81.79 130.69 83.71 132.74L83.71 132.74Q85.89 135.04 85.50 137.54Q85.12 140.03 82.43 140.42L82.43 140.42Q80.90 140.67 80.38 140.29Q79.87 139.90 79.87 138.50L79.87 138.50Q79.87 135.04 75.26 133.76L75.26 133.76Q73.22 132.99 70.53 130.56Q67.84 128.13 67.84 126.85ZM77.95 65.15L77.95 65.15Q103.42 63.74 103.42 67.84L103.42 67.84Q103.42 69.50 100.54 71.04Q97.66 72.58 96.51 71.68L96.51 71.68Q95.36 70.66 81.79 69.76L81.79 69.76Q66.82 68.61 66.82 67.07L66.82 67.07Q66.82 66.69 67.20 66.30L67.20 66.30Q67.97 65.54 77.95 65.15ZM29.82 43.39L29.82 43.39Q31.87 42.11 33.60 43.46Q35.33 44.80 38.02 49.92L38.02 49.92Q39.55 52.99 39.68 56.38Q39.81 59.78 38.27 60.16L38.27 60.16Q37.89 60.29 37.12 59.33Q36.35 58.37 35.71 57.09L35.71 57.09Q34.43 53.38 31.42 48.77Q28.42 44.16 29.82 43.39ZM62.98 28.80L62.98 28.80Q67.84 25.98 67.46 29.95L67.46 29.95Q67.07 32.64 64.38 38.02L64.38 38.02Q61.06 44.54 61.44 44.80L61.44 44.80Q61.82 44.80 62.85 44.16L62.85 44.16Q69.76 39.55 77.31 37.38Q84.86 35.20 88.83 36.74L88.83 36.74Q93.44 38.40 84.86 46.85L84.86 46.85Q83.20 48.64 80.64 50.69L80.64 50.69Q75.65 54.91 69.89 59.07Q64.13 63.23 63.62 63.23L63.62 63.23Q63.23 63.23 58.69 68.03Q54.14 72.83 53.38 74.11L53.38 74.11Q52.61 75.65 52.22 78.85L52.22 78.85L51.84 81.92L56.83 81.28Q64.13 80.51 65.79 80.70Q67.46 80.90 67.58 82.30L67.58 82.30Q67.97 83.97 64.51 87.42L64.51 87.42L61.06 90.88L63.62 91.52Q66.05 92.29 65.98 94.59Q65.92 96.90 62.98 100.10L62.98 100.10Q60.16 103.42 60.74 104Q61.31 104.58 65.54 102.53Q69.76 100.48 71.68 100.48L71.68 100.48Q72.83 100.48 73.09 99.71Q73.34 98.94 72.96 95.74L72.96 95.74Q72.58 90.75 72.19 85.12L72.19 85.12Q72.06 80 71.10 78.21Q70.14 76.42 66.82 75.52L66.82 75.52Q63.36 74.50 60.93 75.90L60.93 75.90Q57.86 77.44 57.09 76.29Q56.32 75.14 58.75 72.96L58.75 72.96Q61.44 70.66 66.05 70.66L66.05 70.66Q70.66 70.66 72.90 71.62Q75.14 72.58 76.03 75.14L76.03 75.14Q77.44 78.46 78.08 98.43Q78.72 118.40 77.82 121.60L77.82 121.60Q76.29 126.08 71.42 121.22L71.42 121.22Q67.97 118.14 68.74 116.22L68.74 116.22Q69.12 115.46 70.53 116.22L70.53 116.22Q72.58 117.38 72.96 116.74Q73.34 116.10 73.34 111.23L73.34 111.23L73.22 105.09L67.46 111.49Q61.82 117.76 56.26 122.88Q50.69 128 47.87 130.82L47.87 130.82Q42.62 136.06 41.86 134.14L41.86 134.14Q41.73 133.89 41.73 133.76L41.73 133.76Q41.73 131.58 52.86 119.30L52.86 119.30Q59.78 111.62 59.01 111.62L59.01 111.62Q57.60 111.62 55.30 113.34Q52.99 115.07 52.99 116.22L52.99 116.22Q52.99 118.02 51.65 119.17Q50.30 120.32 48.90 120Q47.49 119.68 46.85 118.14L46.85 118.14Q46.34 116.22 46.34 99.58L46.34 99.58Q46.34 87.81 46.02 85.31Q45.70 82.82 44.42 82.43L44.42 82.43Q40.70 81.54 45.57 75.52L45.57 75.52Q49.02 71.30 53.50 64.96Q57.98 58.62 61.06 53.89Q64.13 49.15 63.62 49.15L63.62 49.15Q63.23 49.15 60.61 51.58Q57.98 54.02 54.27 55.74Q50.56 57.47 46.46 64.13L46.46 64.13Q36.48 79.74 32.77 84.29Q29.06 88.83 26.11 88.19L26.11 88.19Q25.22 88.06 24.90 86.98Q24.58 85.89 24.83 82.82L24.83 82.82Q24.96 77.31 26.88 76.42L26.88 76.42Q27.90 76.29 28.42 77.82L28.42 77.82Q28.67 78.46 28.80 79.36L28.80 79.36Q29.06 80.90 34.18 73.98L34.18 73.98Q38.02 68.74 46.72 55.94L46.72 55.94Q61.31 34.18 61.31 31.10L61.31 31.10Q61.31 29.82 62.98 28.80ZM77.18 46.34L77.18 46.34Q82.94 41.09 81.79 41.09L81.79 41.09Q81.02 40.96 77.57 42.11L77.57 42.11Q68.22 45.57 68.74 47.62L68.74 47.62Q69.76 48.64 69.76 50.37Q69.76 52.10 70.40 51.97Q71.04 51.84 77.18 46.34ZM56.45 86.53L56.45 86.53Q53.38 85.50 52.74 86.02Q52.10 86.53 52.10 89.60L52.10 89.60L52.10 93.44L55.30 90.11Q58.37 87.30 57.60 86.91L57.60 86.91Q57.47 86.66 56.45 86.53ZM55.68 100.86L55.68 100.86Q55.68 100.74 55.62 100.61Q55.55 100.48 55.17 100.61Q54.78 100.74 54.21 100.80Q53.63 100.86 52.61 101.12L52.61 101.12Q51.07 101.50 51.07 103.55L51.07 103.55Q51.07 104.96 51.39 104.96Q51.71 104.96 53.38 103.42L53.38 103.42Q55.68 101.25 55.68 100.86Z"/>
</g>
<g transform="translate(1023.6391640624998,153.94422140625)">
<path fill="#ce30d5" d="M15.49 96.51L15.49 96.51Q15.87 94.46 16.64 93.70Q17.41 92.93 18.11 94.08Q18.82 95.23 18.82 97.28L18.82 97.28Q18.82 100.99 20.80 105.15Q22.78 109.31 24.32 109.31L24.32 109.31Q25.98 109.31 28.03 112.83Q30.08 116.35 29.44 118.27L29.44 118.27Q28.93 120.70 27.01 120.51Q25.09 120.32 22.66 117.50L22.66 117.50Q18.56 112.77 16.51 106.94Q14.46 101.12 15.49 96.51ZM20.61 66.43L20.61 66.43Q22.14 63.36 22.91 66.43L22.91 66.43Q23.30 67.58 23.30 68.99L23.30 68.99Q23.30 72.19 25.60 75.14L25.60 75.14Q27.39 77.06 27.84 78.78Q28.29 80.51 28.03 84.22L28.03 84.22Q28.03 86.40 26.62 87.81Q25.22 89.22 23.55 88.58L23.55 88.58Q22.14 88.06 22.72 85.63Q23.30 83.20 21.50 79.10L21.50 79.10Q17.79 71.04 20.61 66.43ZM94.59 60.80L94.59 60.80Q97.54 60.16 102.53 60.29L102.53 60.29Q105.98 60.29 106.94 60.74Q107.90 61.18 108.03 62.72L108.03 62.72Q108.16 64.51 106.50 67.07Q104.83 69.63 101.25 76.22Q97.66 82.82 94.78 86.40Q91.90 89.98 91.39 94.85L91.39 94.85Q90.88 99.84 91.78 99.84L91.78 99.84Q91.90 99.84 92.67 99.71L92.67 99.71Q94.59 98.94 101.70 98.94Q108.80 98.94 110.91 99.58Q113.02 100.22 113.02 103.04L113.02 103.04Q113.02 104.70 111.81 105.86Q110.59 107.01 106.50 109.82L106.50 109.82Q95.36 116.86 93.18 116.86L93.18 116.86Q92.16 116.86 93.18 114.56L93.18 114.56Q93.95 113.41 94.59 113.15L94.59 113.15Q95.62 112.38 100.48 108.67L100.48 108.67Q104.06 105.73 104.51 104.96Q104.96 104.19 103.94 103.42L103.94 103.42Q102.14 102.14 97.02 102.59Q91.90 103.04 91.58 103.30Q91.26 103.55 90.75 111.49L90.75 111.49Q89.86 125.31 86.27 125.31L86.27 125.31Q82.69 125.31 73.98 117.63L73.98 117.63Q69.25 113.28 67.58 113.28L67.58 113.28Q65.66 113.28 64.13 112.06Q62.59 110.85 62.59 109.44L62.59 109.44Q62.59 107.90 65.98 107.39Q69.38 106.88 77.06 104.19L77.06 104.19L84.86 101.50L84.86 97.15L84.86 92.67L82.30 93.95Q79.74 95.23 75.84 95.30Q71.94 95.36 70.91 94.08L70.91 94.08Q69.76 92.80 68.48 74.75L68.48 74.75Q67.71 66.56 68.86 65.15L68.86 65.15Q70.78 62.85 71.55 66.43L71.55 66.43Q71.94 67.97 72.06 71.04L72.06 71.04Q72.96 77.57 73.47 77.57Q73.98 77.57 76.03 74.11L76.03 74.11Q77.44 71.55 83.90 67.07Q90.37 62.59 94.59 60.80ZM101.50 64.38L101.50 64.38Q101.63 63.74 100.48 63.62L100.48 63.62Q96.26 63.23 92.67 65.28L92.67 65.28Q85.38 69.38 82.56 71.42Q79.74 73.47 78.59 75.52L78.59 75.52Q76.93 78.59 77.63 79.17Q78.34 79.74 83.20 77.95Q88.06 76.16 89.47 76.54L89.47 76.54Q90.75 77.06 90.30 78.46Q89.86 79.87 87.94 80.51L87.94 80.51Q85.38 81.41 82.18 83.20Q78.98 84.99 77.82 84.48L77.82 84.48Q77.06 84.35 76.80 84.93Q76.54 85.50 76.54 86.91L76.54 86.91Q76.54 88.70 76.93 89.15Q77.31 89.60 79.62 89.47L79.62 89.47Q84.22 88.96 87.81 85.76Q91.39 82.56 95.74 74.75L95.74 74.75Q101.12 65.15 101.50 64.38ZM84.35 116.86L85.12 109.82Q85.50 106.37 85.31 105.54Q85.12 104.70 84.10 104.70L84.10 104.70Q82.18 104.70 77.25 107.46Q72.32 110.21 72.32 111.36L72.32 111.36Q72.32 112.38 77.31 116.03Q82.30 119.68 83.33 119.42L83.33 119.42Q84.22 119.17 84.35 116.86L84.35 116.86ZM80.38 50.30L80.38 50.30Q84.35 47.36 86.78 50.18L86.78 50.18Q88.06 51.84 85.89 54.98Q83.71 58.11 78.98 60.67L78.98 60.67Q72.32 64.38 72.32 62.72L72.32 62.72Q72.32 61.44 75.39 59.14L75.39 59.14Q77.82 57.34 78.46 56.26Q79.10 55.17 78.59 54.14L78.59 54.14Q78.08 51.71 80.38 50.30ZM34.05 42.11L34.05 42.11L31.10 39.55L34.18 39.55Q36.99 39.42 40.70 42.62L40.70 42.62Q42.88 44.80 43.39 45.95Q43.90 47.10 43.52 49.02L43.52 49.02Q42.11 54.91 36.74 55.17L36.74 55.17Q33.54 55.17 33.54 54.72Q33.54 54.27 36.10 51.07L36.10 51.07Q38.02 48.38 37.76 46.59Q37.50 44.80 34.05 42.11ZM81.54 32L81.54 32Q87.04 29.82 88.51 29.50Q89.98 29.18 91.39 30.08L91.39 30.08Q92.54 30.72 91.90 32.77Q91.26 34.82 89.60 34.94L89.60 34.94Q85.76 35.20 80.64 36.86L80.64 36.86Q78.08 37.89 77.50 38.53Q76.93 39.17 77.06 41.09L77.06 41.09Q77.44 44.03 73.22 51.33Q68.99 58.62 61.95 76.80L61.95 76.80Q46.34 116.99 44.54 119.55L44.54 119.55Q43.90 120.96 39.04 132.22Q34.18 143.49 32.70 144.70Q31.23 145.92 30.46 145.02Q29.70 144.13 30.72 142.40Q31.74 140.67 37.12 127.62Q42.50 114.56 43.26 112.26Q44.03 109.95 45.18 107.01L45.18 107.01Q46.72 103.17 52.74 87.04L52.74 87.04Q61.31 63.10 70.14 45.70L70.14 45.70Q72.32 41.09 71.55 40.51Q70.78 39.94 65.02 41.98L65.02 41.98Q60.54 43.52 59.26 42.24L59.26 42.24Q56.32 39.94 63.10 38.14L63.10 38.14Q63.74 37.89 64.90 37.63L64.90 37.63Q70.14 36.35 70.53 35.58Q70.91 34.82 73.02 34.82Q75.14 34.82 81.54 32Z"/>
</g>
<g transform="translate(0,307.8884428125)">
<path fill="#ce30d5" d="M21.38 84.35L21.38 84.35Q23.17 82.56 24.38 82.56Q25.60 82.56 28.16 83.97L28.16 83.97Q30.85 85.63 30.85 88.58L30.85 88.58Q30.85 91.39 29.12 92.99Q27.39 94.59 24.58 94.08L24.58 94.08Q21.12 93.70 19.90 90.37Q18.69 87.04 21.38 84.35ZM61.57 83.33L61.57 83.33Q63.74 81.28 67.26 81.47Q70.78 81.66 72.32 83.84L72.32 83.84Q75.26 88.32 71.81 91.65L71.81 91.65Q70.27 93.06 67.90 93.76Q65.54 94.46 64.64 93.70L64.64 93.70Q63.87 93.18 62.40 90.88Q60.93 88.58 60.42 86.91L60.42 86.91Q59.90 85.38 61.57 83.33ZM107.26 81.28L107.26 81.28Q109.44 81.02 109.95 80.64L109.95 80.64Q110.98 80.38 112.26 83.65Q113.54 86.91 113.41 88.70L113.41 88.70Q112.90 93.44 106.50 91.90L106.50 91.90Q102.53 90.75 102.02 88.96L102.02 88.96Q101.38 87.30 103.30 84.48Q105.22 81.66 107.26 81.28Z"/>
</g>
<g transform="translate(127.9548955078125,307.8884428125)">
<path fill="#ce30d5" d="M21.38 84.35L21.38 84.35Q23.17 82.56 24.38 82.56Q25.60 82.56 28.16 83.97L28.16 83.97Q30.85 85.63 30.85 88.58L30.85 88.58Q30.85 91.39 29.12 92.99Q27.39 94.59 24.58 94.08L24.58 94.08Q21.12 93.70 19.90 90.37Q18.69 87.04 21.38 84.35ZM61.57 83.33L61.57 83.33Q63.74 81.28 67.26 81.47Q70.78 81.66 72.32 83.84L72.32 83.84Q75.26 88.32 71.81 91.65L71.81 91.65Q70.27 93.06 67.90 93.76Q65.54 94.46 64.64 93.70L64.64 93.70Q63.87 93.18 62.40 90.88Q60.93 88.58 60.42 86.91L60.42 86.91Q59.90 85.38 61.57 83.33ZM107.26 81.28L107.26 81.28Q109.44 81.02 109.95 80.64L109.95 80.64Q110.98 80.38 112.26 83.65Q113.54 86.91 113.41 88.70L113.41 88.70Q112.90 93.44 106.50 91.90L106.50 91.90Q102.53 90.75 102.02 88.96L102.02 88.96Q101.38 87.30 103.30 84.48Q105.22 81.66 107.26 81.28Z"/>
</g>
</g>
</svg>