<?xml version="1.0" encoding="utf-8"?>
<!DOCTYPE svg PUBLIC "-//W3C//DTD SVG 1.1//EN" "http://www.w3.org/Graphics/SVG/1.1/DTD/svg11.dtd">
<svg version="1.1" xmlns="http://www.w3.org/2000/svg" width="1163.1100001660154" height="482.825058046875" viewBox="0 0 1163.1100001660154 482.825058046875">
<g>
<g>
<rect fill="#FFFFFF" width="0" height="0" />
</g>
<g transform="translate(0,0)">
<path fill="#ce30d5" d="M40.19 51.71L40.19 51.71Q43.39 48 45.82 51.71L45.82 51.71Q46.59 53.25 43.78 56.96L43.78 56.96Q41.98 59.01 40 62.66Q38.02 66.30 38.02 66.94L38.02 66.94Q38.02 67.20 39.30 66.94L39.30 66.94Q41.86 66.82 42.37 69.63Q42.88 72.45 41.86 80.90L41.86 80.90Q40.70 91.26 40.32 95.74L40.32 95.74L39.55 100.22L46.59 99.46Q52.22 98.94 53.57 99.78Q54.91 100.61 54.14 103.42L54.14 103.42Q53.76 105.09 52.80 105.41Q51.84 105.73 47.23 105.73L47.23 105.73Q41.34 105.73 40 107.33Q38.66 108.93 38.66 116.10L38.66 116.10Q38.40 121.98 37.38 123.84Q36.35 125.70 34.18 124.42L34.18 124.42Q30.46 122.50 32.26 112.38L32.26 112.38Q33.02 107.39 32.26 107.01Q31.49 106.62 22.78 108.03L22.78 108.03Q11.14 109.82 8.06 111.10L8.06 111.10Q6.53 111.87 5.82 111.55Q5.12 111.23 4.35 109.70L4.35 109.70Q3.58 108.42 3.58 107.39Q3.58 106.37 4.74 104.45L4.74 104.45Q6.53 101.12 8 99.46Q9.47 97.79 14.34 90.62L14.34 90.62L22.14 79.74Q24.83 75.78 24.83 74.88Q24.83 73.98 25.73 73.98Q26.62 73.98 27.78 70.78Q28.93 67.58 29.50 67.58Q30.08 67.58 34.11 60.80Q38.14 54.02 40.19 51.71ZM36.35 74.24L36.35 74.24Q36.61 72.58 36.61 71.23Q36.61 69.89 36.61 69.18Q36.61 68.48 36.61 68.48L36.61 68.48Q36.22 68.48 32 75.65L32 75.65Q23.55 89.34 15.87 98.82L15.87 98.82Q12.67 102.66 12.67 103.30L12.67 103.30Q13.06 103.55 15.23 103.49Q17.41 103.42 20.35 102.98Q23.30 102.53 24.58 101.89L24.58 101.89Q26.88 101.12 30.02 101.12Q33.15 101.12 33.54 100.29Q33.92 99.46 34.50 92.61Q35.07 85.76 35.65 82.94Q36.22 80.13 36.35 74.24Z"/>
</g>
<g transform="translate(58.007234375,0)">
<path fill="#ce30d5" d="M22.72 56.77Q27.14 56.19 28.03 55.87Q28.93 55.55 29.38 55.49Q29.82 55.42 33.28 57.98L33.28 57.98Q36.35 60.03 38.21 64.45Q40.06 68.86 41.98 78.46L41.98 78.46Q43.52 85.76 43.01 94.59Q42.50 103.42 40.58 108.80L40.58 108.80Q38.27 114.82 32.38 117.50Q26.50 120.19 20.10 118.53L20.10 118.53Q16.90 117.50 14.91 115.46Q12.93 113.41 9.98 108.16L9.98 108.16Q8.32 105.09 7.81 102.53Q7.30 99.97 7.17 93.18L7.17 93.18Q6.78 82.43 8.32 75.97Q9.86 69.50 9.28 68.61Q8.70 67.71 10.18 67.26Q11.65 66.82 11.65 65.54Q11.65 64.26 14.98 60.80Q18.30 57.34 22.72 56.77ZM29.82 63.49L29.82 63.49Q27.90 62.21 24.06 62.08L24.06 62.08Q21.38 62.08 20.61 62.66Q19.84 63.23 18.43 66.43L18.43 66.43Q12.93 78.85 13.82 93.70L13.82 93.70Q14.08 100.99 15.17 103.94Q16.26 106.88 19.71 110.08L19.71 110.08Q24.06 114.30 29.18 111.87L29.18 111.87Q33.54 109.95 34.94 106.18Q36.35 102.40 36.35 92.80L36.35 92.80Q36.22 81.66 34.56 73.66Q32.90 65.66 29.82 63.49Z"/>
</g>
<g transform="translate(108.23473437500002,0)">
<path fill="#ce30d5" d="M12.16 54.40L12.16 54.40Q13.70 52.22 15.23 53.12L15.23 53.12Q17.02 54.27 17.60 56.58Q18.18 58.88 17.15 61.18L17.15 61.18Q14.98 67.07 13.76 87.30Q12.54 107.52 14.08 114.43L14.08 114.43Q15.49 120.19 12.42 121.73L12.42 121.73Q10.11 122.75 8.19 119.81L8.19 119.81Q6.78 117.50 6.78 102.21Q6.78 86.91 7.30 85.63Q7.81 84.35 8.70 74.11L8.70 74.11Q10.11 57.34 12.16 54.40Z"/>
</g>
<g transform="translate(0,153.94422140625)">
<path fill="#ce30d5" d="M88.51 83.26Q90.24 82.69 90.82 81.34Q91.39 80 93.70 80L93.70 80Q95.23 80 95.62 80.58Q96 81.15 96 82.82Q96 84.48 96.70 85.25Q97.41 86.02 99.33 86.53L99.33 86.53Q102.53 87.68 105.09 90.62L105.09 90.62Q106.62 92.54 107.01 93.76Q107.39 94.98 107.01 97.66L107.01 97.66Q105.98 104.58 100.99 111.30Q96 118.02 89.09 122.11L89.09 122.11Q84.86 124.54 83.07 124.67Q81.28 124.80 79.87 122.62L79.87 122.62Q76.93 118.66 78.98 110.72L78.98 110.72Q80.13 105.73 80.26 104.45L80.26 104.45Q80.26 102.91 73.86 108.29L73.86 108.29Q72.19 109.82 70.78 111.36L70.78 111.36Q68.48 113.79 63.23 117.38Q57.98 120.96 55.04 121.86L55.04 121.86Q51.84 123.01 49.34 122.94Q46.85 122.88 46.21 121.47L46.21 121.47Q45.82 120.19 46.21 118.34Q46.59 116.48 47.36 116.48L47.36 116.48Q48 116.48 52.74 112.26L52.74 112.26Q57.34 108.03 55.42 108.29L55.42 108.29Q53.89 108.29 48.51 110.34L48.51 110.34Q41.09 113.41 39.42 115.26Q37.76 117.12 39.17 120.58L39.17 120.58Q40.06 122.88 39.10 124.80Q38.14 126.72 36.22 126.72L36.22 126.72Q33.92 126.72 31.04 117.70Q28.16 108.67 29.70 106.11L29.70 106.11Q30.85 104.45 30.34 103.04L30.34 103.04Q29.95 102.27 31.17 101.31Q32.38 100.35 35.84 98.82L35.84 98.82Q41.86 96.13 45.82 93.44L45.82 93.44Q59.90 84.22 59.65 89.60L59.65 89.60Q59.65 91.39 57.66 92.93Q55.68 94.46 48 98.30L48 98.30Q37.38 103.42 36.80 104.32Q36.22 105.22 34.56 105.22L34.56 105.22Q31.10 105.22 34.18 109.57L34.18 109.57L35.46 111.74L41.09 108.42Q45.31 106.11 53.06 103.36Q60.80 100.61 63.36 100.61L63.36 100.61Q68.10 100.61 65.28 106.75L65.28 106.75Q63.49 110.34 63.49 110.59L63.49 110.59Q63.49 112.13 70.02 106.75L70.02 106.75Q72.58 104.83 73.73 103.30L73.73 103.30L81.79 93.70Q86.78 88.06 86.78 85.95Q86.78 83.84 88.51 83.26ZM97.92 91.78L97.92 91.78Q95.23 90.37 93.31 90.37L93.31 90.37Q92.03 90.37 89.54 92.99Q87.04 95.62 85.50 98.69L85.50 98.69Q83.71 102.14 82.37 110.08Q81.02 118.02 82.05 118.66L82.05 118.66Q84.35 120.19 90.50 114.69Q96.64 109.18 99.33 103.42L99.33 103.42Q101.63 98.43 101.31 95.87Q100.99 93.31 97.92 91.78ZM49.92 80.26L49.92 80.26Q52.99 77.95 54.14 77.57Q55.30 77.18 56.83 78.08L56.83 78.08Q57.73 78.85 57.54 79.94Q57.34 81.02 55.94 82.37Q54.53 83.71 51.97 85.25L51.97 85.25Q42.62 90.37 40.13 91.33Q37.63 92.29 35.71 91.78L35.71 91.78Q33.15 90.75 33.28 89.41Q33.41 88.06 35.84 87.55L35.84 87.55Q41.98 86.14 49.92 80.26ZM108.16 67.20L108.16 67.20Q109.44 66.43 112.13 66.88Q114.82 67.33 114.82 68.35L114.82 68.35Q114.82 70.78 111.17 72.26Q107.52 73.73 98.69 75.01L98.69 75.01Q96.26 75.39 84.35 79.10L84.35 79.10Q66.18 84.86 64.90 81.41L64.90 81.41Q64.51 80.26 66.43 79.30Q68.35 78.34 74.62 76.80L74.62 76.80Q80.90 75.39 88.26 72.70Q95.62 70.02 101.18 68.86Q106.75 67.71 108.16 67.20ZM59.52 63.36L59.52 63.36Q65.79 60.03 66.94 62.98L66.94 62.98Q68.35 66.56 61.95 68.48L61.95 68.48L53.12 71.17Q48 72.70 37.25 77.31L37.25 77.31Q14.34 86.91 13.18 82.18L13.18 82.18Q13.18 81.54 13.18 80.77L13.18 80.77Q13.44 79.49 14.08 79.10Q14.72 78.72 16.51 78.85L16.51 78.85Q20.74 79.23 50.43 66.82L50.43 66.82Q52.74 65.79 54.40 65.54Q56.06 65.28 59.52 63.36ZM86.40 45.82L86.40 45.82Q89.09 44.80 89.98 44.93Q90.88 45.06 94.08 46.59L94.08 46.59Q97.92 48.26 97.92 50.11Q97.92 51.97 96.38 53.50Q94.85 55.04 93.57 54.40L93.57 54.40Q92.16 53.89 91.33 53.89Q90.50 53.89 90.50 52.16Q90.50 50.43 87.55 49.66L87.55 49.66Q85.63 49.02 84.80 48.38Q83.97 47.74 84.42 47.04Q84.86 46.34 86.40 45.82ZM50.05 41.73L50.05 41.73Q52.74 41.22 56.19 41.47Q59.65 41.73 61.06 42.50L61.06 42.50Q62.98 43.52 61.95 45.18L61.95 45.18Q59.90 48.64 52.74 46.21L52.74 46.21Q48.51 44.80 48.51 42.75L48.51 42.75Q48.51 41.98 50.05 41.73Z"/>
</g>
<g transform="translate(127.9548955078125,153.94422140625)">
<path fill="#ce30d5" d="M66.43 85.25L66.43 85.25Q69.38 84.10 72.90 83.71Q76.42 83.33 78.34 84.10L78.34 84.10Q79.87 84.61 79.81 88Q79.74 91.39 78.21 94.59L78.21 94.59Q76.80 97.15 76.80 97.79Q76.80 98.43 78.21 99.84L78.21 99.84Q79.74 101.50 78.85 103.23Q77.95 104.96 77.31 104.58Q76.67 104.19 72.58 104.96L72.58 104.96Q66.69 106.37 65.34 104.32Q64 102.27 68.22 99.07L68.22 99.07Q70.66 97.15 72.51 94.34Q74.37 91.52 74.37 89.86L74.37 89.86Q74.37 88.45 70.14 89.22L70.14 89.22Q64.38 90.24 61.89 92.80Q59.39 95.36 59.39 100.22L59.39 100.22Q59.39 104.06 58.69 105.47Q57.98 106.88 56.06 106.88L56.06 106.88Q54.53 106.88 54.08 105.92Q53.63 104.96 52.86 101.50L52.86 101.50Q51.84 96.13 51.33 93.31L51.33 93.31Q50.69 91.01 50.69 88.96Q50.69 86.91 51.26 85.70Q51.84 84.48 52.61 84.61L52.61 84.61Q54.78 84.99 56.06 89.47L56.06 89.47Q56.32 89.98 56.51 90.30Q56.70 90.62 57.09 90.50Q57.47 90.37 57.92 89.98Q58.37 89.60 59.52 88.83L59.52 88.83Q62.59 86.53 66.43 85.25ZM40.70 46.59L40.70 46.59Q43.01 45.44 45.44 45.31Q47.87 45.18 48.77 46.34L48.77 46.34Q49.92 47.36 49.41 58.88L49.41 58.88Q48.77 70.40 50.18 70.40L50.18 70.40Q50.69 70.40 51.84 68.99L51.84 68.99Q52.61 68.22 53.50 67.97Q54.40 67.71 55.04 67.78Q55.68 67.84 55.68 68.61L55.68 68.61Q55.68 69.38 54.53 70.53L54.53 70.53Q48.26 76.93 48 82.18L48 82.18Q48 86.91 46.78 91.52Q45.57 96.13 44.16 96.90L44.16 96.90Q42.50 98.05 40.70 95.74L40.70 95.74Q39.04 93.70 39.04 92.93Q39.04 92.16 40.70 91.78L40.70 91.78Q42.62 91.14 42.62 88.70L42.62 88.70L42.62 86.02L39.42 89.09Q37.12 91.14 36.22 91.52Q35.33 91.90 34.18 91.14L34.18 91.14Q32.51 89.98 31.94 90.88Q31.36 91.78 30.72 106.11L30.72 106.11Q30.34 115.33 30.53 118.53Q30.72 121.73 31.74 123.78L31.74 123.78Q33.41 127.10 33.02 131.33L33.02 131.33Q32.90 134.02 32.51 134.66Q32.13 135.30 30.59 135.30Q29.06 135.30 28.48 134.34Q27.90 133.38 27.14 129.15L27.14 129.15Q24.58 115.33 28.03 78.08L28.03 78.08Q30.59 52.48 30.98 51.71L30.98 51.71Q31.74 50.82 33.34 50.88Q34.94 50.94 35.33 52.10L35.33 52.10Q35.97 53.25 35.20 57.41Q34.43 61.57 34.18 64.26L34.18 64.26Q34.18 65.79 34.69 66.24Q35.20 66.69 36.86 66.69L36.86 66.69Q41.47 66.69 42.88 70.53L42.88 70.53Q43.78 73.09 44.16 68.86L44.16 68.86Q44.42 66.56 44.54 62.08L44.54 62.08Q44.54 61.31 44.54 60.03L44.54 60.03Q44.80 52.48 44.42 51.33Q44.03 50.18 41.86 50.43L41.86 50.43Q41.47 50.56 41.34 50.56L41.34 50.56Q37.50 51.20 37.31 49.66Q37.12 48.13 40.70 46.59ZM38.66 71.55L38.66 71.55Q37.63 70.40 37.12 70.53L37.12 70.53Q34.56 71.17 33.98 72.13Q33.41 73.09 33.02 77.18L33.02 77.18Q31.87 87.17 32.90 87.55L32.90 87.55Q33.66 87.94 34.94 85.63L34.94 85.63Q35.97 84.48 37.12 82.18L37.12 82.18Q41.47 74.50 38.66 71.55ZM42.62 75.78Q42.88 77.57 43.33 76.29Q43.78 75.01 43.26 74.50L43.26 74.50Q43.01 74.24 42.88 74.62L42.88 74.62Q42.62 75.01 42.62 75.78L42.62 75.78ZM91.90 33.54L91.90 33.54Q93.44 32.51 95.81 32.70Q98.18 32.90 100.35 34.30L100.35 34.30Q101.63 35.07 101.95 35.90Q102.27 36.74 101.89 39.30L101.89 39.30Q100.35 49.66 99.97 81.92Q99.58 114.18 100.86 125.57L100.86 125.57Q101.25 129.92 101.18 131.46Q101.12 132.99 100.10 133.76L100.10 133.76Q97.02 136.32 93.95 130.18L93.95 130.18Q91.26 124.42 93.82 124.80L93.82 124.80Q94.21 124.80 94.59 124.93L94.59 124.93Q95.74 125.31 95.49 124.16L95.49 124.16Q95.49 123.65 95.36 122.50L95.36 122.50Q94.59 119.42 94.72 93.44L94.72 93.44L94.98 67.46L92.42 68.22Q89.73 68.86 87.49 70.59Q85.25 72.32 83.07 71.94Q80.90 71.55 80.64 72.06L80.64 72.06Q80.26 75.78 79.23 77.06Q78.21 78.34 76.67 76.93L76.67 76.93Q75.52 76.03 75.33 73.22Q75.14 70.40 75.65 60.03L75.65 60.03Q76.29 44.29 76.74 42.94Q77.18 41.60 79.74 41.60L79.74 41.60Q81.28 41.60 81.54 42.37Q81.79 43.14 81.66 47.10L81.66 47.10L81.28 52.74L84.10 51.97Q88.58 51.20 90.11 51.46Q91.65 51.71 91.90 53.63L91.90 53.63Q92.29 56.19 90.82 57.73Q89.34 59.26 89.34 59.78L89.34 59.78Q89.34 60.80 87.62 62.34Q85.89 63.87 84.86 63.87L84.86 63.87Q84.10 63.87 83.84 63.30Q83.58 62.72 83.84 61.82Q84.10 60.93 85.12 60.16L85.12 60.16Q86.78 58.62 86.40 57.47Q86.02 56.32 83.71 56.58L83.71 56.58Q82.05 56.70 81.66 57.47Q81.28 58.24 81.02 61.18L81.02 61.18Q80.90 64 81.15 64.90Q81.41 65.79 82.82 66.18L82.82 66.18Q84.86 66.56 86.40 65.15L86.40 65.15Q87.81 64 90.82 63.94Q93.82 63.87 94.21 65.15L94.21 65.15Q94.59 66.18 95.10 54.27L95.10 54.27Q95.36 53.50 95.36 52.48L95.36 52.48Q95.87 38.91 95.42 37.44Q94.98 35.97 92.67 36.61L92.67 36.61Q91.14 36.74 90.56 36.48Q89.98 36.22 90.37 35.33Q90.75 34.43 91.90 33.54Z"/>
</g>
<g transform="translate(255.909791015625,153.94422140625)">
<path fill="#ce30d5" d="M67.84 126.85L67.84 126.85Q68.35 125.70 71.17 126.14Q73.98 126.59 77.89 128.64Q81.79 130.69 83.71 132.74L83.71 132.74Q85.89 135.04 85.50 137.54Q85.12 140.03 82.43 140.42L82.43 140.42Q80.90 140.67 80.38 140.29Q79.87 139.90 79.87 138.50L79.87 138.50Q79.87 135.04 75.26 133.76L75.26 133.76Q73.22 132.99 70.53 130.56Q67.84 128.13 67.84 126.85ZM77.95 65.15L77.95 65.15Q103.42 63.74 103.42 67.84L103.42 67.84Q103.42 69.50 100.54 71.04Q97.66 72.58 96.51 71.68L96.51 71.68Q95.36 70.66 81.79 69.76L81.79 69.76Q66.82 68.61 66.82 67.07L66.82 67.07Q66.82 66.69 67.20 66.30L67.20 66.30Q67.97 65.54 77.95 65.15ZM29.82 43.39L29.82 43.39Q31.87 42.11 33.60 43.46Q35.33 44.80 38.02 49.92L38.02 49.92Q39.55 52.99 39.68 56.38Q39.81 59.78 38.27 60.16L38.27 60.16Q37.89 60.29 37.12 59.33Q36.35 58.37 35.71 57.09L35.71 57.09Q34.43 53.38 31.42 48.77Q28.42 44.16 29.82 43.39ZM62.98 28.80L62.98 28.80Q67.84 25.98 67.46 29.95L67.46 29.95Q67.07 32.64 64.38 38.02L64.38 38.02Q61.06 44.54 61.44 44.80L61.44 44.80Q61.82 44.80 62.85 44.16L62.85 44.16Q69.76 39.55 77.31 37.38Q84.86 35.20 88.83 36.74L88.83 36.74Q93.44 38.40 84.86 46.85L84.86 46.85Q83.20 48.64 80.64 50.69L80.64 50.69Q75.65 54.91 69.89 59.07Q64.13 63.23 63.62 63.23L63.62 63.23Q63.23 63.23 58.69 68.03Q54.14 72.83 53.38 74.11L53.38 74.11Q52.61 75.65 52.22 78.85L52.22 78.85L51.84 81.92L56.83 81.28Q64.13 80.51 65.79 80.70Q67.46 80.90 67.58 82.30L67.58 82.30Q67.97 83.97 64.51 87.42L64.51 87.42L61.06 90.88L63.62 91.52Q66.05 92.29 65.98 94.59Q65.92 96.90 62.98 100.10L62.98 100.10Q60.16 103.42 60.74 104Q61.31 104.58 65.54 102.53Q69.76 100.48 71.68 100.48L71.68 100.48Q72.83 100.48 73.09 99.71Q73.34 98.94 72.96 95.74L72.96 95.74Q72.58 90.75 72.19 85.12L72.19 85.12Q72.06 80 71.10 78.21Q70.14 76.42 66.82 75.52L66.82 75.52Q63.36 74.50 60.93 75.90L60.93 75.90Q57.86 77.44 57.09 76.29Q56.32 75.14 58.75 72.96L58.75 72.96Q61.44 70.66 66.05 70.66L66.05 70.66Q70.66 70.66 72.90 71.62Q75.14 72.58 76.03 75.14L76.03 75.14Q77.44 78.46 78.08 98.43Q78.72 118.40 77.82 121.60L77.82 121.60Q76.29 126.08 71.42 121.22L71.42 121.22Q67.97 118.14 68.74 116.22L68.74 116.22Q69.12 115.46 70.53 116.22L70.53 116.22Q72.58 117.38 72.96 116.74Q73.34 116.10 73.34 111.23L73.34 111.23L73.22 105.09L67.46 111.49Q61.82 117.76 56.26 122.88Q50.69 128 47.87 130.82L47.87 130.82Q42.62 136.06 41.86 134.14L41.86 134.14Q41.73 133.89 41.73 133.76L41.73 133.76Q41.73 131.58 52.86 119.30L52.86 119.30Q59.78 111.62 59.01 111.62L59.01 111.62Q57.60 111.62 55.30 113.34Q52.99 115.07 52.99 116.22L52.99 116.22Q52.99 118.02 51.65 119.17Q50.30 120.32 48.90 120Q47.49 119.68 46.85 118.14L46.85 118.14Q46.34 116.22 46.34 99.58L46.34 99.58Q46.34 87.81 46.02 85.31Q45.70 82.82 44.42 82.43L44.42 82.43Q40.70 81.54 45.57 75.52L45.57 75.52Q49.02 71.30 53.50 64.96Q57.98 58.62 61.06 53.89Q64.13 49.15 63.62 49.15L63.62 49.15Q63.23 49.15 60.61 51.58Q57.98 54.02 54.27 55.74Q50.56 57.47 46.46 64.13L46.46 64.13Q36.48 79.74 32.77 84.29Q29.06 88.83 26.11 88.19L26.11 88.19Q25.22 88.06 24.90 86.98Q24.58 85.89 24.83 82.82L24.83 82.82Q24.96 77.31 26.88 76.42L26.88 76.42Q27.90 76.29 28.42 77.82L28.42 77.82Q28.67 78.46 28.80 79.36L28.80 79.36Q29.06 80.90 34.18 73.98L34.18 73.98Q38.02 68.74 46.72 55.94L46.72 55.94Q61.31 34.18 61.31 31.10L61.31 31.10Q61.31 29.82 62.98 28.80ZM77.18 46.34L77.18 46.34Q82.94 41.09 81.79 41.09L81.79 41.09Q81.02 40.96 77.57 42.11L77.57 42.11Q68.22 45.57 68.74 47.62L68.74 47.62Q69.76 48.64 69.76 50.37Q69.76 52.10 70.40 51.97Q71.04 51.84 77.18 46.34ZM56.45 86.53L56.45 86.53Q53.38 85.50 52.74 86.02Q52.10 86.53 52.10 89.60L52.10 89.60L52.10 93.44L55.30 90.11Q58.37 87.30 57.60 86.91L57.60 86.91Q57.47 86.66 56.45 86.53ZM55.68 100.86L55.68 100.86Q55.68 100.74 55.62 100.61Q55.55 100.48 55.17 100.61Q54.78 100.74 54.21 100.80Q53.63 100.86 52.61 101.12L52.61 101.12Q51.07 101.50 51.07 103.55L51.07 103.55Q51.07 104.96 51.39 104.96Q51.71 104.96 53.38 103.42L53.38 103.42Q55.68 101.25 55.68 100.86Z"/>
</g>
<g transform="translate(383.8646865234375,153.94422140625)">
<path fill="#ce30d5" d="M15.49 96.51L15.49 96.51Q15.87 94.46 16.64 93.70Q17.41 92.93 18.11 94.08Q18.82 95.23 18.82 97.28L18.82 97.28Q18.82 100.99 20.80 105.15Q22.78 109.31 24.32 109.31L24.32 109.31Q25.98 109.31 28.03 112.83Q30.08 116.35 29.44 118.27L29.44 118.27Q28.93 120.70 27.01 120.51Q25.09 120.32 22.66 117.50L22.66 117.50Q18.56 112.77 16.51 106.94Q14.46 101.12 15.49 96.51ZM20.61 66.43L20.61 66.43Q22.14 63.36 22.91 66.43L22.91 66.43Q23.30 67.58 23.30 68.99L23.30 68.99Q23.30 72.19 25.60 75.14L25.60 75.14Q27.39 77.06 27.84 78.78Q28.29 80.51 28.03 84.22L28.03 84.22Q28.03 86.40 26.62 87.81Q25.22 89.22 23.55 88.58L23.55 88.58Q22.14 88.06 22.72 85.63Q23.30 83.20 21.50 79.10L21.50 79.10Q17.79 71.04 20.61 66.43ZM94.59 60.80L94.59 60.80Q97.54 60.16 102.53 60.29L102.53 60.29Q105.98 60.29 106.94 60.74Q107.90 61.18 108.03 62.72L108.03 62.72Q108.16 64.51 106.50 67.07Q104.83 69.63 101.25 76.22Q97.66 82.82 94.78 86.40Q91.90 89.98 91.39 94.85L91.39 94.85Q90.88 99.84 91.78 99.84L91.78 99.84Q91.90 99.84 92.67 99.71L92.67 99.71Q94.59 98.94 101.70 98.94Q108.80 98.94 110.91 99.58Q113.02 100.22 113.02 103.04L113.02 103.04Q113.02 104.70 111.81 105.86Q110.59 107.01 106.50 109.82L106.50 109.82Q95.36 116.86 93.18 116.86L93.18 116.86Q92.16 116.86 93.18 114.56L93.18 114.56Q93.95 113.41 94.59 113.15L94.59 113.15Q95.62 112.38 100.48 108.67L100.48 108.67Q104.06 105.73 104.51 104.96Q104.96 104.19 103.94 103.42L103.94 103.42Q102.14 102.14 97.02 102.59Q91.90 103.04 91.58 103.30Q91.26 103.55 90.75 111.49L90.75 111.49Q89.86 125.31 86.27 125.31L86.27 125.31Q82.69 125.31 73.98 117.63L73.98 117.63Q69.25 113.28 67.58 113.28L67.58 113.28Q65.66 113.28 64.13 112.06Q62.59 110.85 62.59 109.44L62.59 109.44Q62.59 107.90 65.98 107.39Q69.38 106.88 77.06 104.19L77.06 104.19L84.86 101.50L84.86 97.15L84.86 92.67L82.30 93.95Q79.74 95.23 75.84 95.30Q71.94 95.36 70.91 94.08L70.91 94.08Q69.76 92.80 68.48 74.75L68.48 74.75Q67.71 66.56 68.86 65.15L68.86 65.15Q70.78 62.85 71.55 66.43L71.55 66.43Q71.94 67.97 72.06 71.04L72.06 71.04Q72.96 77.57 73.47 77.57Q73.98 77.57 76.03 74.11L76.03 74.11Q77.44 71.55 83.90 67.07Q90.37 62.59 94.59 60.80ZM101.50 64.38L101.50 64.38Q101.63 63.74 100.48 63.62L100.48 63.62Q96.26 63.23 92.67 65.28L92.67 65.28Q85.38 69.38 82.56 71.42Q79.74 73.47 78.59 75.52L78.59 75.52Q76.93 78.59 77.63 79.17Q78.34 79.74 83.20 77.95Q88.06 76.16 89.47 76.54L89.47 76.54Q90.75 77.06 90.30 78.46Q89.86 79.87 87.94 80.51L87.94 80.51Q85.38 81.41 82.18 83.20Q78.98 84.99 77.82 84.48L77.82 84.48Q77.06 84.35 76.80 84.93Q76.54 85.50 76.54 86.91L76.54 86.91Q76.54 88.70 76.93 89.15Q77.31 89.60 79.62 89.47L79.62 89.47Q84.22 88.96 87.81 85.76Q91.39 82.56 95.74 74.75L95.74 74.75Q101.12 65.15 101.50 64.38ZM84.35 116.86L85.12 109.82Q85.50 106.37 85.31 105.54Q85.12 104.70 84.10 104.70L84.10 104.70Q82.18 104.70 77.25 107.46Q72.32 110.21 72.32 111.36L72.32 111.36Q72.32 112.38 77.31 116.03Q82.30 119.68 83.33 119.42L83.33 119.42Q84.22 119.17 84.35 116.86L84.35 116.86ZM80.38 50.30L80.38 50.30Q84.35 47.36 86.78 50.18L86.78 50.18Q88.06 51.84 85.89 54.98Q83.71 58.11 78.98 60.67L78.98 60.67Q72.32 64.38 72.32 62.72L72.32 62.72Q72.32 61.44 75.39 59.14L75.39 59.14Q77.82 57.34 78.46 56.26Q79.10 55.17 78.59 54.14L78.59 54.14Q78.08 51.71 80.38 50.30ZM34.05 42.11L34.05 42.11L31.10 39.55L34.18 39.55Q36.99 39.42 40.70 42.62L40.70 42.62Q42.88 44.80 43.39 45.95Q43.90 47.10 43.52 49.02L43.52 49.02Q42.11 54.91 36.74 55.17L36.74 55.17Q33.54 55.17 33.54 54.72Q33.54 54.27 36.10 51.07L36.10 51.07Q38.02 48.38 37.76 46.59Q37.50 44.80 34.05 42.11ZM81.54 32L81.54 32Q87.04 29.82 88.51 29.50Q89.98 29.18 91.39 30.08L91.39 30.08Q92.54 30.72 91.90 32.77Q91.26 34.82 89.60 34.94L89.60 34.94Q85.76 35.20 80.64 36.86L80.64 36.86Q78.08 37.89 77.50 38.53Q76.93 39.17 77.06 41.09L77.06 41.09Q77.44 44.03 73.22 51.33Q68.99 58.62 61.95 76.80L61.95 76.80Q46.34 116.99 44.54 119.55L44.54 119.55Q43.90 120.96 39.04 132.22Q34.18 143.49 32.70 144.70Q31.23 145.92 30.46 145.02Q29.70 144.13 30.72 142.40Q31.74 140.67 37.12 127.62Q42.50 114.56 43.26 112.26Q44.03 109.95 45.18 107.01L45.18 107.01Q46.72 103.17 52.74 87.04L52.74 87.04Q61.31 63.10 70.14 45.70L70.14 45.70Q72.32 41.09 71.55 40.51Q70.78 39.94 65.02 41.98L65.02 41.98Q60.54 43.52 59.26 42.24L59.26 42.24Q56.32 39.94 63.10 38.14L63.10 38.14Q63.74 37.89 64.90 37.63L64.90 37.63Q70.14 36.35 70.53 35.58Q70.91 34.82 73.02 34.82Q75.14 34.82 81.54 32Z"/>
</g>
<g transform="translate(511.81958203125,153.94422140625)">
<path fill="#ce30d5" d="M73.47 75.26L73.47 75.26Q84.74 69.63 89.86 71.49Q94.98 73.34 97.28 83.71L97.28 83.71Q99.20 91.39 97.09 100.93Q94.98 110.46 90.11 114.94L90.11 114.94Q87.94 117.38 86.78 117.70Q85.63 118.02 81.28 117.50L81.28 117.50Q68.86 116.22 67.07 109.31L67.07 109.31Q66.43 106.11 66.94 102.91L66.94 102.91Q67.58 99.71 71.17 95.74Q74.75 91.78 77.44 91.14L77.44 91.14Q80.51 90.62 84.22 92.67Q87.94 94.72 89.86 98.18L89.86 98.18L91.52 101.50L92.29 96.13Q93.44 86.91 90.11 80.26L90.11 80.26Q88.96 77.44 88.13 76.93Q87.30 76.42 84.61 76.54L84.61 76.54Q81.28 76.67 75.33 79.42Q69.38 82.18 64.38 85.50L64.38 85.50L59.65 88.96L59.65 97.15Q59.39 105.47 57.34 110.08L57.34 110.08Q55.55 114.30 52.29 117.50Q49.02 120.70 47.62 120.19L47.62 120.19Q46.21 119.55 45.25 116.99Q44.29 114.43 44.29 111.23Q44.29 108.03 46.59 100.67Q48.90 93.31 50.43 91.78L50.43 91.78Q52.86 88.96 50.43 87.04L50.43 87.04Q49.02 86.27 47.36 87.94Q45.70 89.60 44.29 93.31L44.29 93.31Q40.58 103.94 38.78 103.94L38.78 103.94Q37.38 103.94 38.27 100.48L38.27 100.48Q38.78 98.43 40.70 92.67L40.70 92.67Q43.65 83.84 46.21 82.43L46.21 82.43Q48.38 81.28 50.75 81.73Q53.12 82.18 54.78 83.84L54.78 83.84Q55.94 84.86 56.83 84.61Q57.73 84.35 60.54 82.43L60.54 82.43Q64.90 79.36 73.47 75.26ZM54.27 100.10L54.27 100.10Q54.78 95.36 53.89 95.62L53.89 95.62Q52.35 95.87 50.43 104.70L50.43 104.70Q49.02 110.46 49.79 110.98L49.79 110.98Q50.56 111.36 51.39 109.70Q52.22 108.03 53.12 105.28Q54.02 102.53 54.27 100.10ZM83.07 99.46L83.07 99.46Q81.15 97.54 78.78 97.41Q76.42 97.28 74.75 98.94L74.75 98.94Q70.27 104.19 72.13 108.22Q73.98 112.26 80.90 112.26L80.90 112.26Q87.30 112.26 89.86 105.60L89.86 105.60Q90.75 103.30 90.11 103.30L90.11 103.30Q89.98 103.30 89.22 103.55L89.22 103.55Q87.94 104.32 86.53 104.13Q85.12 103.94 85.12 102.78L85.12 102.78Q85.12 101.38 83.07 99.46ZM36.99 57.47L36.99 57.47Q37.50 55.55 38.08 54.98Q38.66 54.40 39.94 54.66L39.94 54.66Q41.22 54.78 41.47 55.49Q41.73 56.19 41.73 58.62L41.73 58.62Q41.73 63.10 38.91 82.56Q36.10 102.02 35.20 105.22L35.20 105.22Q34.82 106.62 36.16 106.62Q37.50 106.62 36.86 109.82L36.86 109.82Q35.71 113.66 35.01 114.94Q34.30 116.22 32.51 116.22L32.51 116.22Q30.59 116.22 30.21 115.01Q29.82 113.79 29.95 109.06L29.95 109.06Q30.34 99.71 33.92 80.26L33.92 80.26Q34.82 75.26 35.39 67.90Q35.97 60.54 36.99 57.47Z"/>
</g>
<g transform="translate(639.7744775390624,153.94422140625)">
<path fill="#ce30d5" d="M48.51 46.59L48.51 46.59Q50.56 43.78 51.84 43.26Q53.12 42.75 54.40 44.54L54.40 44.54Q55.17 45.44 54.98 51.78Q54.78 58.11 53.89 62.34L53.89 62.34Q53.50 63.74 53.89 64.13Q54.27 64.51 55.81 64.51L55.81 64.51Q58.24 64.51 60.54 66.05Q62.85 67.58 62.85 69.12L62.85 69.12Q62.85 70.40 60.74 72.45Q58.62 74.50 56.58 75.14L56.58 75.14Q54.78 75.65 53.12 79.10L53.12 79.10Q51.97 81.79 51.97 82.37Q51.97 82.94 53.50 84.35L53.50 84.35Q55.55 86.02 56.70 86.02L56.70 86.02Q58.11 86.02 59.65 87.94Q61.18 89.86 60.80 91.26L60.80 91.26Q60.42 93.18 58.18 93.18Q55.94 93.18 54.02 91.26L54.02 91.26Q51.97 89.09 51.33 90.50L51.33 90.50Q50.82 91.78 50.18 102.40L50.18 102.40Q49.66 113.28 50.94 113.54L50.94 113.54Q51.71 113.54 53.63 110.46L53.63 110.46Q55.81 107.01 56.26 106.50Q56.70 105.98 59.20 102.72Q61.70 99.46 68.29 92.48Q74.88 85.50 76.10 82.88Q77.31 80.26 78.34 80.26L78.34 80.26Q79.23 80.26 85.95 72.64Q92.67 65.02 92.29 64.64L92.29 64.64Q91.52 63.87 88.19 65.73Q84.86 67.58 83.07 69.63L83.07 69.63Q80.38 72.96 79.55 72.96Q78.72 72.96 77.25 74.30Q75.78 75.65 72.06 76.80L72.06 76.80Q69.38 77.57 68.61 77.50Q67.84 77.44 66.94 76.03L66.94 76.03Q65.54 74.37 65.79 71.94L65.79 71.94Q65.92 70.02 68.42 68.03Q70.91 66.05 72.32 66.82L72.32 66.82Q73.47 67.58 71.17 69.18Q68.86 70.78 69.38 71.42L69.38 71.42Q70.02 71.94 75.33 69.57Q80.64 67.20 80.64 66.50Q80.64 65.79 84.86 64.06Q89.09 62.34 91.90 61.95L91.90 61.95Q94.98 61.44 99.52 59.20Q104.06 56.96 105.60 57.34L105.60 57.34Q108.80 58.75 104.58 62.72L104.58 62.72Q103.30 64.13 101.50 65.28L101.50 65.28Q97.54 67.71 90.05 75.52Q82.56 83.33 81.41 85.89L81.41 85.89Q80.38 88.19 80.38 104.83L80.38 104.83Q80.38 117.38 80.58 119.55Q80.77 121.73 82.30 121.73L82.30 121.73Q84.22 121.98 84.22 120.64Q84.22 119.30 90.30 113.73Q96.38 108.16 96.38 107.26Q96.38 106.37 92.67 106.62L92.67 106.62Q89.98 106.75 88.06 105.79Q86.14 104.83 86.14 103.55L86.14 103.55Q86.14 102.53 91.46 97.47Q96.77 92.42 96.38 92.03Q96 91.65 92.67 92.54L92.67 92.54Q89.47 93.57 86.46 93.44Q83.46 93.31 82.50 92.16Q81.54 91.01 82.11 90.37Q82.69 89.73 84.48 89.73L84.48 89.73Q86.14 89.73 87.81 88.83Q89.47 87.94 93.18 87.17Q96.90 86.40 97.28 84.74L97.28 84.74Q97.54 83.58 96.96 83.39Q96.38 83.20 94.08 83.58L94.08 83.58Q90.37 84.10 88.38 85.44Q86.40 86.78 84.48 86.78Q82.56 86.78 82.56 85.50L82.56 85.50Q82.56 84.35 86.66 82.24Q90.75 80.13 94.85 79.10L94.85 79.10Q96.77 78.72 97.54 77.50Q98.30 76.29 98.69 72.96L98.69 72.96Q99.07 70.02 99.52 69.06Q99.97 68.10 100.99 68.35L100.99 68.35Q102.53 68.74 103.42 70.78L103.42 70.78Q104.58 73.09 105.73 73.73Q106.88 74.37 109.82 74.37L109.82 74.37Q113.02 74.11 113.66 75.52L113.66 75.52Q114.18 76.67 113.22 78.46Q112.26 80.26 111.10 80.26Q109.95 80.26 106.50 81.41L106.50 81.41Q104.45 82.05 103.87 82.62Q103.30 83.20 103.42 84.35L103.42 84.35Q103.81 86.27 104.77 87.30Q105.73 88.32 103.94 91.14Q102.14 93.95 102.14 96L102.14 96Q102.14 97.15 102.59 97.66Q103.04 98.18 104.83 98.18L104.83 98.18Q108.80 98.18 108.99 100.54Q109.18 102.91 105.34 106.37L105.34 106.37Q102.66 108.67 101.89 110.91Q101.12 113.15 99.46 113.66L99.46 113.66Q98.30 114.05 96.26 115.71Q94.21 117.38 92.67 118.98Q91.14 120.58 91.52 120.83L91.52 120.83Q92.16 121.34 97.54 121.28Q102.91 121.22 106.11 120.58L106.11 120.58Q109.95 119.81 109.70 118.59Q109.44 117.38 109.95 115.97L109.95 115.97Q110.72 113.92 115.71 118.53L115.71 118.53Q119.81 122.37 113.02 124.29L113.02 124.29Q110.72 125.06 107.14 125.57L107.14 125.57Q99.07 127.10 92.80 126.66Q86.53 126.21 85.25 124.03L85.25 124.03Q84.22 122.75 84.22 128.90L84.22 128.90Q84.22 137.34 81.41 137.34L81.41 137.34Q79.49 137.09 77.18 132.86L77.18 132.86Q76.16 130.56 75.71 126.53Q75.26 122.50 75.01 110.85L75.01 110.85L74.37 92.16L70.40 96.38Q60.54 106.24 55.42 113.92L55.42 113.92Q54.02 115.97 52.48 117.63Q50.94 119.30 51.20 121.60L51.20 121.60Q51.33 123.52 50.50 125.25Q49.66 126.98 48.51 126.98L48.51 126.98Q46.72 126.98 45.95 122.62Q45.18 118.27 45.44 107.78L45.44 107.78Q45.44 103.94 45.44 100.67Q45.44 97.41 45.31 95.49Q45.18 93.57 45.06 93.70L45.06 93.70Q44.42 93.95 40.32 99.14Q36.22 104.32 31.36 108.67L31.36 108.67Q28.29 111.62 27.14 112.19Q25.98 112.77 25.09 112.13L25.09 112.13Q24.06 111.36 24.58 110.40Q25.09 109.44 27.78 106.75L27.78 106.75Q30.85 103.68 38.59 92.10Q46.34 80.51 45.82 79.87L45.82 79.87Q45.44 79.49 40.64 81.15Q35.84 82.82 33.92 83.97L33.92 83.97Q32.38 84.74 29.38 85.50Q26.37 86.27 25.92 87.04Q25.47 87.81 23.17 87.81Q20.86 87.81 17.92 89.34L17.92 89.34Q16 90.24 15.23 90.24Q14.46 90.24 12.93 89.34L12.93 89.34Q10.62 87.81 10.75 86.85Q10.88 85.89 13.18 83.20L13.18 83.20Q17.15 78.34 17.02 81.41L17.02 81.41Q17.02 81.79 16.77 82.56L16.77 82.56L16.26 84.86L20.61 83.58Q25.09 82.18 27.01 81.22Q28.93 80.26 36.61 77.57L36.61 77.57Q45.06 74.50 46.46 73.34Q47.87 72.19 48.26 67.97L48.26 67.97Q49.28 58.37 49.15 55.87Q49.02 53.38 47.74 53.38L47.74 53.38Q43.90 53.38 48.51 46.59ZM54.34 70.02Q55.17 70.02 55.74 69.06Q56.32 68.10 54.91 68.10Q53.50 68.10 53.50 69.06Q53.50 70.02 54.34 70.02ZM92.54 31.10L92.54 31.10Q96.51 29.95 99.39 31.74Q102.27 33.54 101.76 36.86L101.76 36.86Q101.12 38.91 99.97 40.58Q98.82 42.24 94.59 46.59L94.59 46.59Q91.39 50.05 92.29 50.05L92.29 50.05Q94.08 49.28 96.83 49.22Q99.58 49.15 99.58 50.88Q99.58 52.61 97.79 53.63Q96 54.66 91.78 57.60L91.78 57.60Q83.84 63.10 82.30 60.67L82.30 60.67Q81.54 59.52 78.46 60.80L78.46 60.80Q73.22 63.36 73.09 61.06L73.09 61.06Q72.83 58.75 78.08 55.30L78.08 55.30Q82.94 51.97 89.60 45.06L89.60 45.06Q100.22 34.69 94.21 34.69L94.21 34.69Q92.29 34.69 88.45 37.50Q84.61 40.32 83.33 42.75L83.33 42.75Q81.54 45.82 79.17 45.38Q76.80 44.93 74.62 40.70L74.62 40.70Q73.22 38.53 73.22 37.76Q73.22 36.99 73.98 36.48L73.98 36.48Q75.39 35.71 77.57 37.63L77.57 37.63L79.62 39.55L84.61 35.71Q89.86 31.87 92.54 31.10Z"/>
</g>
<g transform="translate(767.7293730468749,153.94422140625)">
<path fill="#ce30d5" d="M27.58 56.32Q29.06 56.32 35.46 52.99Q41.86 49.66 44.03 49.66L44.03 49.66Q45.57 49.66 46.02 50.62Q46.46 51.58 45.89 52.80Q45.31 54.02 43.78 55.17L43.78 55.17Q42.11 56.32 41.73 58.56Q41.34 60.80 41.09 71.81L41.09 71.81Q40.83 86.78 39.17 89.34L39.17 89.34Q37.89 91.78 36.86 91.78Q35.84 91.78 32.64 89.60L32.64 89.60L29.44 87.30L29.44 91.78Q29.44 95.87 28.80 105.73L28.80 105.73L28.03 115.46L30.08 113.79Q32.51 111.62 32.51 114.56L32.51 114.56Q32.26 116.61 31.23 121.22L31.23 121.22Q30.08 125.70 29.25 128.19Q28.42 130.69 27.58 132.03Q26.75 133.38 25.79 133.31Q24.83 133.25 23.55 132.22L23.55 132.22Q22.14 131.33 22.02 128.83Q21.89 126.34 22.53 115.33L22.53 115.33Q23.81 99.71 24.32 88.45Q24.83 77.18 25.34 76.42L25.34 76.42Q27.01 73.73 31.36 80.64L31.36 80.64Q33.92 84.61 34.43 84.61L34.43 84.61Q34.69 84.61 35.07 83.84L35.07 83.84Q35.58 82.18 35.46 71.30Q35.33 60.42 34.69 59.78L34.69 59.78Q34.18 59.14 30.08 60.54L30.08 60.54Q25.60 62.34 20.74 63.42Q15.87 64.51 14.85 64.13L14.85 64.13Q13.44 63.62 13.44 61.89Q13.44 60.16 18.82 59.01Q24.19 57.86 25.15 57.09Q26.11 56.32 27.58 56.32ZM69.38 42.37L69.38 42.37Q72.83 40.58 78.02 42.11Q83.20 43.65 83.84 46.46L83.84 46.46Q84.48 51.58 80 65.02Q75.52 78.46 71.68 81.92L71.68 81.92Q69.76 83.33 67.71 83.84L67.71 83.84Q64.77 84.35 62.08 86.98Q59.39 89.60 59.01 92.29L59.01 92.29Q58.75 95.10 59.39 95.10L59.39 95.10Q59.52 95.10 60.03 95.10L60.03 95.10Q61.31 94.59 65.28 94.59L65.28 94.59Q67.97 94.59 69.63 93.76Q71.30 92.93 75.14 89.22L75.14 89.22Q80.90 83.84 87.30 75.20Q93.70 66.56 94.40 66.56Q95.10 66.56 96.51 67.46L96.51 67.46Q97.54 68.48 96.58 70.91Q95.62 73.34 92.35 77.44Q89.09 81.54 84.10 86.27L84.10 86.27Q75.39 95.36 75.65 95.87L75.65 95.87Q76.93 96.77 78.53 96.19Q80.13 95.62 80.77 94.08L80.77 94.08Q81.79 91.90 82.82 91.90L82.82 91.90Q84.10 91.90 82.05 96.38L82.05 96.38Q81.66 97.41 82.82 97.98Q83.97 98.56 87.55 99.71L87.55 99.71Q93.57 101.38 102.40 105.09Q111.23 108.80 112.64 110.08L112.64 110.08Q115.97 113.41 113.41 114.30L113.41 114.30Q111.23 115.07 107.52 113.41L107.52 113.41Q84.74 103.04 80 103.04L80 103.04Q78.72 103.04 73.98 112.90Q69.25 122.75 68.16 123.84Q67.07 124.93 65.41 127.49L65.41 127.49Q63.87 130.18 61.50 131.58Q59.14 132.99 57.47 132.35L57.47 132.35Q54.78 131.46 54.02 125.89Q53.25 120.32 53.38 105.09L53.38 105.09Q53.63 85.76 54.02 82.94Q54.40 80.13 54.53 67.20L54.53 67.20Q54.53 58.50 54.85 56.51Q55.17 54.53 56.19 54.53L56.19 54.53Q60.16 54.53 60.16 59.78L60.16 59.78Q60.16 61.82 60.61 62.34Q61.06 62.85 63.87 62.85L63.87 62.85Q67.46 62.85 67.84 64.51L67.84 64.51Q68.35 66.94 67.26 68.10Q66.18 69.25 63.62 68.48L63.62 68.48Q60.80 67.58 60.16 68.10L60.16 68.10Q59.52 68.22 59.33 71.55Q59.14 74.88 59.26 78.21Q59.39 81.54 60.03 81.54L60.03 81.54Q61.06 81.54 65.22 78.02Q69.38 74.50 71.04 72.32L71.04 72.32Q72.58 69.89 75.07 62.78Q77.57 55.68 78.34 51.58L78.34 51.58Q78.72 49.02 78.40 48.32Q78.08 47.62 75.39 46.85L75.39 46.85Q72.83 46.21 71.49 46.34Q70.14 46.46 67.46 47.62L67.46 47.62Q63.49 49.66 61.06 50.05L61.06 50.05Q58.75 50.30 58.88 49.28L58.88 49.28Q58.88 47.49 63.49 45.31L63.49 45.31Q67.97 43.26 69.38 42.37ZM65.66 100.74Q63.87 101.25 61.76 99.78Q59.65 98.30 59.01 98.30L59.01 98.30Q58.37 98.30 58.30 104.64Q58.24 110.98 58.69 117.31Q59.14 123.65 59.65 124.42L59.65 124.42Q60.67 125.06 64.64 119.81L64.64 119.81Q66.18 117.38 68.35 114.18L68.35 114.18Q75.90 102.78 75.90 102.02Q75.90 101.25 71.68 100.67Q67.46 100.10 65.66 100.74L65.66 100.74Z"/>
</g>
<g transform="translate(895.6842685546874,153.94422140625)">
<path fill="#ce30d5" d="M79.23 89.22L79.23 89.22Q79.87 88.06 84.61 88.45L84.61 88.45Q87.55 89.09 89.15 89.92Q90.75 90.75 93.31 93.44L93.31 93.44Q96.77 97.15 97.15 99.46Q97.54 101.76 94.85 105.09L94.85 105.09Q93.06 107.26 90.88 107.78Q88.70 108.29 87.30 106.88L87.30 106.88Q86.40 105.86 86.78 104.51Q87.17 103.17 88.58 103.17L88.58 103.17Q90.37 103.17 90.43 100.93Q90.50 98.69 88.70 96.64L88.70 96.64Q86.66 93.95 85.63 93.82L85.63 93.82Q84.10 93.82 81.41 91.78Q78.72 89.73 79.23 89.22ZM69.38 57.09L69.38 57.09Q75.39 55.68 75.58 55.62Q75.78 55.55 78.21 56.45L78.21 56.45Q83.71 58.62 76.42 67.07L76.42 67.07Q65.66 79.49 60.42 87.30L60.42 87.30L57.22 92.16L59.14 95.23Q61.57 98.69 62.72 99.65Q63.87 100.61 65.02 98.69L65.02 98.69Q71.42 89.98 70.78 94.85L70.78 94.85Q70.53 96.26 69.50 99.71L69.50 99.71Q67.20 106.11 65.73 108.16Q64.26 110.21 62.59 109.18Q60.93 108.16 57.98 103.17L57.98 103.17Q54.27 97.15 54.02 96.19Q53.76 95.23 49.28 100.61L49.28 100.61Q47.23 103.04 41.98 109.57L41.98 109.57Q33.41 120.32 31.23 118.91L31.23 118.91Q30.85 118.66 30.72 117.89L30.72 117.89Q29.70 116.61 41.34 93.44L41.34 93.44L44.67 86.91L49.41 86.91L54.53 86.91L60.03 79.36L68.99 67.71Q72.19 63.62 72.19 63.10L72.19 63.10Q71.94 62.59 69.57 62.72Q67.20 62.85 63.23 63.62Q59.26 64.38 55.42 65.54L55.42 65.54Q44.16 68.86 44.16 64.51L44.16 64.51Q44.16 63.10 69.38 57.09ZM49.28 92.03L49.28 92.03Q49.28 89.47 46.85 90.50L46.85 90.50Q45.31 91.26 44.16 92.93L44.16 92.93Q42.62 95.49 41.34 98.94Q40.06 102.40 40.58 102.66L40.58 102.66Q40.83 103.04 43.07 100.54Q45.31 98.05 47.30 95.23Q49.28 92.42 49.28 92.03Z"/>
</g>
<g transform="translate(1023.6391640624998,153.94422140625)">
<path fill="#ce30d5" d="M63.36 81.15Q65.28 77.82 68.80 75.90Q72.32 73.98 76.80 73.98L76.80 73.98Q79.87 73.98 80.83 74.50Q81.79 75.01 82.75 77.12Q83.71 79.23 83.71 80.38Q83.71 81.54 82.30 84.74L82.30 84.74Q81.02 87.68 80.90 88.70Q80.77 89.73 81.79 90.75L81.79 90.75Q83.07 92.29 82.43 93.70Q81.79 95.10 79.62 95.10L79.62 95.10Q77.57 95.10 74.75 96.26Q71.94 97.41 70.40 96.26L70.40 96.26Q68.86 94.98 69.57 93.12Q70.27 91.26 73.73 87.42L73.73 87.42Q80.38 80.38 77.95 78.46L77.95 78.46Q76.80 77.31 72.96 79.23L72.96 79.23Q65.66 82.30 64.51 91.52L64.51 91.52Q64.13 95.49 62.98 98.30Q61.82 101.12 60.80 101.12L60.80 101.12Q57.98 101.12 57.98 94.34L57.98 94.34Q57.98 89.98 57.22 87.74Q56.45 85.50 55.68 82.05L55.68 82.05Q55.30 79.74 55.49 79.17Q55.68 78.59 56.96 78.59L56.96 78.59Q58.88 78.59 60.29 81.54L60.29 81.54L61.44 84.35L63.36 81.15ZM44.54 50.30L44.54 50.30Q45.06 48.64 47.10 48.90Q49.15 49.15 49.41 51.07Q49.66 52.99 42.75 59.14L42.75 59.14L36.10 65.54L39.30 65.54Q48.13 65.54 41.47 75.39L41.47 75.39Q39.55 78.46 39.94 78.46L39.94 78.46L46.08 75.52Q51.46 72.83 52.74 73.98L52.74 73.98Q54.53 75.39 53.82 77.70Q53.12 80 49.54 86.14L49.54 86.14Q43.14 96.64 30.46 122.37L30.46 122.37Q26.24 131.20 23.94 134.14L23.94 134.14Q20.86 137.98 20.86 134.66L20.86 134.66Q21.12 132.61 23.04 128.38L23.04 128.38Q26.62 120.83 30.08 112.13Q33.54 103.42 33.15 102.78L33.15 102.78Q32.77 102.27 30.08 101.12L30.08 101.12Q28.03 100.10 26.56 97.79Q25.09 95.49 26.24 94.98L26.24 94.98Q27.01 94.34 30.46 95.87L30.46 95.87Q34.69 97.66 36.22 96.58Q37.76 95.49 41.22 88.96L41.22 88.96L45.70 80.77L37.63 86.14Q28.93 91.90 27.14 92.67Q25.34 93.44 23.94 92.03L23.94 92.03Q22.66 90.75 23.68 88.64Q24.70 86.53 29.70 81.28L29.70 81.28Q38.91 71.68 36.61 71.42L36.61 71.42Q35.46 71.42 31.49 73.73L31.49 73.73Q26.24 76.67 24.96 76.67L24.96 76.67Q23.17 76.67 22.91 75.14Q22.66 73.60 23.81 71.68L23.81 71.68Q25.73 68.61 31.49 62.72Q37.25 56.83 40.06 54.91L40.06 54.91Q43.90 52.22 44.54 50.30ZM49.92 34.82L49.92 34.82Q55.04 33.41 54.66 35.33L54.66 35.33Q54.53 36.86 50.30 40.19L50.30 40.19Q45.82 43.65 37.76 50.82Q29.70 57.98 28.03 57.98L28.03 57.98Q23.55 57.98 28.54 52.22L28.54 52.22Q30.46 50.30 33.92 46.85L33.92 46.85Q41.47 39.55 44.16 37.44Q46.85 35.33 49.92 34.82ZM75.39 32.90L75.39 32.90Q76.93 31.87 78.98 32Q81.02 32.13 81.41 33.09Q81.79 34.05 79.74 40.58Q77.70 47.10 75.65 51.84L75.65 51.84Q73.47 56.32 74.18 56.90Q74.88 57.47 79.17 55.81Q83.46 54.14 89.73 53.63L89.73 53.63Q93.70 53.38 95.42 53.57Q97.15 53.76 99.71 55.30L99.71 55.30Q102.91 57.09 103.68 58.50Q104.45 59.90 105.98 66.82L105.98 66.82Q107.39 73.22 107.07 88.38Q106.75 103.55 105.22 109.31L105.22 109.31Q101.63 122.62 98.56 124.99Q95.49 127.36 88.70 122.24L88.70 122.24Q85.25 119.68 80.26 113.15Q75.26 106.62 76.03 105.86L76.03 105.86Q76.54 105.34 82.94 111.49L82.94 111.49Q92.03 120.45 94.08 120.45L94.08 120.45Q95.23 120.70 97.54 115.52Q99.84 110.34 100.86 105.34L100.86 105.34Q102.14 98.82 102.27 86.59Q102.40 74.37 101.25 68.74L101.25 68.74Q99.84 62.46 97.66 60.22Q95.49 57.98 90.50 57.98L90.50 57.98Q85.89 57.98 82.69 59.39L82.69 59.39Q70.27 64.90 67.58 64.13L67.58 64.13Q65.41 63.62 65.41 62.27Q65.41 60.93 70.40 49.79L70.40 49.79Q72.58 45.18 73.60 42.75Q74.62 40.32 75.14 38.91Q75.65 37.50 75.52 37.12Q75.39 36.74 74.62 36.74L74.62 36.74Q73.09 36.74 73.86 34.56L73.86 34.56Q74.50 33.41 75.39 32.90Z"/>
</g>
<g transform="translate(0,307.8884428125)">
<path fill="#ce30d5" d="M21.38 84.35L21.38 84.35Q23.17 82.56 24.38 82.56Q25.60 82.56 28.16 83.97L28.16 83.97Q30.85 85.63 30.85 88.58L30.85 88.58Q30.85 91.39 29.12 92.99Q27.39 94.59 24.58 94.08L24.58 94.08Q21.12 93.70 19.90 90.37Q18.69 87.04 21.38 84.35ZM61.57 83.33L61.57 83.33Q63.74 81.28 67.26 81.47Q70.78 81.66 72.32 83.84L72.32 83.84Q75.26 88.32 71.81 91.65L71.81 91.65Q70.27 93.06 67.90 93.76Q65.54 94.46 64.64 93.70L64.64 93.70Q63.87 93.18 62.40 90.88Q60.93 88.58 60.42 86.91L60.42 86.91Q59.90 85.38 61.57 83.33ZM107.26 81.28L107.26 81.28Q109.44 81.02 109.95 80.64L109.95 80.64Q110.98 80.38 112.26 83.65Q113.54 86.91 113.41 88.70L113.41 88.70Q112.90 93.44 106.50 91.90L106.50 91.90Q102.53 90.75 102.02 88.96L102.02 88.96Q101.38 87.30 103.30 84.48Q105.22 81.66 107.26 81.28Z"/>
</g>
<g transform="translate(127.9548955078125,307.8884428125)">
<path fill="#ce30d5" d="M21.38 84.35L21.38 84.35Q23.17 82.56 24.38 82.56Q25.60 82.56 28.16 83.97L28.16 83.97Q30.85 85.63 30.85 88.58L30.85 88.58Q30.85 91.39 29.12 92.99Q27.39 94.59 24.58 94.08L24.58 94.08Q21.12 93.70 19.90 90.37Q18.69 87.04 21.38 84.35ZM61.57 83.33L61.57 83.33Q63.74 81.28 67.26 81.47Q70.78 81.66 72.32 83.84L72.32 83.84Q75.26 88.32 71.81 91.65L71.81 91.65Q70.27 93.06 67.90 93.76Q65.54 94.46 64.64 93.70L64.64 93.70Q63.87 93.18 62.40 90.88Q60.93 88.58 60.42 86.91L60.42 86.91Q59.90 85.38 61.57 83.33ZM107.26 81.28L107.26 81.28Q109.44 81.02 109.95 80.64L109.95 80.64Q110.98 80.38 112.26 83.65Q113.54 86.91 113.41 88.70L113.41 88.70Q112.90 93.44 106.50 91.90L106.50 91.90Q102.53 90.75 102.02 88.96L102.02 88.96Q101.38 87.30 103.30 84.48Q105.22 81.66 107.26 81.28Z"/>
</g>
</g>
</svg>