<?xml version="1.0" encoding="utf-8"?>
<!DOCTYPE svg PUBLIC "-//W3C//DTD SVG 1.1//EN" "http://www.w3.org/Graphics/SVG/1.1/DTD/svg11.dtd">
<svg version="1.1" xmlns="http://www.w3.org/2000/svg" width="1292.344444628906" height="482.825058046875" viewBox="0 0 1292.344444628906 482.825058046875">
<g>
<g>
<rect fill="#FFFFFF" width="0" height="0" />
</g>
<g transform="translate(0,0)">
<path fill="#ce30d5" d="M40.19 51.71L40.19 51.71Q43.39 48 45.82 51.71L45.82 51.71Q46.59 53.25 43.78 56.96L43.78 56.96Q41.98 59.01 40 62.66Q38.02 66.30 38.02 66.94L38.02 66.94Q38.02 67.20 39.30 66.94L39.30 66.94Q41.86 66.82 42.37 69.63Q42.88 72.45 41.86 80.90L41.86 80.90Q40.70 91.26 40.32 95.74L40.32 95.74L39.55 100.22L46.59 99.46Q52.22 98.94 53.57 99.78Q54.91 100.61 54.14 103.42L54.14 103.42Q53.76 105.09 52.80 105.41Q51.84 105.73 47.23 105.73L47.23 105.73Q41.34 105.73 40 107.33Q38.66 108.93 38.66 116.10L38.66 116.10Q38.40 121.98 37.38 123.84Q36.35 125.70 34.18 124.42L34.18 124.42Q30.46 122.50 32.26 112.38L32.26 112.38Q33.02 107.39 32.26 107.01Q31.49 106.62 22.78 108.03L22.78 108.03Q11.14 109.82 8.06 111.10L8.06 111.10Q6.53 111.87 5.82 111.55Q5.12 111.23 4.35 109.70L4.35 109.70Q3.58 108.42 3.58 107.39Q3.58 106.37 4.74 104.45L4.74 104.45Q6.53 101.12 8 99.46Q9.47 97.79 14.34 90.62L14.34 90.62L22.14 79.74Q24.83 75.78 24.83 74.88Q24.83 73.98 25.73 73.98Q26.62 73.98 27.78 70.78Q28.93 67.58 29.50 67.58Q30.08 67.58 34.11 60.80Q38.14 54.02 40.19 51.71ZM36.35 74.24L36.35 74.24Q36.61 72.58 36.61 71.23Q36.61 69.89 36.61 69.18Q36.61 68.48 36.61 68.48L36.61 68.48Q36.22 68.48 32 75.65L32 75.65Q23.55 89.34 15.87 98.82L15.87 98.82Q12.67 102.66 12.67 103.30L12.67 103.30Q13.06 103.55 15.23 103.49Q17.41 103.42 20.35 102.98Q23.30 102.53 24.58 101.89L24.58 101.89Q26.88 101.12 30.02 101.12Q33.15 101.12 33.54 100.29Q33.92 99.46 34.50 92.61Q35.07 85.76 35.65 82.94Q36.22 80.13 36.35 74.24Z"/>
</g>
<g transform="translate(58.007234375,0)">
<path fill="#ce30d5" d="M22.72 56.77Q27.14 56.19 28.03 55.87Q28.93 55.55 29.38 55.49Q29.82 55.42 33.28 57.98L33.28 57.98Q36.35 60.03 38.21 64.45Q40.06 68.86 41.98 78.46L41.98 78.46Q43.52 85.76 43.01 94.59Q42.50 103.42 40.58 108.80L40.58 108.80Q38.27 114.82 32.38 117.50Q26.50 120.19 20.10 118.53L20.10 118.53Q16.90 117.50 14.91 115.46Q12.93 113.41 9.98 108.16L9.98 108.16Q8.32 105.09 7.81 102.53Q7.30 99.97 7.17 93.18L7.17 93.18Q6.78 82.43 8.32 75.97Q9.86 69.50 9.28 68.61Q8.70 67.71 10.18 67.26Q11.65 66.82 11.65 65.54Q11.65 64.26 14.98 60.80Q18.30 57.34 22.72 56.77ZM29.82 63.49L29.82 63.49Q27.90 62.21 24.06 62.08L24.06 62.08Q21.38 62.08 20.61 62.66Q19.84 63.23 18.43 66.43L18.43 66.43Q12.93 78.85 13.82 93.70L13.82 93.70Q14.08 100.99 15.17 103.94Q16.26 106.88 19.71 110.08L19.71 110.08Q24.06 114.30 29.18 111.87L29.18 111.87Q33.54 109.95 34.94 106.18Q36.35 102.40 36.35 92.80L36.35 92.80Q36.22 81.66 34.56 73.66Q32.90 65.66 29.82 63.49Z"/>
</g>
<g transform="translate(108.23473437500002,0)">
<path fill="#ce30d5" d="M40.19 51.71L40.19 51.71Q43.39 48 45.82 51.71L45.82 51.71Q46.59 53.25 43.78 56.96L43.78 56.96Q41.98 59.01 40 62.66Q38.02 66.30 38.02 66.94L38.02 66.94Q38.02 67.20 39.30 66.94L39.30 66.94Q41.86 66.82 42.37 69.63Q42.88 72.45 41.86 80.90L41.86 80.90Q40.70 91.26 40.32 95.74L40.32 95.74L39.55 100.22L46.59 99.46Q52.22 98.94 53.57 99.78Q54.91 100.61 54.14 103.42L54.14 103.42Q53.76 105.09 52.80 105.41Q51.84 105.73 47.23 105.73L47.23 105.73Q41.34 105.73 40 107.33Q38.66 108.93 38.66 116.10L38.66 116.10Q38.40 121.98 37.38 123.84Q36.35 125.70 34.18 124.42L34.18 124.42Q30.46 122.50 32.26 112.38L32.26 112.38Q33.02 107.39 32.26 107.01Q31.49 106.62 22.78 108.03L22.78 108.03Q11.14 109.82 8.06 111.10L8.06 111.10Q6.53 111.87 5.82 111.55Q5.12 111.23 4.35 109.70L4.35 109.70Q3.58 108.42 3.58 107.39Q3.58 106.37 4.74 104.45L4.74 104.45Q6.53 101.12 8 99.46Q9.47 97.79 14.34 90.62L14.34 90.62L22.14 79.74Q24.83 75.78 24.83 74.88Q24.83 73.98 25.73 73.98Q26.62 73.98 27.78 70.78Q28.93 67.58 29.50 67.58Q30.08 67.58 34.11 60.80Q38.14 54.02 40.19 51.71ZM36.35 74.24L36.35 74.24Q36.61 72.58 36.61 71.23Q36.61 69.89 36.61 69.18Q36.61 68.48 36.61 68.48L36.61 68.48Q36.22 68.48 32 75.65L32 75.65Q23.55 89.34 15.87 98.82L15.87 98.82Q12.67 102.66 12.67 103.30L12.67 103.30Q13.06 103.55 15.23 103.49Q17.41 103.42 20.35 102.98Q23.30 102.53 24.58 101.89L24.58 101.89Q26.88 101.12 30.02 101.12Q33.15 101.12 33.54 100.29Q33.92 99.46 34.50 92.61Q35.07 85.76 35.65 82.94Q36.22 80.13 36.35 74.24Z"/>
</g>
<g transform="translate(0,153.94422140625)">
<path fill="#ce30d5" d="M88.96 92.03L88.96 92.03Q96.13 91.39 97.66 91.90L97.66 91.90Q103.42 93.31 104.96 95.87Q106.50 98.43 104.70 103.42L104.70 103.42Q102.14 110.59 95.62 116.35Q89.09 122.11 81.41 124.29L81.41 124.29L76.16 125.82L76.16 131.07Q75.90 136.19 76.16 136.96L76.16 136.96Q76.29 138.11 74.56 140.74Q72.83 143.36 71.81 143.36L71.81 143.36Q70.78 143.36 70.53 142.08Q70.27 140.80 70.66 133.25L70.66 133.25L70.66 125.82L67.20 123.52Q64 121.22 60.99 117.06Q57.98 112.90 57.66 114.05Q57.34 115.20 59.01 117.12L59.01 117.12Q59.90 118.27 60.10 119.04Q60.29 119.81 59.39 121.73L59.39 121.73Q58.37 124.16 57.22 124.42Q56.06 124.67 54.02 123.26L54.02 123.26Q52.10 121.73 51.46 115.97L51.46 115.97L50.82 110.21L47.62 113.41Q44.42 116.61 44.42 118.91L44.42 118.91Q44.42 124.80 41.86 125.82L41.86 125.82Q40.19 126.72 38.98 125.18Q37.76 123.65 37.76 120.96L37.76 120.96Q37.76 117.63 36.61 112L36.61 112Q35.20 106.24 35.20 104.19Q35.20 102.14 36.86 102.14L36.86 102.14Q39.94 102.14 41.22 107.26L41.22 107.26Q41.73 109.57 42.43 110.14Q43.14 110.72 48.26 106.43Q53.38 102.14 54.34 102.14Q55.30 102.14 62.21 99.07L62.21 99.07Q74.37 93.44 88.96 92.03ZM98.94 97.92L98.94 97.92Q97.41 96.51 89.98 96.51Q82.56 96.51 79.49 97.79L79.49 97.79L76.80 98.94L76.29 109.82Q76.16 117.12 76.35 118.98Q76.54 120.83 77.44 120.83L77.44 120.83Q78.85 120.83 83.26 118.66Q87.68 116.48 89.86 114.69L89.86 114.69Q91.65 112.90 94.91 108.67Q98.18 104.45 99.33 101.89L99.33 101.89Q100.35 100.10 100.29 99.39Q100.22 98.69 98.94 97.92ZM70.66 121.22L70.66 111.23Q70.66 101.50 69.89 100.99L69.89 100.99Q69.12 100.48 61.44 103.68L61.44 103.68L58.37 105.09L60.93 109.82Q63.62 114.43 67.07 117.76L67.07 117.76L70.66 121.22ZM27.14 65.28Q27.90 61.57 29.38 59.84Q30.85 58.11 32.26 58.62L32.26 58.62Q34.56 59.14 32.13 69.76L32.13 69.76Q30.85 76.29 26.62 81.92Q22.40 87.55 19.84 86.66L19.84 86.66Q18.05 86.02 18.43 83.65Q18.82 81.28 21.25 78.46L21.25 78.46Q25.86 72.96 27.14 65.28L27.14 65.28ZM67.20 32.77L67.20 32.77Q69.89 31.23 71.87 31.55Q73.86 31.87 73.98 33.79L73.98 33.79Q74.37 35.20 73.22 36.54Q72.06 37.89 70.27 38.27L70.27 38.27Q65.54 39.04 64.83 40.06Q64.13 41.09 64.64 46.46L64.64 46.46Q65.28 53.50 65.92 53.63L65.92 53.63Q66.18 53.63 66.69 53.12L66.69 53.12Q67.58 51.71 70.40 49.79Q73.22 47.87 74.37 47.87L74.37 47.87Q76.16 47.87 77.44 49.66L77.44 49.66Q78.72 50.56 79.87 50.50Q81.02 50.43 85.76 49.66L85.76 49.66Q92.42 47.87 100.61 47.36L100.61 47.36L108.80 46.85L109.44 49.28Q110.85 55.04 98.18 61.18L98.18 61.18Q90.50 65.02 89.41 65.02Q88.32 65.02 84.86 66.30L84.86 66.30Q82.69 67.07 82.37 67.65Q82.05 68.22 82.82 69.50L82.82 69.50Q84.22 71.55 82.56 73.28Q80.90 75.01 74.75 78.46L74.75 78.46Q68.74 81.41 68.61 82.30L68.61 82.30Q68.61 82.56 69.50 83.07L69.50 83.07Q71.42 84.48 71.42 85.76L71.42 85.76Q71.42 87.42 67.78 91.58Q64.13 95.74 61.82 96.51L61.82 96.51Q58.88 97.92 57.73 99.07L57.73 99.07Q56.32 100.48 54.59 100.42Q52.86 100.35 52.86 98.94L52.86 98.94Q52.86 97.66 54.98 96.58Q57.09 95.49 60.29 91.90L60.29 91.90Q63.49 88.06 61.44 88.19L61.44 88.19Q60.29 88.19 56.45 90.37L56.45 90.37Q49.92 94.72 49.28 91.90L49.28 91.90Q49.02 91.65 49.02 91.26L49.02 91.26Q49.28 90.11 52.86 87.30Q56.45 84.48 57.98 84.48L57.98 84.48Q59.39 84.48 73.73 73.98L73.73 73.98L75.90 72.06L73.73 70.14Q72.06 68.99 71.68 67.78Q71.30 66.56 71.68 63.36L71.68 63.36L71.81 58.11L69.25 58.75Q65.92 59.52 65.02 61.44Q64.13 63.36 64 69.63L64 69.63Q63.74 76.03 62.98 77.89Q62.21 79.74 59.52 79.74L59.52 79.74Q57.98 79.74 57.79 79.23Q57.60 78.72 57.86 76.03L57.86 76.03Q58.50 72.19 57.60 72.32L57.60 72.32Q56.45 72.83 54.02 76.54L54.02 76.54Q49.02 85.50 45.06 83.71L45.06 83.71Q44.29 82.69 43.84 81.22Q43.39 79.74 43.39 74.88L43.39 74.88L43.39 67.46L40.19 67.97Q36.86 68.48 36.86 67.84L36.86 67.84Q37.12 65.02 49.41 60.67L49.41 60.67Q53.89 59.14 54.98 58.56Q56.06 57.98 57.47 57.86Q58.88 57.73 58.88 49.92L58.88 49.92Q58.88 44.16 58.56 43.07Q58.24 41.98 56.83 42.24L56.83 42.24Q54.78 42.62 52.80 41.47Q50.82 40.32 50.82 39.23Q50.82 38.14 54.34 37.38Q57.86 36.61 59.78 35.58Q61.70 34.56 62.98 34.50Q64.26 34.43 67.20 32.77ZM98.94 54.27L98.94 54.27L101.89 51.84L99.33 51.97Q94.34 51.97 82.05 55.04L82.05 55.04Q78.98 55.81 77.44 60.80L77.44 60.80Q76.54 64.77 78.85 64.51L78.85 64.51Q82.56 63.74 88.96 60.54Q95.36 57.34 98.94 54.27ZM50.82 73.73Q52.61 72.19 55.42 67.65Q58.24 63.10 57.34 63.10L57.34 63.10Q55.30 63.23 51.97 64.45Q48.64 65.66 48.77 66.05L48.77 66.05Q49.02 66.56 49.02 71.04L49.02 71.04Q49.02 74.75 49.54 74.75L49.54 74.75Q49.92 74.75 50.82 73.73L50.82 73.73Z"/>
</g>
<g transform="translate(127.9548955078125,153.94422140625)">
<path fill="#ce30d5" d="M75.01 50.30L75.01 50.30Q77.57 47.62 80.45 49.73Q83.33 51.84 83.33 56.06L83.33 56.06Q83.33 56.06 83.33 56.19L83.33 56.19Q83.33 58.75 84.61 58.94Q85.89 59.14 93.82 57.47L93.82 57.47Q94.21 57.47 94.34 57.34L94.34 57.34Q108.54 54.40 109.82 56.32L109.82 56.32Q110.72 57.73 108.99 60.48Q107.26 63.23 103.94 65.41L103.94 65.41Q98.82 68.99 83.84 74.88L83.84 74.88Q81.28 75.90 81.28 78.08Q81.28 80.26 76.10 85.82Q70.91 91.39 70.02 93.18L70.02 93.18Q69.25 94.59 70.02 94.59L70.02 94.59Q70.53 94.59 72.06 94.08L72.06 94.08Q75.14 93.44 78.02 93.06Q80.90 92.67 82.82 90.24L82.82 90.24Q84.35 88.32 86.53 88.13Q88.70 87.94 89.34 89.47L89.34 89.47Q89.86 90.88 91.26 90.37L91.26 90.37Q92.93 89.98 102.85 89.47Q112.77 88.96 115.33 89.47L115.33 89.47Q118.66 90.11 118.66 91.90L118.66 91.90Q118.66 94.08 116.48 94.66Q114.30 95.23 107.52 94.72L107.52 94.72Q98.69 94.08 94.21 94.85L94.21 94.85Q91.26 95.36 90.30 96Q89.34 96.64 88.70 98.94L88.70 98.94Q87.81 102.14 83.58 108.16L83.58 108.16Q82.18 110.08 81.54 111.30Q80.90 112.51 80.64 113.28Q80.38 114.05 80.51 114.30Q80.64 114.56 81.02 114.94L81.02 114.94Q91.52 118.53 92.93 119.81L92.93 119.81Q93.82 120.70 96.26 121.22L96.26 121.22Q98.82 121.98 112.38 131.20L112.38 131.20Q113.28 131.71 112.06 134.66Q110.85 137.60 109.82 137.60L109.82 137.60Q108.42 137.60 107.01 135.17L107.01 135.17Q103.55 130.30 89.73 124.29L89.73 124.29Q80.38 120.19 76.48 119.49Q72.58 118.78 68.61 120.06L68.61 120.06Q65.66 120.96 61.31 121.66Q56.96 122.37 53.95 122.37Q50.94 122.37 50.69 121.73L50.69 121.73Q50.69 120.83 54.53 120.19L54.53 120.19Q57.73 119.68 62.14 118.02Q66.56 116.35 66.30 115.33L66.30 115.33Q66.30 114.56 62.59 112Q58.88 109.44 58.37 106.88L58.37 106.88Q57.60 104.06 56.96 103.74Q56.32 103.42 53.76 104.19L53.76 104.19Q48 106.37 31.49 110.85L31.49 110.85Q22.02 113.54 18.82 114.56L18.82 114.56Q13.31 116.86 10.24 114.30L10.24 114.30Q8.45 112.64 10.50 111.10L10.50 111.10Q11.65 109.82 22.91 107.71Q34.18 105.60 41.22 103.55Q48.26 101.50 54.02 99.71L54.02 99.71Q57.73 98.69 59.39 97.66Q61.06 96.64 62.46 94.34L62.46 94.34Q67.84 86.40 66.56 86.27L66.56 86.27Q66.05 86.27 64.64 87.04L64.64 87.04Q62.72 88.19 61.44 86.53L61.44 86.53Q59.01 84.48 62.85 81.66L62.85 81.66Q64.26 80.90 66.82 76.99Q69.38 73.09 71.36 69.44Q73.34 65.79 72.96 65.66L72.96 65.66Q72.06 65.15 68.10 65.41L68.10 65.41Q62.46 66.05 65.66 71.17L65.66 71.17Q66.94 73.09 65.66 74.88L65.66 74.88Q64.64 76.54 63.36 76.54Q62.08 76.54 60.80 74.75Q59.52 72.96 58.50 69.76L58.50 69.76Q58.37 69.25 58.18 68.99Q57.98 68.74 57.73 68.74Q57.47 68.74 57.22 69.12Q56.96 69.50 56.06 70.27L56.06 70.27Q53.12 73.98 55.81 80.38L55.81 80.38Q56.96 83.07 56.64 85.63Q56.32 88.19 55.04 88.19L55.04 88.19Q54.02 88.19 52.35 86.53Q50.69 84.86 50.69 83.97L50.69 83.97Q50.69 82.94 47.23 77.44L47.23 77.44Q45.06 74.11 44.54 72.32Q44.03 70.53 44.16 67.07L44.16 67.07Q44.29 62.59 45.63 62.40Q46.98 62.21 48.64 66.82L48.64 66.82L50.18 71.17L54.02 67.84Q57.73 64.26 57.09 62.46L57.09 62.46Q56.32 60.67 57.15 58.43Q57.98 56.19 59.01 56.32L59.01 56.32Q60.29 56.83 61.57 59.52L61.57 59.52Q62.46 61.57 64 61.82Q65.54 62.08 71.42 60.67L71.42 60.67Q75.52 59.90 76.42 59.33Q77.31 58.75 77.57 56.70L77.57 56.70Q77.57 54.78 77.18 54.14Q76.80 53.50 75.78 53.50L75.78 53.50Q74.37 53.50 74.05 52.67Q73.73 51.84 75.01 50.30ZM96.90 63.36L96.90 63.36L98.94 61.18Q98.69 61.18 94.40 61.95Q90.11 62.72 85.50 63.49L85.50 63.49Q82.56 64 81.28 64.83Q80 65.66 77.82 68.99L77.82 68.99Q74.62 73.60 75.78 73.98L75.78 73.98Q76.67 74.24 85.38 69.95Q94.08 65.66 96.90 63.36ZM83.33 97.66L83.33 97.66Q83.33 97.15 83.01 96.83Q82.69 96.51 81.86 96.58Q81.02 96.64 79.68 97.02Q78.34 97.41 76.16 97.92L76.16 97.92Q71.42 99.20 68.74 99.71L68.74 99.71Q64.13 100.48 63.74 103.10Q63.36 105.73 67.84 108.67L67.84 108.67Q71.04 111.23 72.83 111.30Q74.62 111.36 76.29 109.31L76.29 109.31Q78.08 107.39 80.70 103.04Q83.33 98.69 83.33 97.66ZM73.73 37.50L73.73 37.50Q75.90 36.99 77.63 37.76Q79.36 38.53 79.36 39.94L79.36 39.94Q79.36 44.03 68.10 45.31L68.10 45.31Q60.42 46.21 59.14 44.80L59.14 44.80Q56.06 41.86 62.08 41.60L62.08 41.60Q65.41 41.47 68.42 39.94Q71.42 38.40 73.73 37.50Z"/>
</g>
<g transform="translate(255.909791015625,153.94422140625)">
<path fill="#ce30d5" d="M88.51 83.26Q90.24 82.69 90.82 81.34Q91.39 80 93.70 80L93.70 80Q95.23 80 95.62 80.58Q96 81.15 96 82.82Q96 84.48 96.70 85.25Q97.41 86.02 99.33 86.53L99.33 86.53Q102.53 87.68 105.09 90.62L105.09 90.62Q106.62 92.54 107.01 93.76Q107.39 94.98 107.01 97.66L107.01 97.66Q105.98 104.58 100.99 111.30Q96 118.02 89.09 122.11L89.09 122.11Q84.86 124.54 83.07 124.67Q81.28 124.80 79.87 122.62L79.87 122.62Q76.93 118.66 78.98 110.72L78.98 110.72Q80.13 105.73 80.26 104.45L80.26 104.45Q80.26 102.91 73.86 108.29L73.86 108.29Q72.19 109.82 70.78 111.36L70.78 111.36Q68.48 113.79 63.23 117.38Q57.98 120.96 55.04 121.86L55.04 121.86Q51.84 123.01 49.34 122.94Q46.85 122.88 46.21 121.47L46.21 121.47Q45.82 120.19 46.21 118.34Q46.59 116.48 47.36 116.48L47.36 116.48Q48 116.48 52.74 112.26L52.74 112.26Q57.34 108.03 55.42 108.29L55.42 108.29Q53.89 108.29 48.51 110.34L48.51 110.34Q41.09 113.41 39.42 115.26Q37.76 117.12 39.17 120.58L39.17 120.58Q40.06 122.88 39.10 124.80Q38.14 126.72 36.22 126.72L36.22 126.72Q33.92 126.72 31.04 117.70Q28.16 108.67 29.70 106.11L29.70 106.11Q30.85 104.45 30.34 103.04L30.34 103.04Q29.95 102.27 31.17 101.31Q32.38 100.35 35.84 98.82L35.84 98.82Q41.86 96.13 45.82 93.44L45.82 93.44Q59.90 84.22 59.65 89.60L59.65 89.60Q59.65 91.39 57.66 92.93Q55.68 94.46 48 98.30L48 98.30Q37.38 103.42 36.80 104.32Q36.22 105.22 34.56 105.22L34.56 105.22Q31.10 105.22 34.18 109.57L34.18 109.57L35.46 111.74L41.09 108.42Q45.31 106.11 53.06 103.36Q60.80 100.61 63.36 100.61L63.36 100.61Q68.10 100.61 65.28 106.75L65.28 106.75Q63.49 110.34 63.49 110.59L63.49 110.59Q63.49 112.13 70.02 106.75L70.02 106.75Q72.58 104.83 73.73 103.30L73.73 103.30L81.79 93.70Q86.78 88.06 86.78 85.95Q86.78 83.84 88.51 83.26ZM97.92 91.78L97.92 91.78Q95.23 90.37 93.31 90.37L93.31 90.37Q92.03 90.37 89.54 92.99Q87.04 95.62 85.50 98.69L85.50 98.69Q83.71 102.14 82.37 110.08Q81.02 118.02 82.05 118.66L82.05 118.66Q84.35 120.19 90.50 114.69Q96.64 109.18 99.33 103.42L99.33 103.42Q101.63 98.43 101.31 95.87Q100.99 93.31 97.92 91.78ZM49.92 80.26L49.92 80.26Q52.99 77.95 54.14 77.57Q55.30 77.18 56.83 78.08L56.83 78.08Q57.73 78.85 57.54 79.94Q57.34 81.02 55.94 82.37Q54.53 83.71 51.97 85.25L51.97 85.25Q42.62 90.37 40.13 91.33Q37.63 92.29 35.71 91.78L35.71 91.78Q33.15 90.75 33.28 89.41Q33.41 88.06 35.84 87.55L35.84 87.55Q41.98 86.14 49.92 80.26ZM108.16 67.20L108.16 67.20Q109.44 66.43 112.13 66.88Q114.82 67.33 114.82 68.35L114.82 68.35Q114.82 70.78 111.17 72.26Q107.52 73.73 98.69 75.01L98.69 75.01Q96.26 75.39 84.35 79.10L84.35 79.10Q66.18 84.86 64.90 81.41L64.90 81.41Q64.51 80.26 66.43 79.30Q68.35 78.34 74.62 76.80L74.62 76.80Q80.90 75.39 88.26 72.70Q95.62 70.02 101.18 68.86Q106.75 67.71 108.16 67.20ZM59.52 63.36L59.52 63.36Q65.79 60.03 66.94 62.98L66.94 62.98Q68.35 66.56 61.95 68.48L61.95 68.48L53.12 71.17Q48 72.70 37.25 77.31L37.25 77.31Q14.34 86.91 13.18 82.18L13.18 82.18Q13.18 81.54 13.18 80.77L13.18 80.77Q13.44 79.49 14.08 79.10Q14.72 78.72 16.51 78.85L16.51 78.85Q20.74 79.23 50.43 66.82L50.43 66.82Q52.74 65.79 54.40 65.54Q56.06 65.28 59.52 63.36ZM86.40 45.82L86.40 45.82Q89.09 44.80 89.98 44.93Q90.88 45.06 94.08 46.59L94.08 46.59Q97.92 48.26 97.92 50.11Q97.92 51.97 96.38 53.50Q94.85 55.04 93.57 54.40L93.57 54.40Q92.16 53.89 91.33 53.89Q90.50 53.89 90.50 52.16Q90.50 50.43 87.55 49.66L87.55 49.66Q85.63 49.02 84.80 48.38Q83.97 47.74 84.42 47.04Q84.86 46.34 86.40 45.82ZM50.05 41.73L50.05 41.73Q52.74 41.22 56.19 41.47Q59.65 41.73 61.06 42.50L61.06 42.50Q62.98 43.52 61.95 45.18L61.95 45.18Q59.90 48.64 52.74 46.21L52.74 46.21Q48.51 44.80 48.51 42.75L48.51 42.75Q48.51 41.98 50.05 41.73Z"/>
</g>
<g transform="translate(383.8646865234375,153.94422140625)">
<path fill="#ce30d5" d="M66.43 85.25L66.43 85.25Q69.38 84.10 72.90 83.71Q76.42 83.33 78.34 84.10L78.34 84.10Q79.87 84.61 79.81 88Q79.74 91.39 78.21 94.59L78.21 94.59Q76.80 97.15 76.80 97.79Q76.80 98.43 78.21 99.84L78.21 99.84Q79.74 101.50 78.85 103.23Q77.95 104.96 77.31 104.58Q76.67 104.19 72.58 104.96L72.58 104.96Q66.69 106.37 65.34 104.32Q64 102.27 68.22 99.07L68.22 99.07Q70.66 97.15 72.51 94.34Q74.37 91.52 74.37 89.86L74.37 89.86Q74.37 88.45 70.14 89.22L70.14 89.22Q64.38 90.24 61.89 92.80Q59.39 95.36 59.39 100.22L59.39 100.22Q59.39 104.06 58.69 105.47Q57.98 106.88 56.06 106.88L56.06 106.88Q54.53 106.88 54.08 105.92Q53.63 104.96 52.86 101.50L52.86 101.50Q51.84 96.13 51.33 93.31L51.33 93.31Q50.69 91.01 50.69 88.96Q50.69 86.91 51.26 85.70Q51.84 84.48 52.61 84.61L52.61 84.61Q54.78 84.99 56.06 89.47L56.06 89.47Q56.32 89.98 56.51 90.30Q56.70 90.62 57.09 90.50Q57.47 90.37 57.92 89.98Q58.37 89.60 59.52 88.83L59.52 88.83Q62.59 86.53 66.43 85.25ZM40.70 46.59L40.70 46.59Q43.01 45.44 45.44 45.31Q47.87 45.18 48.77 46.34L48.77 46.34Q49.92 47.36 49.41 58.88L49.41 58.88Q48.77 70.40 50.18 70.40L50.18 70.40Q50.69 70.40 51.84 68.99L51.84 68.99Q52.61 68.22 53.50 67.97Q54.40 67.71 55.04 67.78Q55.68 67.84 55.68 68.61L55.68 68.61Q55.68 69.38 54.53 70.53L54.53 70.53Q48.26 76.93 48 82.18L48 82.18Q48 86.91 46.78 91.52Q45.57 96.13 44.16 96.90L44.16 96.90Q42.50 98.05 40.70 95.74L40.70 95.74Q39.04 93.70 39.04 92.93Q39.04 92.16 40.70 91.78L40.70 91.78Q42.62 91.14 42.62 88.70L42.62 88.70L42.62 86.02L39.42 89.09Q37.12 91.14 36.22 91.52Q35.33 91.90 34.18 91.14L34.18 91.14Q32.51 89.98 31.94 90.88Q31.36 91.78 30.72 106.11L30.72 106.11Q30.34 115.33 30.53 118.53Q30.72 121.73 31.74 123.78L31.74 123.78Q33.41 127.10 33.02 131.33L33.02 131.33Q32.90 134.02 32.51 134.66Q32.13 135.30 30.59 135.30Q29.06 135.30 28.48 134.34Q27.90 133.38 27.14 129.15L27.14 129.15Q24.58 115.33 28.03 78.08L28.03 78.08Q30.59 52.48 30.98 51.71L30.98 51.71Q31.74 50.82 33.34 50.88Q34.94 50.94 35.33 52.10L35.33 52.10Q35.97 53.25 35.20 57.41Q34.43 61.57 34.18 64.26L34.18 64.26Q34.18 65.79 34.69 66.24Q35.20 66.69 36.86 66.69L36.86 66.69Q41.47 66.69 42.88 70.53L42.88 70.53Q43.78 73.09 44.16 68.86L44.16 68.86Q44.42 66.56 44.54 62.08L44.54 62.08Q44.54 61.31 44.54 60.03L44.54 60.03Q44.80 52.48 44.42 51.33Q44.03 50.18 41.86 50.43L41.86 50.43Q41.47 50.56 41.34 50.56L41.34 50.56Q37.50 51.20 37.31 49.66Q37.12 48.13 40.70 46.59ZM38.66 71.55L38.66 71.55Q37.63 70.40 37.12 70.53L37.12 70.53Q34.56 71.17 33.98 72.13Q33.41 73.09 33.02 77.18L33.02 77.18Q31.87 87.17 32.90 87.55L32.90 87.55Q33.66 87.94 34.94 85.63L34.94 85.63Q35.97 84.48 37.12 82.18L37.12 82.18Q41.47 74.50 38.66 71.55ZM42.62 75.78Q42.88 77.57 43.33 76.29Q43.78 75.01 43.26 74.50L43.26 74.50Q43.01 74.24 42.88 74.62L42.88 74.62Q42.62 75.01 42.62 75.78L42.62 75.78ZM91.90 33.54L91.90 33.54Q93.44 32.51 95.81 32.70Q98.18 32.90 100.35 34.30L100.35 34.30Q101.63 35.07 101.95 35.90Q102.27 36.74 101.89 39.30L101.89 39.30Q100.35 49.66 99.97 81.92Q99.58 114.18 100.86 125.57L100.86 125.57Q101.25 129.92 101.18 131.46Q101.12 132.99 100.10 133.76L100.10 133.76Q97.02 136.32 93.95 130.18L93.95 130.18Q91.26 124.42 93.82 124.80L93.82 124.80Q94.21 124.80 94.59 124.93L94.59 124.93Q95.74 125.31 95.49 124.16L95.49 124.16Q95.49 123.65 95.36 122.50L95.36 122.50Q94.59 119.42 94.72 93.44L94.72 93.44L94.98 67.46L92.42 68.22Q89.73 68.86 87.49 70.59Q85.25 72.32 83.07 71.94Q80.90 71.55 80.64 72.06L80.64 72.06Q80.26 75.78 79.23 77.06Q78.21 78.34 76.67 76.93L76.67 76.93Q75.52 76.03 75.33 73.22Q75.14 70.40 75.65 60.03L75.65 60.03Q76.29 44.29 76.74 42.94Q77.18 41.60 79.74 41.60L79.74 41.60Q81.28 41.60 81.54 42.37Q81.79 43.14 81.66 47.10L81.66 47.10L81.28 52.74L84.10 51.97Q88.58 51.20 90.11 51.46Q91.65 51.71 91.90 53.63L91.90 53.63Q92.29 56.19 90.82 57.73Q89.34 59.26 89.34 59.78L89.34 59.78Q89.34 60.80 87.62 62.34Q85.89 63.87 84.86 63.87L84.86 63.87Q84.10 63.87 83.84 63.30Q83.58 62.72 83.84 61.82Q84.10 60.93 85.12 60.16L85.12 60.16Q86.78 58.62 86.40 57.47Q86.02 56.32 83.71 56.58L83.71 56.58Q82.05 56.70 81.66 57.47Q81.28 58.24 81.02 61.18L81.02 61.18Q80.90 64 81.15 64.90Q81.41 65.79 82.82 66.18L82.82 66.18Q84.86 66.56 86.40 65.15L86.40 65.15Q87.81 64 90.82 63.94Q93.82 63.87 94.21 65.15L94.21 65.15Q94.59 66.18 95.10 54.27L95.10 54.27Q95.36 53.50 95.36 52.48L95.36 52.48Q95.87 38.91 95.42 37.44Q94.98 35.97 92.67 36.61L92.67 36.61Q91.14 36.74 90.56 36.48Q89.98 36.22 90.37 35.33Q90.75 34.43 91.90 33.54Z"/>
</g>
<g transform="translate(511.81958203125,153.94422140625)">
<path fill="#ce30d5" d="M73.47 75.26L73.47 75.26Q84.74 69.63 89.86 71.49Q94.98 73.34 97.28 83.71L97.28 83.71Q99.20 91.39 97.09 100.93Q94.98 110.46 90.11 114.94L90.11 114.94Q87.94 117.38 86.78 117.70Q85.63 118.02 81.28 117.50L81.28 117.50Q68.86 116.22 67.07 109.31L67.07 109.31Q66.43 106.11 66.94 102.91L66.94 102.91Q67.58 99.71 71.17 95.74Q74.75 91.78 77.44 91.14L77.44 91.14Q80.51 90.62 84.22 92.67Q87.94 94.72 89.86 98.18L89.86 98.18L91.52 101.50L92.29 96.13Q93.44 86.91 90.11 80.26L90.11 80.26Q88.96 77.44 88.13 76.93Q87.30 76.42 84.61 76.54L84.61 76.54Q81.28 76.67 75.33 79.42Q69.38 82.18 64.38 85.50L64.38 85.50L59.65 88.96L59.65 97.15Q59.39 105.47 57.34 110.08L57.34 110.08Q55.55 114.30 52.29 117.50Q49.02 120.70 47.62 120.19L47.62 120.19Q46.21 119.55 45.25 116.99Q44.29 114.43 44.29 111.23Q44.29 108.03 46.59 100.67Q48.90 93.31 50.43 91.78L50.43 91.78Q52.86 88.96 50.43 87.04L50.43 87.04Q49.02 86.27 47.36 87.94Q45.70 89.60 44.29 93.31L44.29 93.31Q40.58 103.94 38.78 103.94L38.78 103.94Q37.38 103.94 38.27 100.48L38.27 100.48Q38.78 98.43 40.70 92.67L40.70 92.67Q43.65 83.84 46.21 82.43L46.21 82.43Q48.38 81.28 50.75 81.73Q53.12 82.18 54.78 83.84L54.78 83.84Q55.94 84.86 56.83 84.61Q57.73 84.35 60.54 82.43L60.54 82.43Q64.90 79.36 73.47 75.26ZM54.27 100.10L54.27 100.10Q54.78 95.36 53.89 95.62L53.89 95.62Q52.35 95.87 50.43 104.70L50.43 104.70Q49.02 110.46 49.79 110.98L49.79 110.98Q50.56 111.36 51.39 109.70Q52.22 108.03 53.12 105.28Q54.02 102.53 54.27 100.10ZM83.07 99.46L83.07 99.46Q81.15 97.54 78.78 97.41Q76.42 97.28 74.75 98.94L74.75 98.94Q70.27 104.19 72.13 108.22Q73.98 112.26 80.90 112.26L80.90 112.26Q87.30 112.26 89.86 105.60L89.86 105.60Q90.75 103.30 90.11 103.30L90.11 103.30Q89.98 103.30 89.22 103.55L89.22 103.55Q87.94 104.32 86.53 104.13Q85.12 103.94 85.12 102.78L85.12 102.78Q85.12 101.38 83.07 99.46ZM36.99 57.47L36.99 57.47Q37.50 55.55 38.08 54.98Q38.66 54.40 39.94 54.66L39.94 54.66Q41.22 54.78 41.47 55.49Q41.73 56.19 41.73 58.62L41.73 58.62Q41.73 63.10 38.91 82.56Q36.10 102.02 35.20 105.22L35.20 105.22Q34.82 106.62 36.16 106.62Q37.50 106.62 36.86 109.82L36.86 109.82Q35.71 113.66 35.01 114.94Q34.30 116.22 32.51 116.22L32.51 116.22Q30.59 116.22 30.21 115.01Q29.82 113.79 29.95 109.06L29.95 109.06Q30.34 99.71 33.92 80.26L33.92 80.26Q34.82 75.26 35.39 67.90Q35.97 60.54 36.99 57.47Z"/>
</g>
<g transform="translate(639.7744775390624,153.94422140625)">
<path fill="#ce30d5" d="M67.84 126.85L67.84 126.85Q68.35 125.70 71.17 126.14Q73.98 126.59 77.89 128.64Q81.79 130.69 83.71 132.74L83.71 132.74Q85.89 135.04 85.50 137.54Q85.12 140.03 82.43 140.42L82.43 140.42Q80.90 140.67 80.38 140.29Q79.87 139.90 79.87 138.50L79.87 138.50Q79.87 135.04 75.26 133.76L75.26 133.76Q73.22 132.99 70.53 130.56Q67.84 128.13 67.84 126.85ZM77.95 65.15L77.95 65.15Q103.42 63.74 103.42 67.84L103.42 67.84Q103.42 69.50 100.54 71.04Q97.66 72.58 96.51 71.68L96.51 71.68Q95.36 70.66 81.79 69.76L81.79 69.76Q66.82 68.61 66.82 67.07L66.82 67.07Q66.82 66.69 67.20 66.30L67.20 66.30Q67.97 65.54 77.95 65.15ZM29.82 43.39L29.82 43.39Q31.87 42.11 33.60 43.46Q35.33 44.80 38.02 49.92L38.02 49.92Q39.55 52.99 39.68 56.38Q39.81 59.78 38.27 60.16L38.27 60.16Q37.89 60.29 37.12 59.33Q36.35 58.37 35.71 57.09L35.71 57.09Q34.43 53.38 31.42 48.77Q28.42 44.16 29.82 43.39ZM62.98 28.80L62.98 28.80Q67.84 25.98 67.46 29.95L67.46 29.95Q67.07 32.64 64.38 38.02L64.38 38.02Q61.06 44.54 61.44 44.80L61.44 44.80Q61.82 44.80 62.85 44.16L62.85 44.16Q69.76 39.55 77.31 37.38Q84.86 35.20 88.83 36.74L88.83 36.74Q93.44 38.40 84.86 46.85L84.86 46.85Q83.20 48.64 80.64 50.69L80.64 50.69Q75.65 54.91 69.89 59.07Q64.13 63.23 63.62 63.23L63.62 63.23Q63.23 63.23 58.69 68.03Q54.14 72.83 53.38 74.11L53.38 74.11Q52.61 75.65 52.22 78.85L52.22 78.85L51.84 81.92L56.83 81.28Q64.13 80.51 65.79 80.70Q67.46 80.90 67.58 82.30L67.58 82.30Q67.97 83.97 64.51 87.42L64.51 87.42L61.06 90.88L63.62 91.52Q66.05 92.29 65.98 94.59Q65.92 96.90 62.98 100.10L62.98 100.10Q60.16 103.42 60.74 104Q61.31 104.58 65.54 102.53Q69.76 100.48 71.68 100.48L71.68 100.48Q72.83 100.48 73.09 99.71Q73.34 98.94 72.96 95.74L72.96 95.74Q72.58 90.75 72.19 85.12L72.19 85.12Q72.06 80 71.10 78.21Q70.14 76.42 66.82 75.52L66.82 75.52Q63.36 74.50 60.93 75.90L60.93 75.90Q57.86 77.44 57.09 76.29Q56.32 75.14 58.75 72.96L58.75 72.96Q61.44 70.66 66.05 70.66L66.05 70.66Q70.66 70.66 72.90 71.62Q75.14 72.58 76.03 75.14L76.03 75.14Q77.44 78.46 78.08 98.43Q78.72 118.40 77.82 121.60L77.82 121.60Q76.29 126.08 71.42 121.22L71.42 121.22Q67.97 118.14 68.74 116.22L68.74 116.22Q69.12 115.46 70.53 116.22L70.53 116.22Q72.58 117.38 72.96 116.74Q73.34 116.10 73.34 111.23L73.34 111.23L73.22 105.09L67.46 111.49Q61.82 117.76 56.26 122.88Q50.69 128 47.87 130.82L47.87 130.82Q42.62 136.06 41.86 134.14L41.86 134.14Q41.73 133.89 41.73 133.76L41.73 133.76Q41.73 131.58 52.86 119.30L52.86 119.30Q59.78 111.62 59.01 111.62L59.01 111.62Q57.60 111.62 55.30 113.34Q52.99 115.07 52.99 116.22L52.99 116.22Q52.99 118.02 51.65 119.17Q50.30 120.32 48.90 120Q47.49 119.68 46.85 118.14L46.85 118.14Q46.34 116.22 46.34 99.58L46.34 99.58Q46.34 87.81 46.02 85.31Q45.70 82.82 44.42 82.43L44.42 82.43Q40.70 81.54 45.57 75.52L45.57 75.52Q49.02 71.30 53.50 64.96Q57.98 58.62 61.06 53.89Q64.13 49.15 63.62 49.15L63.62 49.15Q63.23 49.15 60.61 51.58Q57.98 54.02 54.27 55.74Q50.56 57.47 46.46 64.13L46.46 64.13Q36.48 79.74 32.77 84.29Q29.06 88.83 26.11 88.19L26.11 88.19Q25.22 88.06 24.90 86.98Q24.58 85.89 24.83 82.82L24.83 82.82Q24.96 77.31 26.88 76.42L26.88 76.42Q27.90 76.29 28.42 77.82L28.42 77.82Q28.67 78.46 28.80 79.36L28.80 79.36Q29.06 80.90 34.18 73.98L34.18 73.98Q38.02 68.74 46.72 55.94L46.72 55.94Q61.31 34.18 61.31 31.10L61.31 31.10Q61.31 29.82 62.98 28.80ZM77.18 46.34L77.18 46.34Q82.94 41.09 81.79 41.09L81.79 41.09Q81.02 40.96 77.57 42.11L77.57 42.11Q68.22 45.57 68.74 47.62L68.74 47.62Q69.76 48.64 69.76 50.37Q69.76 52.10 70.40 51.97Q71.04 51.84 77.18 46.34ZM56.45 86.53L56.45 86.53Q53.38 85.50 52.74 86.02Q52.10 86.53 52.10 89.60L52.10 89.60L52.10 93.44L55.30 90.11Q58.37 87.30 57.60 86.91L57.60 86.91Q57.47 86.66 56.45 86.53ZM55.68 100.86L55.68 100.86Q55.68 100.74 55.62 100.61Q55.55 100.48 55.17 100.61Q54.78 100.74 54.21 100.80Q53.63 100.86 52.61 101.12L52.61 101.12Q51.07 101.50 51.07 103.55L51.07 103.55Q51.07 104.96 51.39 104.96Q51.71 104.96 53.38 103.42L53.38 103.42Q55.68 101.25 55.68 100.86Z"/>
</g>
<g transform="translate(767.7293730468749,153.94422140625)">
<path fill="#ce30d5" d="M15.49 96.51L15.49 96.51Q15.87 94.46 16.64 93.70Q17.41 92.93 18.11 94.08Q18.82 95.23 18.82 97.28L18.82 97.28Q18.82 100.99 20.80 105.15Q22.78 109.31 24.32 109.31L24.32 109.31Q25.98 109.31 28.03 112.83Q30.08 116.35 29.44 118.27L29.44 118.27Q28.93 120.70 27.01 120.51Q25.09 120.32 22.66 117.50L22.66 117.50Q18.56 112.77 16.51 106.94Q14.46 101.12 15.49 96.51ZM20.61 66.43L20.61 66.43Q22.14 63.36 22.91 66.43L22.91 66.43Q23.30 67.58 23.30 68.99L23.30 68.99Q23.30 72.19 25.60 75.14L25.60 75.14Q27.39 77.06 27.84 78.78Q28.29 80.51 28.03 84.22L28.03 84.22Q28.03 86.40 26.62 87.81Q25.22 89.22 23.55 88.58L23.55 88.58Q22.14 88.06 22.72 85.63Q23.30 83.20 21.50 79.10L21.50 79.10Q17.79 71.04 20.61 66.43ZM94.59 60.80L94.59 60.80Q97.54 60.16 102.53 60.29L102.53 60.29Q105.98 60.29 106.94 60.74Q107.90 61.18 108.03 62.72L108.03 62.72Q108.16 64.51 106.50 67.07Q104.83 69.63 101.25 76.22Q97.66 82.82 94.78 86.40Q91.90 89.98 91.39 94.85L91.39 94.85Q90.88 99.84 91.78 99.84L91.78 99.84Q91.90 99.84 92.67 99.71L92.67 99.71Q94.59 98.94 101.70 98.94Q108.80 98.94 110.91 99.58Q113.02 100.22 113.02 103.04L113.02 103.04Q113.02 104.70 111.81 105.86Q110.59 107.01 106.50 109.82L106.50 109.82Q95.36 116.86 93.18 116.86L93.18 116.86Q92.16 116.86 93.18 114.56L93.18 114.56Q93.95 113.41 94.59 113.15L94.59 113.15Q95.62 112.38 100.48 108.67L100.48 108.67Q104.06 105.73 104.51 104.96Q104.96 104.19 103.94 103.42L103.94 103.42Q102.14 102.14 97.02 102.59Q91.90 103.04 91.58 103.30Q91.26 103.55 90.75 111.49L90.75 111.49Q89.86 125.31 86.27 125.31L86.27 125.31Q82.69 125.31 73.98 117.63L73.98 117.63Q69.25 113.28 67.58 113.28L67.58 113.28Q65.66 113.28 64.13 112.06Q62.59 110.85 62.59 109.44L62.59 109.44Q62.59 107.90 65.98 107.39Q69.38 106.88 77.06 104.19L77.06 104.19L84.86 101.50L84.86 97.15L84.86 92.67L82.30 93.95Q79.74 95.23 75.84 95.30Q71.94 95.36 70.91 94.08L70.91 94.08Q69.76 92.80 68.48 74.75L68.48 74.75Q67.71 66.56 68.86 65.15L68.86 65.15Q70.78 62.85 71.55 66.43L71.55 66.43Q71.94 67.97 72.06 71.04L72.06 71.04Q72.96 77.57 73.47 77.57Q73.98 77.57 76.03 74.11L76.03 74.11Q77.44 71.55 83.90 67.07Q90.37 62.59 94.59 60.80ZM101.50 64.38L101.50 64.38Q101.63 63.74 100.48 63.62L100.48 63.62Q96.26 63.23 92.67 65.28L92.67 65.28Q85.38 69.38 82.56 71.42Q79.74 73.47 78.59 75.52L78.59 75.52Q76.93 78.59 77.63 79.17Q78.34 79.74 83.20 77.95Q88.06 76.16 89.47 76.54L89.47 76.54Q90.75 77.06 90.30 78.46Q89.86 79.87 87.94 80.51L87.94 80.51Q85.38 81.41 82.18 83.20Q78.98 84.99 77.82 84.48L77.82 84.48Q77.06 84.35 76.80 84.93Q76.54 85.50 76.54 86.91L76.54 86.91Q76.54 88.70 76.93 89.15Q77.31 89.60 79.62 89.47L79.62 89.47Q84.22 88.96 87.81 85.76Q91.39 82.56 95.74 74.75L95.74 74.75Q101.12 65.15 101.50 64.38ZM84.35 116.86L85.12 109.82Q85.50 106.37 85.31 105.54Q85.12 104.70 84.10 104.70L84.10 104.70Q82.18 104.70 77.25 107.46Q72.32 110.21 72.32 111.36L72.32 111.36Q72.32 112.38 77.31 116.03Q82.30 119.68 83.33 119.42L83.33 119.42Q84.22 119.17 84.35 116.86L84.35 116.86ZM80.38 50.30L80.38 50.30Q84.35 47.36 86.78 50.18L86.78 50.18Q88.06 51.84 85.89 54.98Q83.71 58.11 78.98 60.67L78.98 60.67Q72.32 64.38 72.32 62.72L72.32 62.72Q72.32 61.44 75.39 59.14L75.39 59.14Q77.82 57.34 78.46 56.26Q79.10 55.17 78.59 54.14L78.59 54.14Q78.08 51.71 80.38 50.30ZM34.05 42.11L34.05 42.11L31.10 39.55L34.18 39.55Q36.99 39.42 40.70 42.62L40.70 42.62Q42.88 44.80 43.39 45.95Q43.90 47.10 43.52 49.02L43.52 49.02Q42.11 54.91 36.74 55.17L36.74 55.17Q33.54 55.17 33.54 54.72Q33.54 54.27 36.10 51.07L36.10 51.07Q38.02 48.38 37.76 46.59Q37.50 44.80 34.05 42.11ZM81.54 32L81.54 32Q87.04 29.82 88.51 29.50Q89.98 29.18 91.39 30.08L91.39 30.08Q92.54 30.72 91.90 32.77Q91.26 34.82 89.60 34.94L89.60 34.94Q85.76 35.20 80.64 36.86L80.64 36.86Q78.08 37.89 77.50 38.53Q76.93 39.17 77.06 41.09L77.06 41.09Q77.44 44.03 73.22 51.33Q68.99 58.62 61.95 76.80L61.95 76.80Q46.34 116.99 44.54 119.55L44.54 119.55Q43.90 120.96 39.04 132.22Q34.18 143.49 32.70 144.70Q31.23 145.92 30.46 145.02Q29.70 144.13 30.72 142.40Q31.74 140.67 37.12 127.62Q42.50 114.56 43.26 112.26Q44.03 109.95 45.18 107.01L45.18 107.01Q46.72 103.17 52.74 87.04L52.74 87.04Q61.31 63.10 70.14 45.70L70.14 45.70Q72.32 41.09 71.55 40.51Q70.78 39.94 65.02 41.98L65.02 41.98Q60.54 43.52 59.26 42.24L59.26 42.24Q56.32 39.94 63.10 38.14L63.10 38.14Q63.74 37.89 64.90 37.63L64.90 37.63Q70.14 36.35 70.53 35.58Q70.91 34.82 73.02 34.82Q75.14 34.82 81.54 32Z"/>
</g>
<g transform="translate(895.6842685546874,153.94422140625)">
<path fill="#ce30d5" d="M79.23 89.22L79.23 89.22Q79.87 88.06 84.61 88.45L84.61 88.45Q87.55 89.09 89.15 89.92Q90.75 90.75 93.31 93.44L93.31 93.44Q96.77 97.15 97.15 99.46Q97.54 101.76 94.85 105.09L94.85 105.09Q93.06 107.26 90.88 107.78Q88.70 108.29 87.30 106.88L87.30 106.88Q86.40 105.86 86.78 104.51Q87.17 103.17 88.58 103.17L88.58 103.17Q90.37 103.17 90.43 100.93Q90.50 98.69 88.70 96.64L88.70 96.64Q86.66 93.95 85.63 93.82L85.63 93.82Q84.10 93.82 81.41 91.78Q78.72 89.73 79.23 89.22ZM69.38 57.09L69.38 57.09Q75.39 55.68 75.58 55.62Q75.78 55.55 78.21 56.45L78.21 56.45Q83.71 58.62 76.42 67.07L76.42 67.07Q65.66 79.49 60.42 87.30L60.42 87.30L57.22 92.16L59.14 95.23Q61.57 98.69 62.72 99.65Q63.87 100.61 65.02 98.69L65.02 98.69Q71.42 89.98 70.78 94.85L70.78 94.85Q70.53 96.26 69.50 99.71L69.50 99.71Q67.20 106.11 65.73 108.16Q64.26 110.21 62.59 109.18Q60.93 108.16 57.98 103.17L57.98 103.17Q54.27 97.15 54.02 96.19Q53.76 95.23 49.28 100.61L49.28 100.61Q47.23 103.04 41.98 109.57L41.98 109.57Q33.41 120.32 31.23 118.91L31.23 118.91Q30.85 118.66 30.72 117.89L30.72 117.89Q29.70 116.61 41.34 93.44L41.34 93.44L44.67 86.91L49.41 86.91L54.53 86.91L60.03 79.36L68.99 67.71Q72.19 63.62 72.19 63.10L72.19 63.10Q71.94 62.59 69.57 62.72Q67.20 62.85 63.23 63.62Q59.26 64.38 55.42 65.54L55.42 65.54Q44.16 68.86 44.16 64.51L44.16 64.51Q44.16 63.10 69.38 57.09ZM49.28 92.03L49.28 92.03Q49.28 89.47 46.85 90.50L46.85 90.50Q45.31 91.26 44.16 92.93L44.16 92.93Q42.62 95.49 41.34 98.94Q40.06 102.40 40.58 102.66L40.58 102.66Q40.83 103.04 43.07 100.54Q45.31 98.05 47.30 95.23Q49.28 92.42 49.28 92.03Z"/>
</g>
<g transform="translate(1023.6391640624998,153.94422140625)">
<path fill="#ce30d5" d="M83.20 65.02L83.20 65.02Q94.85 61.57 96.13 64.13L96.13 64.13Q97.41 67.71 87.68 77.82L87.68 77.82Q81.41 84.61 81.41 85.31Q81.41 86.02 82.94 86.02L82.94 86.02Q84.99 86.02 89.60 88.96Q94.21 91.90 95.10 93.70L95.10 93.70Q96.13 95.10 97.28 95.55Q98.43 96 102.53 96.13L102.53 96.13Q111.49 96.26 110.98 99.20L110.98 99.20Q110.85 100.10 110.21 100.61L110.21 100.61Q108.93 101.89 107.33 101.06Q105.73 100.22 103.23 100.22Q100.74 100.22 99.07 101.06Q97.41 101.89 96.77 106.88L96.77 106.88Q95.49 115.46 93.18 122.62Q90.88 129.79 88.58 131.58L88.58 131.58Q86.40 133.38 81.09 131.14Q75.78 128.90 71.17 124.54L71.17 124.54Q68.61 122.50 65.79 120.58L65.79 120.58Q62.98 119.17 62.72 117.38Q62.46 115.58 64.26 112.90L64.26 112.90Q65.54 110.98 70.53 106.94Q75.52 102.91 76.29 102.91L76.29 102.91Q77.44 102.91 78.40 101.57Q79.36 100.22 84.93 98.62Q90.50 97.02 90.50 96.13L90.50 96.13Q90.50 95.10 87.04 93.38Q83.58 91.65 80.64 91.14L80.64 91.14Q75.01 90.37 75.01 87.81Q75.01 85.25 80.77 78.72L80.77 78.72Q89.22 69.25 87.04 69.25L87.04 69.25Q86.02 69.25 81.92 70.78L81.92 70.78Q77.82 72.06 74.30 72.26Q70.78 72.45 70.40 71.30L70.40 71.30Q69.76 69.25 83.20 65.02ZM91.65 103.17L91.65 103.17Q91.26 102.66 90.30 102.78Q89.34 102.91 87.74 103.36Q86.14 103.81 84.61 104.58L84.61 104.58Q76.29 108.03 71.68 112.64L71.68 112.64Q69.38 115.33 68.99 116.03Q68.61 116.74 69.89 118.02L69.89 118.02Q71.94 120.32 76.74 123.20Q81.54 126.08 83.46 126.08L83.46 126.08Q84.74 126.08 85.57 125.31Q86.40 124.54 87.30 122.37L87.30 122.37Q88.32 120.06 89.98 112.58Q91.65 105.09 91.65 103.17ZM50.18 49.66L61.18 44.42Q67.84 41.34 73.98 41.34L73.98 41.34Q78.21 41.34 79.42 41.60Q80.64 41.86 81.41 43.26L81.41 43.26Q82.18 44.93 80.96 46.85Q79.74 48.77 71.55 58.50L71.55 58.50Q52.74 80.13 49.79 85.50L49.79 85.50Q48.90 87.42 48 94.98L48 94.98Q45.82 110.59 46.72 119.81L46.72 119.81Q47.10 121.34 47.36 120.96L47.36 120.96Q48 119.55 49.28 119.55L49.28 119.55Q50.18 119.55 50.50 121.60Q50.82 123.65 50.18 126.27Q49.54 128.90 48.77 130.69L48.77 130.69Q45.44 135.94 42.50 131.33L42.50 131.33Q41.34 129.79 41.15 126.53Q40.96 123.26 41.34 112.90L41.34 112.90Q41.60 108.93 41.60 105.22Q41.60 101.50 41.60 99.46Q41.60 97.41 41.60 97.41L41.60 97.41Q40.58 97.41 32.51 109.18Q24.45 120.96 24.45 122.50L24.45 122.50Q24.45 123.01 22.14 125.25Q19.84 127.49 18.30 126.27Q16.77 125.06 17.02 123.97Q17.28 122.88 19.84 119.42L19.84 119.42Q22.66 115.46 26.11 110.27Q29.57 105.09 36.35 95.49L36.35 95.49Q41.34 88.58 42.30 86.53Q43.26 84.48 43.52 80.90L43.52 80.90Q43.52 75.26 45.06 75.14L45.06 75.14Q45.82 75.01 47.49 76.80L47.49 76.80Q49.02 78.46 50.05 77.70L50.05 77.70Q51.20 76.54 59.14 65.54L59.14 65.54Q65.79 55.81 68.74 51.97L68.74 51.97Q73.47 46.21 71.04 46.08L71.04 46.08Q68.74 46.08 60.16 50.18L60.16 50.18Q47.36 56.70 46.08 53.63L46.08 53.63Q45.82 53.25 45.82 53.12L45.82 53.12Q45.82 51.84 50.18 49.66L50.18 49.66Z"/>
</g>
<g transform="translate(1151.5940595703123,153.94422140625)">
<path fill="#ce30d5" d="M80.13 72.83Q80.38 66.30 80.83 65.22Q81.28 64.13 81.92 64.13L81.92 64.13Q83.46 64.13 84.74 65.86Q86.02 67.58 86.14 70.14L86.14 70.14L86.40 73.86L92.80 74.11Q96.77 74.37 97.98 74.69Q99.20 75.01 99.20 76.29L99.20 76.29Q99.20 77.82 96.96 79.36Q94.72 80.90 91.14 81.54L91.14 81.54Q87.68 81.79 86.85 83.26Q86.02 84.74 86.02 89.34L86.02 89.34Q86.02 92.54 84.61 98.05L84.61 98.05L83.46 103.30L86.40 102.78Q89.22 102.53 97.41 101.89L97.41 101.89Q104.06 101.50 106.43 102.40Q108.80 103.30 107.90 105.73L107.90 105.73Q107.65 106.75 106.05 107.01Q104.45 107.26 97.92 107.26L97.92 107.26Q88.45 107.26 74.50 110.21L74.50 110.21Q64.77 112.13 62.53 112.19Q60.29 112.26 58.37 111.23L58.37 111.23Q56.06 109.70 56.32 108.16Q56.58 106.62 63.10 106.37L63.10 106.37Q76.42 106.24 78.46 102.53L78.46 102.53Q78.85 101.38 79.49 96.90Q80.13 92.42 80.26 88.83Q80.38 85.25 80.26 84.74L80.26 84.74Q79.62 84.74 73.09 87.04L73.09 87.04Q61.70 91.01 61.70 87.94L61.70 87.94Q61.70 86.78 63.94 85.50Q66.18 84.22 73.86 81.54L73.86 81.54L80 79.10L80.13 72.83ZM50.05 51.46Q52.74 51.33 62.53 47.55Q72.32 43.78 75.20 44.03Q78.08 44.29 78.72 44.54L78.72 44.54Q79.62 44.93 79.23 46.98Q78.85 49.02 77.31 51.71Q75.78 54.40 74.11 55.68L74.11 55.68Q73.34 56.32 67.97 63.10L67.97 63.10L57.09 77.57L51.33 84.86L50.56 95.62Q49.41 109.57 49.54 114.82Q49.66 120.06 51.20 120.06L51.20 120.06Q52.10 120.06 52.22 121.66Q52.35 123.26 51.58 125.44Q50.82 127.62 49.41 128.90L49.41 128.90L47.62 130.82L45.82 128.38Q44.67 127.10 44.29 124.80Q43.90 122.50 44.16 115.46L44.16 115.46Q44.16 104.58 44.86 99.20Q45.57 93.82 44.93 93.31L44.93 93.31Q44.16 93.06 38.21 100.80Q32.26 108.54 28.42 114.30L28.42 114.30Q26.37 117.89 25.09 119.17Q23.81 120.45 22.40 120.45L22.40 120.45Q20.10 120.45 19.71 117.82Q19.33 115.20 21.38 114.69L21.38 114.69Q23.42 114.30 24 112.45Q24.58 110.59 34.69 97.79L34.69 97.79Q41.60 88.58 43.26 85.95Q44.93 83.33 45.06 80.26L45.06 80.26Q45.57 73.22 49.15 76.29L49.15 76.29Q50.56 77.44 52.54 75.26Q54.53 73.09 61.82 62.59L61.82 62.59Q69.38 51.58 68.48 50.82L68.48 50.82Q68.10 50.56 64.26 51.97L64.26 51.97Q59.26 53.50 55.04 55.68L55.04 55.68Q47.36 59.39 46.08 55.94L46.08 55.94Q45.57 54.40 46.78 52.93Q48 51.46 50.05 51.46L50.05 51.46Z"/>
</g>
<g transform="translate(0,307.8884428125)">
<path fill="#ce30d5" d="M21.38 84.35L21.38 84.35Q23.17 82.56 24.38 82.56Q25.60 82.56 28.16 83.97L28.16 83.97Q30.85 85.63 30.85 88.58L30.85 88.58Q30.85 91.39 29.12 92.99Q27.39 94.59 24.58 94.08L24.58 94.08Q21.12 93.70 19.90 90.37Q18.69 87.04 21.38 84.35ZM61.57 83.33L61.57 83.33Q63.74 81.28 67.26 81.47Q70.78 81.66 72.32 83.84L72.32 83.84Q75.26 88.32 71.81 91.65L71.81 91.65Q70.27 93.06 67.90 93.76Q65.54 94.46 64.64 93.70L64.64 93.70Q63.87 93.18 62.40 90.88Q60.93 88.58 60.42 86.91L60.42 86.91Q59.90 85.38 61.57 83.33ZM107.26 81.28L107.26 81.28Q109.44 81.02 109.95 80.64L109.95 80.64Q110.98 80.38 112.26 83.65Q113.54 86.91 113.41 88.70L113.41 88.70Q112.90 93.44 106.50 91.90L106.50 91.90Q102.53 90.75 102.02 88.96L102.02 88.96Q101.38 87.30 103.30 84.48Q105.22 81.66 107.26 81.28Z"/>
</g>
<g transform="translate(127.9548955078125,307.8884428125)">
<path fill="#ce30d5" d="M21.38 84.35L21.38 84.35Q23.17 82.56 24.38 82.56Q25.60 82.56 28.16 83.97L28.16 83.97Q30.85 85.63 30.85 88.58L30.85 88.58Q30.85 91.39 29.12 92.99Q27.39 94.59 24.58 94.08L24.58 94.08Q21.12 93.70 19.90 90.37Q18.69 87.04 21.38 84.35ZM61.57 83.33L61.57 83.33Q63.74 81.28 67.26 81.47Q70.78 81.66 72.32 83.84L72.32 83.84Q75.26 88.32 71.81 91.65L71.81 91.65Q70.27 93.06 67.90 93.76Q65.54 94.46 64.64 93.70L64.64 93.70Q63.87 93.18 62.40 90.88Q60.93 88.58 60.42 86.91L60.42 86.91Q59.90 85.38 61.57 83.33ZM107.26 81.28L107.26 81.28Q109.44 81.02 109.95 80.64L109.95 80.64Q110.98 80.38 112.26 83.65Q113.54 86.91 113.41 88.70L113.41 88.70Q112.90 93.44 106.50 91.90L106.50 91.90Q102.53 90.75 102.02 88.96L102.02 88.96Q101.38 87.30 103.30 84.48Q105.22 81.66 107.26 81.28Z"/>
</g>
</g>
</svg>