<?xml version="1.0" encoding="utf-8"?>
<!DOCTYPE svg PUBLIC "-//W3C//DTD SVG 1.1//EN" "http://www.w3.org/Graphics/SVG/1.1/DTD/svg11.dtd">
<svg version="1.1" xmlns="http://www.w3.org/2000/svg" width="1680.0477780175784" height="482.88665655029297" viewBox="0 0 1680.0477780175784 482.88665655029297">
<g>
<g>
<rect fill="#FFFFFF" width="0" height="0" />
</g>
<g transform="translate(0,0)">
<path fill="#ce30d5" d="M40.19 51.71L40.19 51.71Q43.39 48 45.82 51.71L45.82 51.71Q46.59 53.25 43.78 56.96L43.78 56.96Q41.98 59.01 40 62.66Q38.02 66.30 38.02 66.94L38.02 66.94Q38.02 67.20 39.30 66.94L39.30 66.94Q41.86 66.82 42.37 69.63Q42.88 72.45 41.86 80.90L41.86 80.90Q40.70 91.26 40.32 95.74L40.32 95.74L39.55 100.22L46.59 99.46Q52.22 98.94 53.57 99.78Q54.91 100.61 54.14 103.42L54.14 103.42Q53.76 105.09 52.80 105.41Q51.84 105.73 47.23 105.73L47.23 105.73Q41.34 105.73 40 107.33Q38.66 108.93 38.66 116.10L38.66 116.10Q38.40 121.98 37.38 123.84Q36.35 125.70 34.18 124.42L34.18 124.42Q30.46 122.50 32.26 112.38L32.26 112.38Q33.02 107.39 32.26 107.01Q31.49 106.62 22.78 108.03L22.78 108.03Q11.14 109.82 8.06 111.10L8.06 111.10Q6.53 111.87 5.82 111.55Q5.12 111.23 4.35 109.70L4.35 109.70Q3.58 108.42 3.58 107.39Q3.58 106.37 4.74 104.45L4.74 104.45Q6.53 101.12 8 99.46Q9.47 97.79 14.34 90.62L14.34 90.62L22.14 79.74Q24.83 75.78 24.83 74.88Q24.83 73.98 25.73 73.98Q26.62 73.98 27.78 70.78Q28.93 67.58 29.50 67.58Q30.08 67.58 34.11 60.80Q38.14 54.02 40.19 51.71ZM36.35 74.24L36.35 74.24Q36.61 72.58 36.61 71.23Q36.61 69.89 36.61 69.18Q36.61 68.48 36.61 68.48L36.61 68.48Q36.22 68.48 32 75.65L32 75.65Q23.55 89.34 15.87 98.82L15.87 98.82Q12.67 102.66 12.67 103.30L12.67 103.30Q13.06 103.55 15.23 103.49Q17.41 103.42 20.35 102.98Q23.30 102.53 24.58 101.89L24.58 101.89Q26.88 101.12 30.02 101.12Q33.15 101.12 33.54 100.29Q33.92 99.46 34.50 92.61Q35.07 85.76 35.65 82.94Q36.22 80.13 36.35 74.24Z"/>
</g>
<g transform="translate(58.007234375,0)">
<path fill="#ce30d5" d="M22.72 56.77Q27.14 56.19 28.03 55.87Q28.93 55.55 29.38 55.49Q29.82 55.42 33.28 57.98L33.28 57.98Q36.35 60.03 38.21 64.45Q40.06 68.86 41.98 78.46L41.98 78.46Q43.52 85.76 43.01 94.59Q42.50 103.42 40.58 108.80L40.58 108.80Q38.27 114.82 32.38 117.50Q26.50 120.19 20.10 118.53L20.10 118.53Q16.90 117.50 14.91 115.46Q12.93 113.41 9.98 108.16L9.98 108.16Q8.32 105.09 7.81 102.53Q7.30 99.97 7.17 93.18L7.17 93.18Q6.78 82.43 8.32 75.97Q9.86 69.50 9.28 68.61Q8.70 67.71 10.18 67.26Q11.65 66.82 11.65 65.54Q11.65 64.26 14.98 60.80Q18.30 57.34 22.72 56.77ZM29.82 63.49L29.82 63.49Q27.90 62.21 24.06 62.08L24.06 62.08Q21.38 62.08 20.61 62.66Q19.84 63.23 18.43 66.43L18.43 66.43Q12.93 78.85 13.82 93.70L13.82 93.70Q14.08 100.99 15.17 103.94Q16.26 106.88 19.71 110.08L19.71 110.08Q24.06 114.30 29.18 111.87L29.18 111.87Q33.54 109.95 34.94 106.18Q36.35 102.40 36.35 92.80L36.35 92.80Q36.22 81.66 34.56 73.66Q32.90 65.66 29.82 63.49Z"/>
</g>
<g transform="translate(108.23473437500002,0)">
<path fill="#ce30d5" d="M15.74 54.91Q24.06 55.04 30.21 54.21Q36.35 53.38 39.04 53.50L39.04 53.50Q40.83 53.50 41.41 54.14Q41.98 54.78 41.98 56.45L41.98 56.45Q41.98 59.39 39.55 60.54L39.55 60.54Q36.22 62.08 32.26 67.84Q28.29 73.60 26.11 79.87L26.11 79.87Q20.86 96.26 20.86 108.54L20.86 108.54Q20.86 116.10 20.03 118.78Q19.20 121.47 17.28 121.47L17.28 121.47Q14.46 121.47 13.95 118.98Q13.44 116.48 14.08 108.16L14.08 108.16Q15.36 97.66 16.64 92.42L16.64 92.42Q21.50 72.06 23.68 69.38L23.68 69.38Q25.60 66.94 25.60 66.05Q25.60 65.15 27.26 62.59L27.26 62.59L29.18 60.03L26.75 60.42Q14.72 61.82 9.86 61.25Q4.99 60.67 4.99 57.98L4.99 57.98Q4.99 55.94 6.91 55.36Q8.83 54.78 15.74 54.91L15.74 54.91Z"/>
</g>
<g transform="translate(0,153.96386150878905)">
<path fill="#ce30d5" d="M88.51 83.26Q90.24 82.69 90.82 81.34Q91.39 80 93.70 80L93.70 80Q95.23 80 95.62 80.58Q96 81.15 96 82.82Q96 84.48 96.70 85.25Q97.41 86.02 99.33 86.53L99.33 86.53Q102.53 87.68 105.09 90.62L105.09 90.62Q106.62 92.54 107.01 93.76Q107.39 94.98 107.01 97.66L107.01 97.66Q105.98 104.58 100.99 111.30Q96 118.02 89.09 122.11L89.09 122.11Q84.86 124.54 83.07 124.67Q81.28 124.80 79.87 122.62L79.87 122.62Q76.93 118.66 78.98 110.72L78.98 110.72Q80.13 105.73 80.26 104.45L80.26 104.45Q80.26 102.91 73.86 108.29L73.86 108.29Q72.19 109.82 70.78 111.36L70.78 111.36Q68.48 113.79 63.23 117.38Q57.98 120.96 55.04 121.86L55.04 121.86Q51.84 123.01 49.34 122.94Q46.85 122.88 46.21 121.47L46.21 121.47Q45.82 120.19 46.21 118.34Q46.59 116.48 47.36 116.48L47.36 116.48Q48 116.48 52.74 112.26L52.74 112.26Q57.34 108.03 55.42 108.29L55.42 108.29Q53.89 108.29 48.51 110.34L48.51 110.34Q41.09 113.41 39.42 115.26Q37.76 117.12 39.17 120.58L39.17 120.58Q40.06 122.88 39.10 124.80Q38.14 126.72 36.22 126.72L36.22 126.72Q33.92 126.72 31.04 117.70Q28.16 108.67 29.70 106.11L29.70 106.11Q30.85 104.45 30.34 103.04L30.34 103.04Q29.95 102.27 31.17 101.31Q32.38 100.35 35.84 98.82L35.84 98.82Q41.86 96.13 45.82 93.44L45.82 93.44Q59.90 84.22 59.65 89.60L59.65 89.60Q59.65 91.39 57.66 92.93Q55.68 94.46 48 98.30L48 98.30Q37.38 103.42 36.80 104.32Q36.22 105.22 34.56 105.22L34.56 105.22Q31.10 105.22 34.18 109.57L34.18 109.57L35.46 111.74L41.09 108.42Q45.31 106.11 53.06 103.36Q60.80 100.61 63.36 100.61L63.36 100.61Q68.10 100.61 65.28 106.75L65.28 106.75Q63.49 110.34 63.49 110.59L63.49 110.59Q63.49 112.13 70.02 106.75L70.02 106.75Q72.58 104.83 73.73 103.30L73.73 103.30L81.79 93.70Q86.78 88.06 86.78 85.95Q86.78 83.84 88.51 83.26ZM97.92 91.78L97.92 91.78Q95.23 90.37 93.31 90.37L93.31 90.37Q92.03 90.37 89.54 92.99Q87.04 95.62 85.50 98.69L85.50 98.69Q83.71 102.14 82.37 110.08Q81.02 118.02 82.05 118.66L82.05 118.66Q84.35 120.19 90.50 114.69Q96.64 109.18 99.33 103.42L99.33 103.42Q101.63 98.43 101.31 95.87Q100.99 93.31 97.92 91.78ZM49.92 80.26L49.92 80.26Q52.99 77.95 54.14 77.57Q55.30 77.18 56.83 78.08L56.83 78.08Q57.73 78.85 57.54 79.94Q57.34 81.02 55.94 82.37Q54.53 83.71 51.97 85.25L51.97 85.25Q42.62 90.37 40.13 91.33Q37.63 92.29 35.71 91.78L35.71 91.78Q33.15 90.75 33.28 89.41Q33.41 88.06 35.84 87.55L35.84 87.55Q41.98 86.14 49.92 80.26ZM108.16 67.20L108.16 67.20Q109.44 66.43 112.13 66.88Q114.82 67.33 114.82 68.35L114.82 68.35Q114.82 70.78 111.17 72.26Q107.52 73.73 98.69 75.01L98.69 75.01Q96.26 75.39 84.35 79.10L84.35 79.10Q66.18 84.86 64.90 81.41L64.90 81.41Q64.51 80.26 66.43 79.30Q68.35 78.34 74.62 76.80L74.62 76.80Q80.90 75.39 88.26 72.70Q95.62 70.02 101.18 68.86Q106.75 67.71 108.16 67.20ZM59.52 63.36L59.52 63.36Q65.79 60.03 66.94 62.98L66.94 62.98Q68.35 66.56 61.95 68.48L61.95 68.48L53.12 71.17Q48 72.70 37.25 77.31L37.25 77.31Q14.34 86.91 13.18 82.18L13.18 82.18Q13.18 81.54 13.18 80.77L13.18 80.77Q13.44 79.49 14.08 79.10Q14.72 78.72 16.51 78.85L16.51 78.85Q20.74 79.23 50.43 66.82L50.43 66.82Q52.74 65.79 54.40 65.54Q56.06 65.28 59.52 63.36ZM86.40 45.82L86.40 45.82Q89.09 44.80 89.98 44.93Q90.88 45.06 94.08 46.59L94.08 46.59Q97.92 48.26 97.92 50.11Q97.92 51.97 96.38 53.50Q94.85 55.04 93.57 54.40L93.57 54.40Q92.16 53.89 91.33 53.89Q90.50 53.89 90.50 52.16Q90.50 50.43 87.55 49.66L87.55 49.66Q85.63 49.02 84.80 48.38Q83.97 47.74 84.42 47.04Q84.86 46.34 86.40 45.82ZM50.05 41.73L50.05 41.73Q52.74 41.22 56.19 41.47Q59.65 41.73 61.06 42.50L61.06 42.50Q62.98 43.52 61.95 45.18L61.95 45.18Q59.90 48.64 52.74 46.21L52.74 46.21Q48.51 44.80 48.51 42.75L48.51 42.75Q48.51 41.98 50.05 41.73Z"/>
</g>
<g transform="translate(127.9548955078125,153.96386150878905)">
<path fill="#ce30d5" d="M66.43 85.25L66.43 85.25Q69.38 84.10 72.90 83.71Q76.42 83.33 78.34 84.10L78.34 84.10Q79.87 84.61 79.81 88Q79.74 91.39 78.21 94.59L78.21 94.59Q76.80 97.15 76.80 97.79Q76.80 98.43 78.21 99.84L78.21 99.84Q79.74 101.50 78.85 103.23Q77.95 104.96 77.31 104.58Q76.67 104.19 72.58 104.96L72.58 104.96Q66.69 106.37 65.34 104.32Q64 102.27 68.22 99.07L68.22 99.07Q70.66 97.15 72.51 94.34Q74.37 91.52 74.37 89.86L74.37 89.86Q74.37 88.45 70.14 89.22L70.14 89.22Q64.38 90.24 61.89 92.80Q59.39 95.36 59.39 100.22L59.39 100.22Q59.39 104.06 58.69 105.47Q57.98 106.88 56.06 106.88L56.06 106.88Q54.53 106.88 54.08 105.92Q53.63 104.96 52.86 101.50L52.86 101.50Q51.84 96.13 51.33 93.31L51.33 93.31Q50.69 91.01 50.69 88.96Q50.69 86.91 51.26 85.70Q51.84 84.48 52.61 84.61L52.61 84.61Q54.78 84.99 56.06 89.47L56.06 89.47Q56.32 89.98 56.51 90.30Q56.70 90.62 57.09 90.50Q57.47 90.37 57.92 89.98Q58.37 89.60 59.52 88.83L59.52 88.83Q62.59 86.53 66.43 85.25ZM40.70 46.59L40.70 46.59Q43.01 45.44 45.44 45.31Q47.87 45.18 48.77 46.34L48.77 46.34Q49.92 47.36 49.41 58.88L49.41 58.88Q48.77 70.40 50.18 70.40L50.18 70.40Q50.69 70.40 51.84 68.99L51.84 68.99Q52.61 68.22 53.50 67.97Q54.40 67.71 55.04 67.78Q55.68 67.84 55.68 68.61L55.68 68.61Q55.68 69.38 54.53 70.53L54.53 70.53Q48.26 76.93 48 82.18L48 82.18Q48 86.91 46.78 91.52Q45.57 96.13 44.16 96.90L44.16 96.90Q42.50 98.05 40.70 95.74L40.70 95.74Q39.04 93.70 39.04 92.93Q39.04 92.16 40.70 91.78L40.70 91.78Q42.62 91.14 42.62 88.70L42.62 88.70L42.62 86.02L39.42 89.09Q37.12 91.14 36.22 91.52Q35.33 91.90 34.18 91.14L34.18 91.14Q32.51 89.98 31.94 90.88Q31.36 91.78 30.72 106.11L30.72 106.11Q30.34 115.33 30.53 118.53Q30.72 121.73 31.74 123.78L31.74 123.78Q33.41 127.10 33.02 131.33L33.02 131.33Q32.90 134.02 32.51 134.66Q32.13 135.30 30.59 135.30Q29.06 135.30 28.48 134.34Q27.90 133.38 27.14 129.15L27.14 129.15Q24.58 115.33 28.03 78.08L28.03 78.08Q30.59 52.48 30.98 51.71L30.98 51.71Q31.74 50.82 33.34 50.88Q34.94 50.94 35.33 52.10L35.33 52.10Q35.97 53.25 35.20 57.41Q34.43 61.57 34.18 64.26L34.18 64.26Q34.18 65.79 34.69 66.24Q35.20 66.69 36.86 66.69L36.86 66.69Q41.47 66.69 42.88 70.53L42.88 70.53Q43.78 73.09 44.16 68.86L44.16 68.86Q44.42 66.56 44.54 62.08L44.54 62.08Q44.54 61.31 44.54 60.03L44.54 60.03Q44.80 52.48 44.42 51.33Q44.03 50.18 41.86 50.43L41.86 50.43Q41.47 50.56 41.34 50.56L41.34 50.56Q37.50 51.20 37.31 49.66Q37.12 48.13 40.70 46.59ZM38.66 71.55L38.66 71.55Q37.63 70.40 37.12 70.53L37.12 70.53Q34.56 71.17 33.98 72.13Q33.41 73.09 33.02 77.18L33.02 77.18Q31.87 87.17 32.90 87.55L32.90 87.55Q33.66 87.94 34.94 85.63L34.94 85.63Q35.97 84.48 37.12 82.18L37.12 82.18Q41.47 74.50 38.66 71.55ZM42.62 75.78Q42.88 77.57 43.33 76.29Q43.78 75.01 43.26 74.50L43.26 74.50Q43.01 74.24 42.88 74.62L42.88 74.62Q42.62 75.01 42.62 75.78L42.62 75.78ZM91.90 33.54L91.90 33.54Q93.44 32.51 95.81 32.70Q98.18 32.90 100.35 34.30L100.35 34.30Q101.63 35.07 101.95 35.90Q102.27 36.74 101.89 39.30L101.89 39.30Q100.35 49.66 99.97 81.92Q99.58 114.18 100.86 125.57L100.86 125.57Q101.25 129.92 101.18 131.46Q101.12 132.99 100.10 133.76L100.10 133.76Q97.02 136.32 93.95 130.18L93.95 130.18Q91.26 124.42 93.82 124.80L93.82 124.80Q94.21 124.80 94.59 124.93L94.59 124.93Q95.74 125.31 95.49 124.16L95.49 124.16Q95.49 123.65 95.36 122.50L95.36 122.50Q94.59 119.42 94.72 93.44L94.72 93.44L94.98 67.46L92.42 68.22Q89.73 68.86 87.49 70.59Q85.25 72.32 83.07 71.94Q80.90 71.55 80.64 72.06L80.64 72.06Q80.26 75.78 79.23 77.06Q78.21 78.34 76.67 76.93L76.67 76.93Q75.52 76.03 75.33 73.22Q75.14 70.40 75.65 60.03L75.65 60.03Q76.29 44.29 76.74 42.94Q77.18 41.60 79.74 41.60L79.74 41.60Q81.28 41.60 81.54 42.37Q81.79 43.14 81.66 47.10L81.66 47.10L81.28 52.74L84.10 51.97Q88.58 51.20 90.11 51.46Q91.65 51.71 91.90 53.63L91.90 53.63Q92.29 56.19 90.82 57.73Q89.34 59.26 89.34 59.78L89.34 59.78Q89.34 60.80 87.62 62.34Q85.89 63.87 84.86 63.87L84.86 63.87Q84.10 63.87 83.84 63.30Q83.58 62.72 83.84 61.82Q84.10 60.93 85.12 60.16L85.12 60.16Q86.78 58.62 86.40 57.47Q86.02 56.32 83.71 56.58L83.71 56.58Q82.05 56.70 81.66 57.47Q81.28 58.24 81.02 61.18L81.02 61.18Q80.90 64 81.15 64.90Q81.41 65.79 82.82 66.18L82.82 66.18Q84.86 66.56 86.40 65.15L86.40 65.15Q87.81 64 90.82 63.94Q93.82 63.87 94.21 65.15L94.21 65.15Q94.59 66.18 95.10 54.27L95.10 54.27Q95.36 53.50 95.36 52.48L95.36 52.48Q95.87 38.91 95.42 37.44Q94.98 35.97 92.67 36.61L92.67 36.61Q91.14 36.74 90.56 36.48Q89.98 36.22 90.37 35.33Q90.75 34.43 91.90 33.54Z"/>
</g>
<g transform="translate(255.909791015625,153.96386150878905)">
<path fill="#ce30d5" d="M73.47 75.26L73.47 75.26Q84.74 69.63 89.86 71.49Q94.98 73.34 97.28 83.71L97.28 83.71Q99.20 91.39 97.09 100.93Q94.98 110.46 90.11 114.94L90.11 114.94Q87.94 117.38 86.78 117.70Q85.63 118.02 81.28 117.50L81.28 117.50Q68.86 116.22 67.07 109.31L67.07 109.31Q66.43 106.11 66.94 102.91L66.94 102.91Q67.58 99.71 71.17 95.74Q74.75 91.78 77.44 91.14L77.44 91.14Q80.51 90.62 84.22 92.67Q87.94 94.72 89.86 98.18L89.86 98.18L91.52 101.50L92.29 96.13Q93.44 86.91 90.11 80.26L90.11 80.26Q88.96 77.44 88.13 76.93Q87.30 76.42 84.61 76.54L84.61 76.54Q81.28 76.67 75.33 79.42Q69.38 82.18 64.38 85.50L64.38 85.50L59.65 88.96L59.65 97.15Q59.39 105.47 57.34 110.08L57.34 110.08Q55.55 114.30 52.29 117.50Q49.02 120.70 47.62 120.19L47.62 120.19Q46.21 119.55 45.25 116.99Q44.29 114.43 44.29 111.23Q44.29 108.03 46.59 100.67Q48.90 93.31 50.43 91.78L50.43 91.78Q52.86 88.96 50.43 87.04L50.43 87.04Q49.02 86.27 47.36 87.94Q45.70 89.60 44.29 93.31L44.29 93.31Q40.58 103.94 38.78 103.94L38.78 103.94Q37.38 103.94 38.27 100.48L38.27 100.48Q38.78 98.43 40.70 92.67L40.70 92.67Q43.65 83.84 46.21 82.43L46.21 82.43Q48.38 81.28 50.75 81.73Q53.12 82.18 54.78 83.84L54.78 83.84Q55.94 84.86 56.83 84.61Q57.73 84.35 60.54 82.43L60.54 82.43Q64.90 79.36 73.47 75.26ZM54.27 100.10L54.27 100.10Q54.78 95.36 53.89 95.62L53.89 95.62Q52.35 95.87 50.43 104.70L50.43 104.70Q49.02 110.46 49.79 110.98L49.79 110.98Q50.56 111.36 51.39 109.70Q52.22 108.03 53.12 105.28Q54.02 102.53 54.27 100.10ZM83.07 99.46L83.07 99.46Q81.15 97.54 78.78 97.41Q76.42 97.28 74.75 98.94L74.75 98.94Q70.27 104.19 72.13 108.22Q73.98 112.26 80.90 112.26L80.90 112.26Q87.30 112.26 89.86 105.60L89.86 105.60Q90.75 103.30 90.11 103.30L90.11 103.30Q89.98 103.30 89.22 103.55L89.22 103.55Q87.94 104.32 86.53 104.13Q85.12 103.94 85.12 102.78L85.12 102.78Q85.12 101.38 83.07 99.46ZM36.99 57.47L36.99 57.47Q37.50 55.55 38.08 54.98Q38.66 54.40 39.94 54.66L39.94 54.66Q41.22 54.78 41.47 55.49Q41.73 56.19 41.73 58.62L41.73 58.62Q41.73 63.10 38.91 82.56Q36.10 102.02 35.20 105.22L35.20 105.22Q34.82 106.62 36.16 106.62Q37.50 106.62 36.86 109.82L36.86 109.82Q35.71 113.66 35.01 114.94Q34.30 116.22 32.51 116.22L32.51 116.22Q30.59 116.22 30.21 115.01Q29.82 113.79 29.95 109.06L29.95 109.06Q30.34 99.71 33.92 80.26L33.92 80.26Q34.82 75.26 35.39 67.90Q35.97 60.54 36.99 57.47Z"/>
</g>
<g transform="translate(383.8646865234375,153.96386150878905)">
<path fill="#ce30d5" d="M67.84 126.85L67.84 126.85Q68.35 125.70 71.17 126.14Q73.98 126.59 77.89 128.64Q81.79 130.69 83.71 132.74L83.71 132.74Q85.89 135.04 85.50 137.54Q85.12 140.03 82.43 140.42L82.43 140.42Q80.90 140.67 80.38 140.29Q79.87 139.90 79.87 138.50L79.87 138.50Q79.87 135.04 75.26 133.76L75.26 133.76Q73.22 132.99 70.53 130.56Q67.84 128.13 67.84 126.85ZM77.95 65.15L77.95 65.15Q103.42 63.74 103.42 67.84L103.42 67.84Q103.42 69.50 100.54 71.04Q97.66 72.58 96.51 71.68L96.51 71.68Q95.36 70.66 81.79 69.76L81.79 69.76Q66.82 68.61 66.82 67.07L66.82 67.07Q66.82 66.69 67.20 66.30L67.20 66.30Q67.97 65.54 77.95 65.15ZM29.82 43.39L29.82 43.39Q31.87 42.11 33.60 43.46Q35.33 44.80 38.02 49.92L38.02 49.92Q39.55 52.99 39.68 56.38Q39.81 59.78 38.27 60.16L38.27 60.16Q37.89 60.29 37.12 59.33Q36.35 58.37 35.71 57.09L35.71 57.09Q34.43 53.38 31.42 48.77Q28.42 44.16 29.82 43.39ZM62.98 28.80L62.98 28.80Q67.84 25.98 67.46 29.95L67.46 29.95Q67.07 32.64 64.38 38.02L64.38 38.02Q61.06 44.54 61.44 44.80L61.44 44.80Q61.82 44.80 62.85 44.16L62.85 44.16Q69.76 39.55 77.31 37.38Q84.86 35.20 88.83 36.74L88.83 36.74Q93.44 38.40 84.86 46.85L84.86 46.85Q83.20 48.64 80.64 50.69L80.64 50.69Q75.65 54.91 69.89 59.07Q64.13 63.23 63.62 63.23L63.62 63.23Q63.23 63.23 58.69 68.03Q54.14 72.83 53.38 74.11L53.38 74.11Q52.61 75.65 52.22 78.85L52.22 78.85L51.84 81.92L56.83 81.28Q64.13 80.51 65.79 80.70Q67.46 80.90 67.58 82.30L67.58 82.30Q67.97 83.97 64.51 87.42L64.51 87.42L61.06 90.88L63.62 91.52Q66.05 92.29 65.98 94.59Q65.92 96.90 62.98 100.10L62.98 100.10Q60.16 103.42 60.74 104Q61.31 104.58 65.54 102.53Q69.76 100.48 71.68 100.48L71.68 100.48Q72.83 100.48 73.09 99.71Q73.34 98.94 72.96 95.74L72.96 95.74Q72.58 90.75 72.19 85.12L72.19 85.12Q72.06 80 71.10 78.21Q70.14 76.42 66.82 75.52L66.82 75.52Q63.36 74.50 60.93 75.90L60.93 75.90Q57.86 77.44 57.09 76.29Q56.32 75.14 58.75 72.96L58.75 72.96Q61.44 70.66 66.05 70.66L66.05 70.66Q70.66 70.66 72.90 71.62Q75.14 72.58 76.03 75.14L76.03 75.14Q77.44 78.46 78.08 98.43Q78.72 118.40 77.82 121.60L77.82 121.60Q76.29 126.08 71.42 121.22L71.42 121.22Q67.97 118.14 68.74 116.22L68.74 116.22Q69.12 115.46 70.53 116.22L70.53 116.22Q72.58 117.38 72.96 116.74Q73.34 116.10 73.34 111.23L73.34 111.23L73.22 105.09L67.46 111.49Q61.82 117.76 56.26 122.88Q50.69 128 47.87 130.82L47.87 130.82Q42.62 136.06 41.86 134.14L41.86 134.14Q41.73 133.89 41.73 133.76L41.73 133.76Q41.73 131.58 52.86 119.30L52.86 119.30Q59.78 111.62 59.01 111.62L59.01 111.62Q57.60 111.62 55.30 113.34Q52.99 115.07 52.99 116.22L52.99 116.22Q52.99 118.02 51.65 119.17Q50.30 120.32 48.90 120Q47.49 119.68 46.85 118.14L46.85 118.14Q46.34 116.22 46.34 99.58L46.34 99.58Q46.34 87.81 46.02 85.31Q45.70 82.82 44.42 82.43L44.42 82.43Q40.70 81.54 45.57 75.52L45.57 75.52Q49.02 71.30 53.50 64.96Q57.98 58.62 61.06 53.89Q64.13 49.15 63.62 49.15L63.62 49.15Q63.23 49.15 60.61 51.58Q57.98 54.02 54.27 55.74Q50.56 57.47 46.46 64.13L46.46 64.13Q36.48 79.74 32.77 84.29Q29.06 88.83 26.11 88.19L26.11 88.19Q25.22 88.06 24.90 86.98Q24.58 85.89 24.83 82.82L24.83 82.82Q24.96 77.31 26.88 76.42L26.88 76.42Q27.90 76.29 28.42 77.82L28.42 77.82Q28.67 78.46 28.80 79.36L28.80 79.36Q29.06 80.90 34.18 73.98L34.18 73.98Q38.02 68.74 46.72 55.94L46.72 55.94Q61.31 34.18 61.31 31.10L61.31 31.10Q61.31 29.82 62.98 28.80ZM77.18 46.34L77.18 46.34Q82.94 41.09 81.79 41.09L81.79 41.09Q81.02 40.96 77.57 42.11L77.57 42.11Q68.22 45.57 68.74 47.62L68.74 47.62Q69.76 48.64 69.76 50.37Q69.76 52.10 70.40 51.97Q71.04 51.84 77.18 46.34ZM56.45 86.53L56.45 86.53Q53.38 85.50 52.74 86.02Q52.10 86.53 52.10 89.60L52.10 89.60L52.10 93.44L55.30 90.11Q58.37 87.30 57.60 86.91L57.60 86.91Q57.47 86.66 56.45 86.53ZM55.68 100.86L55.68 100.86Q55.68 100.74 55.62 100.61Q55.55 100.48 55.17 100.61Q54.78 100.74 54.21 100.80Q53.63 100.86 52.61 101.12L52.61 101.12Q51.07 101.50 51.07 103.55L51.07 103.55Q51.07 104.96 51.39 104.96Q51.71 104.96 53.38 103.42L53.38 103.42Q55.68 101.25 55.68 100.86Z"/>
</g>
<g transform="translate(511.81958203125,153.96386150878905)">
<path fill="#ce30d5" d="M15.49 96.51L15.49 96.51Q15.87 94.46 16.64 93.70Q17.41 92.93 18.11 94.08Q18.82 95.23 18.82 97.28L18.82 97.28Q18.82 100.99 20.80 105.15Q22.78 109.31 24.32 109.31L24.32 109.31Q25.98 109.31 28.03 112.83Q30.08 116.35 29.44 118.27L29.44 118.27Q28.93 120.70 27.01 120.51Q25.09 120.32 22.66 117.50L22.66 117.50Q18.56 112.77 16.51 106.94Q14.46 101.12 15.49 96.51ZM20.61 66.43L20.61 66.43Q22.14 63.36 22.91 66.43L22.91 66.43Q23.30 67.58 23.30 68.99L23.30 68.99Q23.30 72.19 25.60 75.14L25.60 75.14Q27.39 77.06 27.84 78.78Q28.29 80.51 28.03 84.22L28.03 84.22Q28.03 86.40 26.62 87.81Q25.22 89.22 23.55 88.58L23.55 88.58Q22.14 88.06 22.72 85.63Q23.30 83.20 21.50 79.10L21.50 79.10Q17.79 71.04 20.61 66.43ZM94.59 60.80L94.59 60.80Q97.54 60.16 102.53 60.29L102.53 60.29Q105.98 60.29 106.94 60.74Q107.90 61.18 108.03 62.72L108.03 62.72Q108.16 64.51 106.50 67.07Q104.83 69.63 101.25 76.22Q97.66 82.82 94.78 86.40Q91.90 89.98 91.39 94.85L91.39 94.85Q90.88 99.84 91.78 99.84L91.78 99.84Q91.90 99.84 92.67 99.71L92.67 99.71Q94.59 98.94 101.70 98.94Q108.80 98.94 110.91 99.58Q113.02 100.22 113.02 103.04L113.02 103.04Q113.02 104.70 111.81 105.86Q110.59 107.01 106.50 109.82L106.50 109.82Q95.36 116.86 93.18 116.86L93.18 116.86Q92.16 116.86 93.18 114.56L93.18 114.56Q93.95 113.41 94.59 113.15L94.59 113.15Q95.62 112.38 100.48 108.67L100.48 108.67Q104.06 105.73 104.51 104.96Q104.96 104.19 103.94 103.42L103.94 103.42Q102.14 102.14 97.02 102.59Q91.90 103.04 91.58 103.30Q91.26 103.55 90.75 111.49L90.75 111.49Q89.86 125.31 86.27 125.31L86.27 125.31Q82.69 125.31 73.98 117.63L73.98 117.63Q69.25 113.28 67.58 113.28L67.58 113.28Q65.66 113.28 64.13 112.06Q62.59 110.85 62.59 109.44L62.59 109.44Q62.59 107.90 65.98 107.39Q69.38 106.88 77.06 104.19L77.06 104.19L84.86 101.50L84.86 97.15L84.86 92.67L82.30 93.95Q79.74 95.23 75.84 95.30Q71.94 95.36 70.91 94.08L70.91 94.08Q69.76 92.80 68.48 74.75L68.48 74.75Q67.71 66.56 68.86 65.15L68.86 65.15Q70.78 62.85 71.55 66.43L71.55 66.43Q71.94 67.97 72.06 71.04L72.06 71.04Q72.96 77.57 73.47 77.57Q73.98 77.57 76.03 74.11L76.03 74.11Q77.44 71.55 83.90 67.07Q90.37 62.59 94.59 60.80ZM101.50 64.38L101.50 64.38Q101.63 63.74 100.48 63.62L100.48 63.62Q96.26 63.23 92.67 65.28L92.67 65.28Q85.38 69.38 82.56 71.42Q79.74 73.47 78.59 75.52L78.59 75.52Q76.93 78.59 77.63 79.17Q78.34 79.74 83.20 77.95Q88.06 76.16 89.47 76.54L89.47 76.54Q90.75 77.06 90.30 78.46Q89.86 79.87 87.94 80.51L87.94 80.51Q85.38 81.41 82.18 83.20Q78.98 84.99 77.82 84.48L77.82 84.48Q77.06 84.35 76.80 84.93Q76.54 85.50 76.54 86.91L76.54 86.91Q76.54 88.70 76.93 89.15Q77.31 89.60 79.62 89.47L79.62 89.47Q84.22 88.96 87.81 85.76Q91.39 82.56 95.74 74.75L95.74 74.75Q101.12 65.15 101.50 64.38ZM84.35 116.86L85.12 109.82Q85.50 106.37 85.31 105.54Q85.12 104.70 84.10 104.70L84.10 104.70Q82.18 104.70 77.25 107.46Q72.32 110.21 72.32 111.36L72.32 111.36Q72.32 112.38 77.31 116.03Q82.30 119.68 83.33 119.42L83.33 119.42Q84.22 119.17 84.35 116.86L84.35 116.86ZM80.38 50.30L80.38 50.30Q84.35 47.36 86.78 50.18L86.78 50.18Q88.06 51.84 85.89 54.98Q83.71 58.11 78.98 60.67L78.98 60.67Q72.32 64.38 72.32 62.72L72.32 62.72Q72.32 61.44 75.39 59.14L75.39 59.14Q77.82 57.34 78.46 56.26Q79.10 55.17 78.59 54.14L78.59 54.14Q78.08 51.71 80.38 50.30ZM34.05 42.11L34.05 42.11L31.10 39.55L34.18 39.55Q36.99 39.42 40.70 42.62L40.70 42.62Q42.88 44.80 43.39 45.95Q43.90 47.10 43.52 49.02L43.52 49.02Q42.11 54.91 36.74 55.17L36.74 55.17Q33.54 55.17 33.54 54.72Q33.54 54.27 36.10 51.07L36.10 51.07Q38.02 48.38 37.76 46.59Q37.50 44.80 34.05 42.11ZM81.54 32L81.54 32Q87.04 29.82 88.51 29.50Q89.98 29.18 91.39 30.08L91.39 30.08Q92.54 30.72 91.90 32.77Q91.26 34.82 89.60 34.94L89.60 34.94Q85.76 35.20 80.64 36.86L80.64 36.86Q78.08 37.89 77.50 38.53Q76.93 39.17 77.06 41.09L77.06 41.09Q77.44 44.03 73.22 51.33Q68.99 58.62 61.95 76.80L61.95 76.80Q46.34 116.99 44.54 119.55L44.54 119.55Q43.90 120.96 39.04 132.22Q34.18 143.49 32.70 144.70Q31.23 145.92 30.46 145.02Q29.70 144.13 30.72 142.40Q31.74 140.67 37.12 127.62Q42.50 114.56 43.26 112.26Q44.03 109.95 45.18 107.01L45.18 107.01Q46.72 103.17 52.74 87.04L52.74 87.04Q61.31 63.10 70.14 45.70L70.14 45.70Q72.32 41.09 71.55 40.51Q70.78 39.94 65.02 41.98L65.02 41.98Q60.54 43.52 59.26 42.24L59.26 42.24Q56.32 39.94 63.10 38.14L63.10 38.14Q63.74 37.89 64.90 37.63L64.90 37.63Q70.14 36.35 70.53 35.58Q70.91 34.82 73.02 34.82Q75.14 34.82 81.54 32Z"/>
</g>
<g transform="translate(639.7744775390624,153.96386150878905)">
<path fill="#ce30d5" d="M88.96 92.03L88.96 92.03Q96.13 91.39 97.66 91.90L97.66 91.90Q103.42 93.31 104.96 95.87Q106.50 98.43 104.70 103.42L104.70 103.42Q102.14 110.59 95.62 116.35Q89.09 122.11 81.41 124.29L81.41 124.29L76.16 125.82L76.16 131.07Q75.90 136.19 76.16 136.96L76.16 136.96Q76.29 138.11 74.56 140.74Q72.83 143.36 71.81 143.36L71.81 143.36Q70.78 143.36 70.53 142.08Q70.27 140.80 70.66 133.25L70.66 133.25L70.66 125.82L67.20 123.52Q64 121.22 60.99 117.06Q57.98 112.90 57.66 114.05Q57.34 115.20 59.01 117.12L59.01 117.12Q59.90 118.27 60.10 119.04Q60.29 119.81 59.39 121.73L59.39 121.73Q58.37 124.16 57.22 124.42Q56.06 124.67 54.02 123.26L54.02 123.26Q52.10 121.73 51.46 115.97L51.46 115.97L50.82 110.21L47.62 113.41Q44.42 116.61 44.42 118.91L44.42 118.91Q44.42 124.80 41.86 125.82L41.86 125.82Q40.19 126.72 38.98 125.18Q37.76 123.65 37.76 120.96L37.76 120.96Q37.76 117.63 36.61 112L36.61 112Q35.20 106.24 35.20 104.19Q35.20 102.14 36.86 102.14L36.86 102.14Q39.94 102.14 41.22 107.26L41.22 107.26Q41.73 109.57 42.43 110.14Q43.14 110.72 48.26 106.43Q53.38 102.14 54.34 102.14Q55.30 102.14 62.21 99.07L62.21 99.07Q74.37 93.44 88.96 92.03ZM98.94 97.92L98.94 97.92Q97.41 96.51 89.98 96.51Q82.56 96.51 79.49 97.79L79.49 97.79L76.80 98.94L76.29 109.82Q76.16 117.12 76.35 118.98Q76.54 120.83 77.44 120.83L77.44 120.83Q78.85 120.83 83.26 118.66Q87.68 116.48 89.86 114.69L89.86 114.69Q91.65 112.90 94.91 108.67Q98.18 104.45 99.33 101.89L99.33 101.89Q100.35 100.10 100.29 99.39Q100.22 98.69 98.94 97.92ZM70.66 121.22L70.66 111.23Q70.66 101.50 69.89 100.99L69.89 100.99Q69.12 100.48 61.44 103.68L61.44 103.68L58.37 105.09L60.93 109.82Q63.62 114.43 67.07 117.76L67.07 117.76L70.66 121.22ZM27.14 65.28Q27.90 61.57 29.38 59.84Q30.85 58.11 32.26 58.62L32.26 58.62Q34.56 59.14 32.13 69.76L32.13 69.76Q30.85 76.29 26.62 81.92Q22.40 87.55 19.84 86.66L19.84 86.66Q18.05 86.02 18.43 83.65Q18.82 81.28 21.25 78.46L21.25 78.46Q25.86 72.96 27.14 65.28L27.14 65.28ZM67.20 32.77L67.20 32.77Q69.89 31.23 71.87 31.55Q73.86 31.87 73.98 33.79L73.98 33.79Q74.37 35.20 73.22 36.54Q72.06 37.89 70.27 38.27L70.27 38.27Q65.54 39.04 64.83 40.06Q64.13 41.09 64.64 46.46L64.64 46.46Q65.28 53.50 65.92 53.63L65.92 53.63Q66.18 53.63 66.69 53.12L66.69 53.12Q67.58 51.71 70.40 49.79Q73.22 47.87 74.37 47.87L74.37 47.87Q76.16 47.87 77.44 49.66L77.44 49.66Q78.72 50.56 79.87 50.50Q81.02 50.43 85.76 49.66L85.76 49.66Q92.42 47.87 100.61 47.36L100.61 47.36L108.80 46.85L109.44 49.28Q110.85 55.04 98.18 61.18L98.18 61.18Q90.50 65.02 89.41 65.02Q88.32 65.02 84.86 66.30L84.86 66.30Q82.69 67.07 82.37 67.65Q82.05 68.22 82.82 69.50L82.82 69.50Q84.22 71.55 82.56 73.28Q80.90 75.01 74.75 78.46L74.75 78.46Q68.74 81.41 68.61 82.30L68.61 82.30Q68.61 82.56 69.50 83.07L69.50 83.07Q71.42 84.48 71.42 85.76L71.42 85.76Q71.42 87.42 67.78 91.58Q64.13 95.74 61.82 96.51L61.82 96.51Q58.88 97.92 57.73 99.07L57.73 99.07Q56.32 100.48 54.59 100.42Q52.86 100.35 52.86 98.94L52.86 98.94Q52.86 97.66 54.98 96.58Q57.09 95.49 60.29 91.90L60.29 91.90Q63.49 88.06 61.44 88.19L61.44 88.19Q60.29 88.19 56.45 90.37L56.45 90.37Q49.92 94.72 49.28 91.90L49.28 91.90Q49.02 91.65 49.02 91.26L49.02 91.26Q49.28 90.11 52.86 87.30Q56.45 84.48 57.98 84.48L57.98 84.48Q59.39 84.48 73.73 73.98L73.73 73.98L75.90 72.06L73.73 70.14Q72.06 68.99 71.68 67.78Q71.30 66.56 71.68 63.36L71.68 63.36L71.81 58.11L69.25 58.75Q65.92 59.52 65.02 61.44Q64.13 63.36 64 69.63L64 69.63Q63.74 76.03 62.98 77.89Q62.21 79.74 59.52 79.74L59.52 79.74Q57.98 79.74 57.79 79.23Q57.60 78.72 57.86 76.03L57.86 76.03Q58.50 72.19 57.60 72.32L57.60 72.32Q56.45 72.83 54.02 76.54L54.02 76.54Q49.02 85.50 45.06 83.71L45.06 83.71Q44.29 82.69 43.84 81.22Q43.39 79.74 43.39 74.88L43.39 74.88L43.39 67.46L40.19 67.97Q36.86 68.48 36.86 67.84L36.86 67.84Q37.12 65.02 49.41 60.67L49.41 60.67Q53.89 59.14 54.98 58.56Q56.06 57.98 57.47 57.86Q58.88 57.73 58.88 49.92L58.88 49.92Q58.88 44.16 58.56 43.07Q58.24 41.98 56.83 42.24L56.83 42.24Q54.78 42.62 52.80 41.47Q50.82 40.32 50.82 39.23Q50.82 38.14 54.34 37.38Q57.86 36.61 59.78 35.58Q61.70 34.56 62.98 34.50Q64.26 34.43 67.20 32.77ZM98.94 54.27L98.94 54.27L101.89 51.84L99.33 51.97Q94.34 51.97 82.05 55.04L82.05 55.04Q78.98 55.81 77.44 60.80L77.44 60.80Q76.54 64.77 78.85 64.51L78.85 64.51Q82.56 63.74 88.96 60.54Q95.36 57.34 98.94 54.27ZM50.82 73.73Q52.61 72.19 55.42 67.65Q58.24 63.10 57.34 63.10L57.34 63.10Q55.30 63.23 51.97 64.45Q48.64 65.66 48.77 66.05L48.77 66.05Q49.02 66.56 49.02 71.04L49.02 71.04Q49.02 74.75 49.54 74.75L49.54 74.75Q49.92 74.75 50.82 73.73L50.82 73.73Z"/>
</g>
<g transform="translate(767.7293730468749,153.96386150878905)">
<path fill="#ce30d5" d="M75.01 50.30L75.01 50.30Q77.57 47.62 80.45 49.73Q83.33 51.84 83.33 56.06L83.33 56.06Q83.33 56.06 83.33 56.19L83.33 56.19Q83.33 58.75 84.61 58.94Q85.89 59.14 93.82 57.47L93.82 57.47Q94.21 57.47 94.34 57.34L94.34 57.34Q108.54 54.40 109.82 56.32L109.82 56.32Q110.72 57.73 108.99 60.48Q107.26 63.23 103.94 65.41L103.94 65.41Q98.82 68.99 83.84 74.88L83.84 74.88Q81.28 75.90 81.28 78.08Q81.28 80.26 76.10 85.82Q70.91 91.39 70.02 93.18L70.02 93.18Q69.25 94.59 70.02 94.59L70.02 94.59Q70.53 94.59 72.06 94.08L72.06 94.08Q75.14 93.44 78.02 93.06Q80.90 92.67 82.82 90.24L82.82 90.24Q84.35 88.32 86.53 88.13Q88.70 87.94 89.34 89.47L89.34 89.47Q89.86 90.88 91.26 90.37L91.26 90.37Q92.93 89.98 102.85 89.47Q112.77 88.96 115.33 89.47L115.33 89.47Q118.66 90.11 118.66 91.90L118.66 91.90Q118.66 94.08 116.48 94.66Q114.30 95.23 107.52 94.72L107.52 94.72Q98.69 94.08 94.21 94.85L94.21 94.85Q91.26 95.36 90.30 96Q89.34 96.64 88.70 98.94L88.70 98.94Q87.81 102.14 83.58 108.16L83.58 108.16Q82.18 110.08 81.54 111.30Q80.90 112.51 80.64 113.28Q80.38 114.05 80.51 114.30Q80.64 114.56 81.02 114.94L81.02 114.94Q91.52 118.53 92.93 119.81L92.93 119.81Q93.82 120.70 96.26 121.22L96.26 121.22Q98.82 121.98 112.38 131.20L112.38 131.20Q113.28 131.71 112.06 134.66Q110.85 137.60 109.82 137.60L109.82 137.60Q108.42 137.60 107.01 135.17L107.01 135.17Q103.55 130.30 89.73 124.29L89.73 124.29Q80.38 120.19 76.48 119.49Q72.58 118.78 68.61 120.06L68.61 120.06Q65.66 120.96 61.31 121.66Q56.96 122.37 53.95 122.37Q50.94 122.37 50.69 121.73L50.69 121.73Q50.69 120.83 54.53 120.19L54.53 120.19Q57.73 119.68 62.14 118.02Q66.56 116.35 66.30 115.33L66.30 115.33Q66.30 114.56 62.59 112Q58.88 109.44 58.37 106.88L58.37 106.88Q57.60 104.06 56.96 103.74Q56.32 103.42 53.76 104.19L53.76 104.19Q48 106.37 31.49 110.85L31.49 110.85Q22.02 113.54 18.82 114.56L18.82 114.56Q13.31 116.86 10.24 114.30L10.24 114.30Q8.45 112.64 10.50 111.10L10.50 111.10Q11.65 109.82 22.91 107.71Q34.18 105.60 41.22 103.55Q48.26 101.50 54.02 99.71L54.02 99.71Q57.73 98.69 59.39 97.66Q61.06 96.64 62.46 94.34L62.46 94.34Q67.84 86.40 66.56 86.27L66.56 86.27Q66.05 86.27 64.64 87.04L64.64 87.04Q62.72 88.19 61.44 86.53L61.44 86.53Q59.01 84.48 62.85 81.66L62.85 81.66Q64.26 80.90 66.82 76.99Q69.38 73.09 71.36 69.44Q73.34 65.79 72.96 65.66L72.96 65.66Q72.06 65.15 68.10 65.41L68.10 65.41Q62.46 66.05 65.66 71.17L65.66 71.17Q66.94 73.09 65.66 74.88L65.66 74.88Q64.64 76.54 63.36 76.54Q62.08 76.54 60.80 74.75Q59.52 72.96 58.50 69.76L58.50 69.76Q58.37 69.25 58.18 68.99Q57.98 68.74 57.73 68.74Q57.47 68.74 57.22 69.12Q56.96 69.50 56.06 70.27L56.06 70.27Q53.12 73.98 55.81 80.38L55.81 80.38Q56.96 83.07 56.64 85.63Q56.32 88.19 55.04 88.19L55.04 88.19Q54.02 88.19 52.35 86.53Q50.69 84.86 50.69 83.97L50.69 83.97Q50.69 82.94 47.23 77.44L47.23 77.44Q45.06 74.11 44.54 72.32Q44.03 70.53 44.16 67.07L44.16 67.07Q44.29 62.59 45.63 62.40Q46.98 62.21 48.64 66.82L48.64 66.82L50.18 71.17L54.02 67.84Q57.73 64.26 57.09 62.46L57.09 62.46Q56.32 60.67 57.15 58.43Q57.98 56.19 59.01 56.32L59.01 56.32Q60.29 56.83 61.57 59.52L61.57 59.52Q62.46 61.57 64 61.82Q65.54 62.08 71.42 60.67L71.42 60.67Q75.52 59.90 76.42 59.33Q77.31 58.75 77.57 56.70L77.57 56.70Q77.57 54.78 77.18 54.14Q76.80 53.50 75.78 53.50L75.78 53.50Q74.37 53.50 74.05 52.67Q73.73 51.84 75.01 50.30ZM96.90 63.36L96.90 63.36L98.94 61.18Q98.69 61.18 94.40 61.95Q90.11 62.72 85.50 63.49L85.50 63.49Q82.56 64 81.28 64.83Q80 65.66 77.82 68.99L77.82 68.99Q74.62 73.60 75.78 73.98L75.78 73.98Q76.67 74.24 85.38 69.95Q94.08 65.66 96.90 63.36ZM83.33 97.66L83.33 97.66Q83.33 97.15 83.01 96.83Q82.69 96.51 81.86 96.58Q81.02 96.64 79.68 97.02Q78.34 97.41 76.16 97.92L76.16 97.92Q71.42 99.20 68.74 99.71L68.74 99.71Q64.13 100.48 63.74 103.10Q63.36 105.73 67.84 108.67L67.84 108.67Q71.04 111.23 72.83 111.30Q74.62 111.36 76.29 109.31L76.29 109.31Q78.08 107.39 80.70 103.04Q83.33 98.69 83.33 97.66ZM73.73 37.50L73.73 37.50Q75.90 36.99 77.63 37.76Q79.36 38.53 79.36 39.94L79.36 39.94Q79.36 44.03 68.10 45.31L68.10 45.31Q60.42 46.21 59.14 44.80L59.14 44.80Q56.06 41.86 62.08 41.60L62.08 41.60Q65.41 41.47 68.42 39.94Q71.42 38.40 73.73 37.50Z"/>
</g>
<g transform="translate(895.6842685546874,153.96386150878905)">
<path fill="#ce30d5" d="M34.94 54.40L34.94 54.40Q35.58 52.10 40.06 54.53L40.06 54.53Q43.90 56.32 42.62 60.80Q41.34 65.28 33.79 76.80L33.79 76.80L28.16 85.25L30.46 85.63Q33.79 86.40 34.50 89.73Q35.20 93.06 34.94 104.32L34.94 104.32Q34.43 112.90 34.05 115.71Q33.66 118.53 32.38 119.68L32.38 119.68Q31.23 120.96 30.66 120.96Q30.08 120.96 29.31 119.94L29.31 119.94Q28.29 119.17 28.22 116.99Q28.16 114.82 28.93 107.01L28.93 107.01Q29.82 98.18 29.57 94.78Q29.31 91.39 27.52 89.09L27.52 89.09Q26.62 87.81 25.92 88.19Q25.22 88.58 22.78 92.03L22.78 92.03Q19.07 96.64 17.86 98.43Q16.64 100.22 14.98 99.20Q13.31 98.18 13.31 97.28L13.31 97.28Q13.31 96.26 17.15 90.75Q20.99 85.25 22.78 83.58L22.78 83.58Q24.06 82.18 28.29 75.26Q32.51 68.35 34.05 65.15L34.05 65.15Q36.35 60.67 35.33 58.11Q34.30 55.55 34.94 54.40ZM85.89 42.50L85.89 42.50Q94.08 42.11 100.35 43.52L100.35 43.52Q102.27 43.78 102.91 45.50Q103.55 47.23 102.40 49.79L102.40 49.79L101.63 52.48L98.56 50.18Q95.49 48.26 91.65 47.87L91.65 47.87Q81.92 46.46 81.92 44.16L81.92 44.16Q81.92 42.88 85.89 42.50ZM50.56 34.05L50.56 34.05Q52.10 33.41 52.67 33.60Q53.25 33.79 54.27 35.33L54.27 35.33Q55.55 37.12 57.73 37.12L57.73 37.12L59.01 37.63Q58.88 37.63 58.24 37.89L58.24 37.89Q56.58 38.27 57.98 41.60L57.98 41.60Q58.75 44.03 62.46 52.10L62.46 52.10Q67.07 62.21 67.84 64.77L67.84 64.77Q68.99 66.69 70.21 66.88Q71.42 67.07 73.98 65.28L73.98 65.28L76.29 63.49L74.11 62.72Q71.55 61.44 71.94 60.22Q72.32 59.01 75.39 58.50L75.39 58.50Q78.08 57.86 81.47 59.07Q84.86 60.29 84.86 61.70L84.86 61.70Q84.86 63.36 84.22 64.70Q83.58 66.05 82.94 66.05L82.94 66.05Q82.18 66.05 77.31 69.12L77.31 69.12Q74.37 70.91 73.54 72Q72.70 73.09 72.70 74.75L72.70 74.75Q72.70 77.06 73.54 77.70Q74.37 78.34 74.37 80.51Q74.37 82.69 75.33 83.33Q76.29 83.97 76.29 85.25L76.29 85.25Q76.29 88.19 82.62 101.12Q88.96 114.05 94.46 122.37L94.46 122.37Q96.38 125.18 101.63 129.47Q106.88 133.76 107.65 132.86L107.65 132.86Q108.03 132.61 105.34 119.30L105.34 119.30Q100.35 94.08 102.40 96L102.40 96Q103.55 97.28 106.75 108.29L106.75 108.29Q110.21 120.58 110.85 121.60L110.85 121.60Q112 122.75 113.34 128.32Q114.69 133.89 114.69 136.32L114.69 136.32Q114.69 140.42 112.64 141.18L112.64 141.18Q112 141.57 111.23 140.80L111.23 140.80Q110.72 139.65 109.44 140.29L109.44 140.29Q108.80 140.54 102.66 137.86Q96.51 135.17 96.13 134.02L96.13 134.02Q96 133.38 93.57 130.94L93.57 130.94Q89.47 125.95 83.07 113.86Q76.67 101.76 71.55 89.34L71.55 89.34L66.56 76.67L63.36 78.98Q60.03 81.41 54.78 86.53L54.78 86.53Q47.36 93.31 45.82 89.86L45.82 89.86Q44.80 87.04 57.98 77.06L57.98 77.06Q64.38 72.32 64.38 71.36Q64.38 70.40 62.53 66.62Q60.67 62.85 60.67 62.08Q60.67 61.31 57.73 55.10Q54.78 48.90 53.95 46.78Q53.12 44.67 52.16 44.67Q51.20 44.67 51.20 43.07Q51.20 41.47 49.22 39.30Q47.23 37.12 48.19 37.12Q49.15 37.12 49.15 35.84Q49.15 34.56 50.56 34.05Z"/>
</g>
<g transform="translate(1023.6391640624998,153.96386150878905)">
<path fill="#ce30d5" d="M38.66 53.82Q45.18 53.12 45.70 52.80Q46.21 52.48 47.49 53.76L47.49 53.76Q48.26 54.53 48.38 56.45Q48.51 58.37 47.62 64.13L47.62 64.13Q46.72 73.34 45.76 82.82Q44.80 92.29 44.16 93.82L44.16 93.82Q43.78 95.36 45.57 93.82L45.57 93.82Q46.21 93.44 47.10 92.54L47.10 92.54L53.89 86.66Q57.60 83.33 62.08 75.90L62.08 75.90Q62.46 75.52 63.36 76.16L63.36 76.16Q64 76.42 62.46 79.23Q60.93 82.05 58.30 85.89Q55.68 89.73 52.74 92.80L52.74 92.80L46.21 100.10Q42.88 103.81 35.84 110.14Q28.80 116.48 26.50 117.38L26.50 117.38Q23.94 118.78 22.27 118.34Q20.61 117.89 20.61 116.22L20.61 116.22Q20.61 114.82 23.94 111.49L23.94 111.49Q27.01 108.29 29.89 104.70Q32.77 101.12 32.77 100.22Q32.77 99.33 29.50 94.46Q26.24 89.60 26.24 86.85Q26.24 84.10 29.57 81.92L29.57 81.92Q33.28 79.49 36.74 78.85Q40.19 78.21 40.64 77.25Q41.09 76.29 41.34 67.97L41.34 67.97L41.60 59.90L37.38 59.01Q35.84 58.88 34.18 58.05Q32.51 57.22 31.87 56.32Q31.23 55.42 31.74 55.04L31.74 55.04Q32.13 54.53 38.66 53.82ZM39.30 87.17L39.30 87.17Q39.94 83.58 37.76 83.84L37.76 83.84Q35.84 83.84 32.51 86.66L32.51 86.66Q31.36 87.68 31.36 88.38Q31.36 89.09 32.26 91.14L32.26 91.14Q33.92 94.34 35.58 94.34L35.58 94.34Q36.74 94.34 37.31 93.06Q37.89 91.78 39.30 87.17ZM64.45 53.89Q63.36 48.64 63.87 47.74Q64.38 46.85 66.24 46.85Q68.10 46.85 69.25 50.82L69.25 50.82Q71.17 57.73 72.58 55.42L72.58 55.42Q73.34 54.53 79.36 51.71Q85.38 48.90 89.86 47.74L89.86 47.74Q99.33 45.06 104.45 49.92L104.45 49.92Q107.14 52.61 106.88 57.41Q106.62 62.21 103.68 67.84L103.68 67.84Q100.74 73.22 96.77 78.66Q92.80 84.10 91.33 84.61Q89.86 85.12 89.15 89.41Q88.45 93.70 88.06 94.98L88.06 94.98Q87.68 95.62 88.26 95.87Q88.83 96.13 90.37 96.13L90.37 96.13Q92.93 96.13 94.02 97.47Q95.10 98.82 94.72 101.25L94.72 101.25Q94.08 103.42 86.27 111.30Q78.46 119.17 78.46 120.26Q78.46 121.34 80.77 121.98L80.77 121.98Q83.07 122.50 89.34 121.92Q95.62 121.34 96.26 120.58L96.26 120.58Q97.41 119.68 98.56 120.32L98.56 120.32Q99.46 120.58 99.33 119.42L99.33 119.42Q99.33 118.91 99.20 117.76L99.20 117.76Q98.05 111.74 104.58 118.78L104.58 118.78Q106.62 120.96 107.20 122.05Q107.78 123.14 107.26 124.54L107.26 124.54Q106.88 125.70 105.92 126.02Q104.96 126.34 102.40 126.21L102.40 126.21Q98.56 126.08 91.90 127.10L91.90 127.10Q79.74 129.54 75.01 125.06L75.01 125.06Q72.58 123.01 72.96 120.90Q73.34 118.78 76.54 114.56L76.54 114.56Q80.13 109.44 80.77 107.01L80.77 107.01Q81.41 105.34 81.09 104.96Q80.77 104.58 79.49 105.47L79.49 105.47Q77.31 106.50 74.30 106.24Q71.30 105.98 71.30 104.58L71.30 104.58Q71.30 103.81 72.32 103.17Q73.34 102.53 77.70 100.61L77.70 100.61Q83.46 98.18 82.82 90.50L82.82 90.50L82.56 87.04L78.08 88.45Q73.73 89.86 72.83 88.96Q71.94 88.06 70.78 82.56L70.78 82.56Q69.89 77.57 69.38 74.75Q68.86 71.94 68.48 70.27Q68.10 68.61 67.71 68.03Q67.33 67.46 66.82 67.58L66.82 67.58Q65.92 67.84 65.73 63.49Q65.54 59.14 64.45 53.89ZM98.82 53.25L98.82 53.25Q96.26 50.82 91.26 52.10L91.26 52.10Q90.24 52.48 89.98 53.57Q89.73 54.66 89.73 58.50L89.73 58.50Q89.73 64.51 90.37 64.51L90.37 64.51Q91.26 64.51 91.84 66.56Q92.42 68.61 91.52 69.12L91.52 69.12Q90.50 69.76 90.24 72.45Q89.98 75.14 90.82 75.65Q91.65 76.16 94.66 71.87Q97.66 67.58 99.20 63.62L99.20 63.62Q102.02 56.45 98.82 53.25ZM83.20 60.16L83.20 60.16Q83.46 57.09 83.26 56.19Q83.07 55.30 82.18 55.30L82.18 55.30Q78.46 55.42 73.98 59.14L73.98 59.14Q72.58 60.29 72.45 61.25Q72.32 62.21 72.83 64.26L72.83 64.26Q73.98 68.74 74.56 69.25Q75.14 69.76 77.82 67.84L77.82 67.84Q81.41 65.54 82.05 65.22Q82.69 64.90 83.20 60.16ZM83.97 74.37L83.97 74.37Q83.58 71.68 82.88 71.36Q82.18 71.04 78.72 71.94L78.72 71.94Q76.42 72.83 75.97 73.34Q75.52 73.86 75.90 75.78L75.90 75.78Q76.42 78.34 78.46 80.26L78.46 80.26Q79.74 81.92 80 81.92Q80.26 81.92 80.77 80.38L80.77 80.38Q81.41 78.46 82.75 78.02Q84.10 77.57 83.97 74.37Z"/>
</g>
<g transform="translate(1151.5940595703123,153.96386150878905)">
<path fill="#ce30d5" d="M68.35 63.36L68.35 63.36Q70.14 62.85 72.77 62.91Q75.39 62.98 76.42 63.87L76.42 63.87Q77.57 65.15 77.38 68.10Q77.18 71.04 75.78 73.60L75.78 73.60Q74.50 75.65 74.50 76.22Q74.50 76.80 75.78 77.57L75.78 77.57Q78.59 79.36 76.80 82.62Q75.01 85.89 71.42 85.89L71.42 85.89Q69.38 85.89 69.25 85.50Q69.12 85.12 70.14 83.07L70.14 83.07Q71.30 81.28 69.63 79.62L69.63 79.62Q66.82 76.67 70.14 73.22L70.14 73.22Q73.86 69.12 69.38 67.46L69.38 67.46Q67.71 66.69 67.33 65.28Q66.94 63.87 68.35 63.36ZM83.07 46.98L83.07 46.98Q88.45 44.80 90.05 47.17Q91.65 49.54 90.62 58.37L90.62 58.37Q89.98 63.49 89.86 69.63Q89.73 75.78 89.79 79.94Q89.86 84.10 90.50 84.10L90.50 84.10Q91.14 84.10 92.86 81.66Q94.59 79.23 96 77.82Q97.41 76.42 100.10 71.81L100.10 71.81Q101.76 68.99 102.78 68.22Q103.81 67.46 105.34 67.71L105.34 67.71Q109.82 68.10 107.01 72.83L107.01 72.83Q105.22 75.78 99.71 81.79L99.71 81.79Q91.01 91.65 90.43 95.17Q89.86 98.69 89.73 117.76L89.73 117.76Q89.73 131.07 89.02 135.68Q88.32 140.29 86.78 140.29L86.78 140.29Q84.99 140.29 82.11 136.83Q79.23 133.38 78.98 131.20L78.98 131.20Q78.34 127.62 78.98 127.30Q79.62 126.98 81.66 129.54L81.66 129.54L83.97 132.10L84.22 117.63Q84.61 102.78 83.97 101.25L83.97 101.25Q83.46 99.20 50.69 131.46L50.69 131.46Q43.90 138.37 43.14 138.37L43.14 138.37Q39.81 138.37 49.92 127.49L49.92 127.49Q51.97 125.44 54.27 122.75L54.27 122.75L69.12 107.39L74.88 101.25L78.34 97.54L64.13 102.14L39.68 109.82Q29.82 113.28 27.01 113.60Q24.19 113.92 22.14 112.13L22.14 112.13L20.10 110.46L22.53 108.16Q24.19 106.24 27.01 104.64Q29.82 103.04 30.98 103.04L30.98 103.04Q32 103.04 31.49 105.09L31.49 105.09L30.85 107.39L39.81 104.32Q49.15 101.25 54.02 100.10L54.02 100.10Q57.34 99.07 57.98 98.43Q58.62 97.79 59.14 94.98L59.14 94.98Q61.95 73.73 57.34 64.26L57.34 64.26Q54.91 58.88 56.83 58.88L56.83 58.88Q57.34 58.88 60.42 60.74Q63.49 62.59 63.49 62.98Q63.49 63.36 64.77 72.13Q66.05 80.90 65.54 89.09L65.54 89.09Q65.54 89.86 65.41 91.39L65.41 91.39Q64.90 96 65.86 96.38Q66.82 96.77 73.22 94.59L73.22 94.59Q75.26 93.95 76.42 93.44L76.42 93.44Q84.22 90.62 84.42 90.62Q84.61 90.62 84.74 71.04L84.74 71.04L84.86 51.46L82.69 51.84Q80.90 52.22 79.23 52.86Q77.57 53.50 77.57 52.22L77.57 52.22Q77.57 51.07 79.23 49.54Q80.90 48 83.07 46.98ZM67.46 35.33L67.46 35.33Q70.27 34.05 74.11 35.71L74.11 35.71Q76.42 36.61 76.48 38.85Q76.54 41.09 74.37 43.39L74.37 43.39Q72.06 45.44 63.36 50.82Q54.66 56.19 53.38 56.19L53.38 56.19Q50.82 56.19 53.50 54.02L53.50 54.02Q54.14 53.25 55.17 52.74L55.17 52.74Q58.11 50.56 64.06 44.86Q70.02 39.17 69.38 38.40L69.38 38.40Q68.86 37.63 67.71 37.63L67.71 37.63Q66.30 37.63 66.24 36.74Q66.18 35.84 67.46 35.33Z"/>
</g>
<g transform="translate(1279.548955078125,153.96386150878905)">
<path fill="#ce30d5" d="M30.46 87.55L30.46 87.55Q32.38 85.38 34.05 87.55L34.05 87.55Q34.82 88.45 35.07 108.10Q35.33 127.74 34.56 129.66L34.56 129.66Q34.30 130.82 32.51 131.01Q30.72 131.20 30.08 130.18L30.08 130.18Q29.31 128.77 29.57 108.61Q29.82 88.45 30.46 87.55ZM91.90 73.09L91.90 73.09Q92.54 72.19 94.59 72.64Q96.64 73.09 104.32 75.01L104.32 75.01Q112.13 77.44 114.88 79.23Q117.63 81.02 116.99 83.33L116.99 83.33Q115.84 86.53 111.23 85.63L111.23 85.63Q108.67 85.12 107.97 83.07Q107.26 81.02 102.78 79.87L102.78 79.87Q99.07 78.98 95.04 76.99Q91.01 75.01 91.01 74.24L91.01 74.24Q91.01 73.60 91.90 73.09ZM41.47 53.12L41.47 53.12Q46.72 50.18 46.72 54.40L46.72 54.40Q47.23 56.96 44.54 61.18L44.54 61.18Q35.58 76.29 24.96 91.39L24.96 91.39Q16.90 102.66 16 104.51Q15.10 106.37 12.80 106.50L12.80 106.50Q10.75 107.01 10.88 104.58L10.88 104.58Q11.14 102.40 13.44 98.69L13.44 98.69Q22.40 84.86 25.98 81.28L25.98 81.28Q28.54 78.34 34.30 67.71Q40.06 57.09 39.68 55.94L39.68 55.94Q39.04 54.53 41.47 53.12ZM70.91 39.81L70.91 39.81Q72.83 36.74 74.75 39.81L74.75 39.81Q75.90 41.98 75.52 45.31L75.52 45.31Q75.39 47.62 73.54 53.89Q71.68 60.16 70.40 62.72L70.40 62.72Q68.99 66.05 66.69 72.26Q64.38 78.46 64.51 78.72L64.51 78.72Q64.77 78.98 66.82 77.89Q68.86 76.80 72.32 77.06L72.32 77.06Q74.75 77.44 75.33 77.89Q75.90 78.34 76.03 80.90L76.03 80.90Q76.16 84.22 74.30 90.50Q72.45 96.77 72.45 97.28L72.45 97.28Q72.45 97.28 72.83 97.34Q73.22 97.41 73.98 97.34Q74.75 97.28 75.65 97.02L75.65 97.02Q82.30 95.74 84.35 102.34Q86.40 108.93 84.22 122.88L84.22 122.88Q82.69 130.82 80.70 133.38Q78.72 135.94 73.34 136.32L73.34 136.32Q65.66 137.09 64.13 135.30L64.13 135.30Q63.74 134.66 65.66 133.89L65.66 133.89Q66.56 133.38 67.97 133.25L67.97 133.25Q72.96 132.61 74.94 131.07Q76.93 129.54 77.82 125.70L77.82 125.70Q79.36 120.45 79.68 112.83Q80 105.22 78.72 103.68L78.72 103.68Q77.31 101.76 74.56 102.53Q71.81 103.30 69.25 106.50L69.25 106.50Q67.07 108.80 66.30 109.12Q65.54 109.44 64.51 108.80L64.51 108.80Q62.98 107.26 63.49 104.64Q64 102.02 67.20 94.46L67.20 94.46Q72.32 82.56 69.63 82.56L69.63 82.56Q68.22 82.56 64.83 84.67Q61.44 86.78 59.52 88.58L59.52 88.58Q57.60 90.50 56 90.69Q54.40 90.88 54.02 88.96L54.02 88.96Q53.76 87.30 55.55 83.84L55.55 83.84Q62.59 69.38 66.56 58.37L66.56 58.37Q70.14 47.49 70.14 44.29Q70.14 41.09 70.91 39.81Z"/>
</g>
<g transform="translate(1407.5038505859375,153.96386150878905)">
<path fill="#ce30d5" d="M4.61 108.80L4.61 108.80Q6.40 107.01 8.06 111.49L8.06 111.49Q9.86 115.33 11.90 115.71L11.90 115.71Q12.93 115.71 13.06 114.94L13.06 114.94Q14.21 111.62 16 116.61L16 116.61Q16.13 116.86 16.13 117.25L16.13 117.25Q16.90 119.55 16.83 120.32Q16.77 121.09 15.62 121.86L15.62 121.86Q13.82 123.14 11.90 121.86L11.90 121.86L8.06 119.30Q5.63 117.76 4.35 113.92Q3.07 110.08 4.61 108.80ZM17.54 104.58L17.54 104.58Q19.07 101.89 25.73 106.24L25.73 106.24Q29.18 108.54 29.95 110.98Q30.72 113.41 28.67 114.18L28.67 114.18Q26.88 114.69 21.82 110.21Q16.77 105.73 17.54 104.58ZM42.24 100.48L42.24 100.48Q42.24 98.05 42.56 97.54Q42.88 97.02 44.42 97.28L44.42 97.28Q46.46 97.41 46.78 99.33Q47.10 101.25 48.77 102.78L48.77 102.78Q50.30 104.19 50.05 105.73Q49.79 107.26 47.87 108.22Q45.95 109.18 44.10 106.69Q42.24 104.19 42.24 100.48ZM87.74 79.36Q91.65 79.36 92.22 78.91Q92.80 78.46 97.79 78.46L97.79 78.46Q103.55 78.46 104.06 80.64Q104.58 82.82 99.97 88.83L99.97 88.83Q97.28 92.03 99.01 92.54Q100.74 93.06 101.25 94.98L101.25 94.98Q101.50 96.13 100.42 98.43Q99.33 100.74 94.21 108.42L94.21 108.42L91.65 112.38L95.74 112.77Q99.33 113.41 106.43 116.93Q113.54 120.45 116.61 123.39L116.61 123.39Q118.91 125.44 119.30 127.55Q119.68 129.66 118.02 130.30L118.02 130.30Q116.99 130.69 113.41 127.36L113.41 127.36Q110.46 124.67 104.06 121.34Q97.66 118.02 93.06 116.61L93.06 116.61Q90.37 115.84 89.41 116.22Q88.45 116.61 86.14 119.30L86.14 119.30Q84.22 121.47 82.75 122.30Q81.28 123.14 80.26 122.94Q79.23 122.75 78.85 121.22L78.85 121.22Q78.46 119.30 74.75 118.40L74.75 118.40Q71.30 117.38 69.76 118.46Q68.22 119.55 64 125.70L64 125.70Q60.29 130.69 58.56 132.03Q56.83 133.38 55.04 132.42Q53.25 131.46 53.63 130.30Q54.02 129.15 57.09 125.82L57.09 125.82Q60.67 121.98 61.95 119.30Q63.23 116.61 63.81 116.61Q64.38 116.61 67.84 109.57L67.84 109.57Q70.40 104.58 70.66 103.30Q70.91 102.02 69.76 101.50L69.76 101.50Q68.22 100.48 67.33 98.05L67.33 98.05Q66.30 95.87 66.37 91.20Q66.43 86.53 67.46 85.38Q68.48 84.22 67.97 83.84Q67.46 83.46 69.25 81.28L69.25 81.28Q70.53 79.36 71.81 79.68Q73.09 80 73.09 82.05L73.09 82.05Q73.09 83.46 74.24 83.20L74.24 83.20Q75.01 83.07 78.46 81.54L78.46 81.54Q83.84 79.36 87.74 79.36ZM96.26 83.84L96.26 83.84Q96.26 83.20 95.30 83.01Q94.34 82.82 93.31 83.33Q92.29 83.84 92.03 84.61L92.03 84.61Q91.52 85.89 91.90 86.27L91.90 86.27Q92.42 86.91 94.34 85.82Q96.26 84.74 96.26 83.84ZM75.01 90.37Q75.39 91.52 78.53 88.64Q81.66 85.76 80.38 85.76L80.38 85.76Q78.85 85.76 76.74 87.55Q74.62 89.34 75.01 90.37L75.01 90.37ZM92.29 93.57Q89.60 94.59 87.87 93.50Q86.14 92.42 85.25 92.54Q84.35 92.67 81.66 94.34L81.66 94.34Q79.74 95.49 79.30 96.26Q78.85 97.02 79.23 98.56L79.23 98.56Q79.74 100.86 76.29 105.86L76.29 105.86Q75.01 108.03 74.30 109.25Q73.60 110.46 73.34 111.23Q73.09 112 73.28 112.32Q73.47 112.64 74.24 112.77L74.24 112.77Q81.28 113.79 82.94 113.28Q84.61 112.77 87.30 109.18L87.30 109.18Q93.18 100.86 94.59 95.36L94.59 95.36Q94.98 93.18 94.66 92.99Q94.34 92.80 92.29 93.57L92.29 93.57ZM85.50 36.86L85.50 36.86Q87.81 34.82 90.69 35.65Q93.57 36.48 93.57 39.42L93.57 39.42Q93.57 40.96 89.60 46.46L89.60 46.46Q80 59.14 80.38 60.16L80.38 60.16Q80.51 60.54 81.15 60.67L81.15 60.67Q82.82 61.44 86.27 61.44L86.27 61.44Q91.65 61.70 107.97 68.22Q124.29 74.75 124.29 76.93L124.29 76.93Q124.16 79.62 121.28 80.64Q118.40 81.66 114.18 80.51L114.18 80.51Q112 80 112.64 77.82L112.64 77.82Q113.02 76.67 112.32 75.90Q111.62 75.14 109.18 73.98L109.18 73.98Q102.66 70.78 91.97 67.07Q81.28 63.36 78.85 63.36L78.85 63.36Q77.70 63.36 74.24 68.03Q70.78 72.70 71.30 73.22L71.30 73.22Q71.68 73.60 77.44 71.68L77.44 71.68Q91.14 67.46 93.57 70.40L93.57 70.40Q94.34 71.55 94.27 72.13Q94.21 72.70 92.67 73.86L92.67 73.86Q90.37 75.78 86.78 75.26Q83.20 74.75 78.34 76.61Q73.47 78.46 70.91 78.08L70.91 78.08Q69.25 77.70 68.29 78.53Q67.33 79.36 65.15 83.07L65.15 83.07Q61.82 88.83 62.85 90.50L62.85 90.50Q64.38 93.57 62.46 101.76Q60.54 109.95 56.45 116.61L56.45 116.61Q54.14 120.70 51.20 123.78Q48.26 126.85 46.72 126.85L46.72 126.85Q44.42 126.85 38.66 122.30Q32.90 117.76 32.90 116.10L32.90 116.10Q32.90 114.56 34.18 115.07L34.18 115.07Q35.20 115.46 38.02 117.63L38.02 117.63Q42.24 120.45 43.78 120.70L43.78 120.70Q46.72 121.22 50.05 116.54Q53.38 111.87 56.32 103.55L56.32 103.55Q57.98 98.82 57.92 97.54Q57.86 96.26 55.94 96.51L55.94 96.51Q54.78 96.51 54.27 96Q53.76 95.49 53.63 93.95L53.63 93.95Q53.25 91.52 51.97 91.52Q50.69 91.52 41.47 96.13L41.47 96.13Q33.28 100.35 33.66 100.74L33.66 100.74Q35.33 100.74 38.34 102.91Q41.34 105.09 41.73 106.62L41.73 106.62Q42.11 108.42 41.15 109.76Q40.19 111.10 38.66 111.10L38.66 111.10Q37.12 111.10 35.46 108.10Q33.79 105.09 32.06 104.70Q30.34 104.32 28.67 101.12L28.67 101.12Q27.26 98.94 27.07 97.34Q26.88 95.74 27.52 91.14L27.52 91.14Q28.29 84.35 29.06 68.61L29.06 68.61Q29.57 52.22 31.10 52.22L31.10 52.22Q31.87 52.22 33.02 54.14L33.02 54.14Q34.05 55.94 34.05 69.31Q34.05 82.69 33.02 88.58L33.02 88.58Q32.13 93.82 32.26 93.95L32.26 93.95Q32.90 94.59 36.42 92.93Q39.94 91.26 41.34 89.98L41.34 89.98Q43.78 86.66 42.11 86.27L42.11 86.27Q41.47 86.14 40.58 86.66L40.58 86.66Q39.04 87.42 37.31 86.59Q35.58 85.76 35.65 84.10Q35.71 82.43 40.19 80.51L40.19 80.51Q44.03 78.98 45.18 76.99Q46.34 75.01 44.42 73.22L44.42 73.22Q43.01 71.94 43.65 69.76L43.65 69.76Q44.03 68.61 43.84 68.29Q43.65 67.97 42.50 68.35L42.50 68.35Q40.70 69.12 38.14 69.63Q35.58 70.14 35.71 68.74L35.71 68.74Q36.10 66.30 42.88 62.85L42.88 62.85Q43.26 62.59 43.39 62.46L43.39 62.46Q45.57 61.44 45.95 60.48Q46.34 59.52 46.08 55.55L46.08 55.55Q46.08 53.76 45.89 52.80Q45.70 51.84 45.50 51.26Q45.31 50.69 45.06 50.69Q44.80 50.69 44.16 50.69L44.16 50.69Q38.40 52.99 36.74 50.94L36.74 50.94Q35.58 49.54 35.97 48.38L35.97 48.38Q36.10 47.49 40.90 45.63Q45.70 43.78 48.26 43.39L48.26 43.39Q49.41 43.39 50.37 44.16Q51.33 44.93 51.39 45.82Q51.46 46.72 50.69 47.49L50.69 47.49Q49.54 48.26 51.01 50.56Q52.48 52.86 51.84 62.08L51.84 62.08L51.33 75.52Q50.94 79.74 49.92 81.66L49.92 81.66Q48.64 84.35 49.28 85.25Q49.92 86.14 53.38 85.89L53.38 85.89Q57.22 85.76 58.11 85.25Q59.01 84.74 60.16 82.30L60.16 82.30Q64 74.75 77.70 53.38L77.70 53.38Q84.99 42.24 84.48 40.32Q83.97 38.40 85.50 36.86Z"/>
</g>
<g transform="translate(1535.45874609375,153.96386150878905)">
<path fill="#ce30d5" d="M48.77 101.89L48.77 101.89Q52.99 99.07 53.12 101.89L53.12 101.89Q53.12 103.81 50.75 107.07Q48.38 110.34 43.52 114.82L43.52 114.82Q33.54 122.50 32.64 116.74L32.64 116.74Q32.64 114.56 36.86 112Q41.09 109.44 41.09 108.80L41.09 108.80Q40.70 108.42 38.78 108.74Q36.86 109.06 34.24 109.70Q31.62 110.34 31.10 110.98L31.10 110.98Q29.57 112.13 30.14 118.66Q30.72 125.18 29.95 126.46L29.95 126.46Q28.03 129.41 25.09 125.57L25.09 125.57Q23.42 123.39 22.78 120.32L22.78 120.32L21.25 112.90Q20.10 106.88 21.25 104.58L21.25 104.58Q22.02 102.91 23.10 102.98Q24.19 103.04 24.32 104.96L24.32 104.96Q24.32 106.50 25.73 108.42L25.73 108.42Q26.62 109.82 27.14 109.82Q27.65 109.82 29.18 108.29L29.18 108.29Q31.23 106.11 36.80 104.19Q42.37 102.27 44.54 102.91L44.54 102.91Q46.59 103.42 48.77 101.89ZM31.74 93.06Q37.76 90.37 41.54 88.96Q45.31 87.55 45.31 87.55L45.31 87.55Q46.21 87.30 47.30 88.26Q48.38 89.22 48.38 90.37L48.38 90.37Q48.38 91.52 45.95 93.25Q43.52 94.98 41.86 94.98L41.86 94.98Q40.83 94.98 32.96 98.75Q25.09 102.53 23.81 102.14L23.81 102.14Q22.27 101.50 22.34 99.14Q22.40 96.77 23.94 96.38L23.94 96.38Q25.73 95.74 31.74 93.06ZM42.75 76.93L42.75 76.93Q44.54 76.42 46.46 76.42Q48.38 76.42 48.90 77.18L48.90 77.18Q49.92 78.85 47.62 80.90Q45.31 82.94 41.60 83.46L41.60 83.46Q38.91 83.84 35.58 85.57Q32.26 87.30 29.18 87.94L29.18 87.94Q26.88 88.45 26.50 88.06Q26.11 87.68 26.11 85.76L26.11 85.76Q26.11 82.94 27.90 82.94Q29.70 82.94 35.58 80.13Q41.47 77.31 42.75 76.93ZM89.86 39.81L89.86 39.81Q93.95 38.27 94.85 40.45L94.85 40.45Q95.23 41.73 94.08 44.61Q92.93 47.49 91.39 48.51L91.39 48.51Q89.86 49.66 88.45 52.03Q87.04 54.40 83.33 57.86L83.33 57.86Q81.02 60.16 80.64 60.93Q80.26 61.70 81.22 62.78Q82.18 63.87 83.46 62.98Q84.74 62.08 88.96 57.73L88.96 57.73Q98.94 47.36 100.86 50.43L100.86 50.43Q100.86 50.43 100.99 50.56L100.99 50.56Q102.02 52.10 100.54 53.76Q99.07 55.42 89.86 63.87L89.86 63.87Q89.09 64.38 88.70 64.77L88.70 64.77Q85.63 67.71 86.27 68.74L86.27 68.74Q86.66 69.50 95.30 73.73Q103.94 77.95 106.37 78.46L106.37 78.46Q108.93 79.10 112.38 79.62L112.38 79.62Q115.58 80.26 116.67 81.02Q117.76 81.79 117.06 82.94Q116.35 84.10 111.49 83.78Q106.62 83.46 101.25 81.92L101.25 81.92Q95.10 80.26 94.14 80.26Q93.18 80.26 93.18 82.30L93.18 82.30Q93.18 84.86 89.02 89.28Q84.86 93.70 84.86 95.62Q84.86 97.54 81.54 101.95Q78.21 106.37 78.59 106.62Q78.98 106.88 83.97 104.45L83.97 104.45Q88.70 102.27 93.06 102.02Q97.41 101.76 97.79 103.68L97.79 103.68Q98.18 105.34 97.54 107.65L97.54 107.65Q97.02 109.82 92.22 114.62Q87.42 119.42 83.20 122.11L83.20 122.11L78.72 124.80L89.09 124.80Q95.62 124.80 97.73 125.06Q99.84 125.31 100.10 126.34L100.10 126.34Q100.61 127.87 100.16 128.51Q99.71 129.15 89.34 129.79L89.34 129.79Q59.52 131.33 58.88 130.56L58.88 130.56Q58.75 130.30 58.75 129.92L58.75 129.92Q58.75 128.64 60.86 127.17Q62.98 125.70 64.90 125.70L64.90 125.70Q67.20 125.70 73.54 121.79Q79.87 117.89 85.06 113.66Q90.24 109.44 89.34 108.42L89.34 108.42Q88.70 107.90 83.33 110.40Q77.95 112.90 73.73 115.71L73.73 115.71Q69.50 118.40 66.24 118.59Q62.98 118.78 62.59 116.48L62.59 116.48Q62.21 114.43 67.46 108.86Q72.70 103.30 72.13 102.34Q71.55 101.38 70.59 102.34Q69.63 103.30 67.71 102.27L67.71 102.27Q66.56 101.50 65.60 99.90Q64.64 98.30 62.98 93.31L62.98 93.31L61.82 90.24L59.14 94.08Q55.68 98.69 53.76 97.66L53.76 97.66Q53.12 97.28 53.12 96.38L53.12 96.38Q53.12 94.98 55.94 90.18Q58.75 85.38 58.37 84.16Q57.98 82.94 59.90 81.02L59.90 81.02Q61.18 79.62 61.31 79.17Q61.44 78.72 60.67 78.08L60.67 78.08Q54.53 74.62 56.58 73.09L56.58 73.09Q57.60 72.32 60.67 72.83Q63.74 73.34 65.09 72.19Q66.43 71.04 66.43 67.97L66.43 67.97Q66.18 65.02 67.58 65.02L67.58 65.02Q68.48 65.02 69.18 63.74Q69.89 62.46 69.89 60.80L69.89 60.80Q69.89 60.42 69.76 60.22Q69.63 60.03 69.25 60.03Q68.86 60.03 68.29 60.22Q67.71 60.42 66.82 60.93L66.82 60.93Q63.87 62.72 60.99 62.78Q58.11 62.85 41.86 68.86L41.86 68.86Q24.19 75.26 18.82 76.03Q13.44 76.80 11.26 73.47L11.26 73.47Q10.11 71.42 11.01 70.53Q11.90 69.63 14.34 70.66L14.34 70.66Q16.51 71.55 19.39 71.10Q22.27 70.66 28.42 68.35L28.42 68.35Q49.54 60.80 54.27 58.88L54.27 58.88Q58.75 57.09 60.29 58.18Q61.82 59.26 66.50 56.38Q71.17 53.50 71.55 52.74Q71.94 51.97 74.56 51.97Q77.18 51.97 77.95 53.89L77.95 53.89Q78.34 55.55 80.26 53.25L80.26 53.25Q81.28 52.35 83.20 50.05L83.20 50.05Q87.55 44.03 87.55 42.43Q87.55 40.83 89.86 39.81ZM77.06 68.10Q76.42 66.69 76.42 65.86Q76.42 65.02 75.52 65.02L75.52 65.02Q74.75 65.02 72.70 68.86Q70.66 72.70 71.17 73.34L71.17 73.34Q71.94 73.86 74.69 71.49Q77.44 69.12 77.06 68.10L77.06 68.10ZM87.55 77.18L87.55 77.18Q86.27 76.42 84.86 76.42L84.86 76.42Q79.74 76.80 70.66 81.02L70.66 81.02Q67.71 82.30 67.14 83.01Q66.56 83.71 67.33 84.86L67.33 84.86Q68.35 86.53 69.89 85.25L69.89 85.25Q71.17 84.10 76.99 81.66Q82.82 79.23 85.63 78.72L85.63 78.72Q87.94 78.08 87.94 77.70L87.94 77.70Q87.94 77.31 87.55 77.18ZM83.71 86.40L83.71 86.40Q84.74 85.25 84.61 84.93Q84.48 84.61 83.33 84.61L83.33 84.61Q79.10 84.86 72.58 89.47L72.58 89.47Q69.12 91.90 70.02 94.08L70.02 94.08Q70.40 94.98 71.55 94.98L71.55 94.98Q72.96 94.98 77.38 91.84Q81.79 88.70 83.71 86.40ZM44.16 37.76L44.16 37.76Q45.70 37.38 49.92 37.63Q54.14 37.89 55.68 38.53L55.68 38.53Q56.83 38.91 56.83 41.28Q56.83 43.65 53.50 45.06L53.50 45.06Q47.36 47.74 45.44 45.95L45.44 45.95Q45.06 45.57 45.31 44.80L45.31 44.80Q45.82 43.52 48 42.75L48 42.75Q49.54 42.11 48 41.60L48 41.60Q47.36 41.22 45.82 40.83L45.82 40.83Q38.91 38.66 44.16 37.76Z"/>
</g>
<g transform="translate(0,307.9277230175781)">
<path fill="#ce30d5" d="M21.38 84.35L21.38 84.35Q23.17 82.56 24.38 82.56Q25.60 82.56 28.16 83.97L28.16 83.97Q30.85 85.63 30.85 88.58L30.85 88.58Q30.85 91.39 29.12 92.99Q27.39 94.59 24.58 94.08L24.58 94.08Q21.12 93.70 19.90 90.37Q18.69 87.04 21.38 84.35ZM61.57 83.33L61.57 83.33Q63.74 81.28 67.26 81.47Q70.78 81.66 72.32 83.84L72.32 83.84Q75.26 88.32 71.81 91.65L71.81 91.65Q70.27 93.06 67.90 93.76Q65.54 94.46 64.64 93.70L64.64 93.70Q63.87 93.18 62.40 90.88Q60.93 88.58 60.42 86.91L60.42 86.91Q59.90 85.38 61.57 83.33ZM107.26 81.28L107.26 81.28Q109.44 81.02 109.95 80.64L109.95 80.64Q110.98 80.38 112.26 83.65Q113.54 86.91 113.41 88.70L113.41 88.70Q112.90 93.44 106.50 91.90L106.50 91.90Q102.53 90.75 102.02 88.96L102.02 88.96Q101.38 87.30 103.30 84.48Q105.22 81.66 107.26 81.28Z"/>
</g>
<g transform="translate(127.9548955078125,307.9277230175781)">
<path fill="#ce30d5" d="M21.38 84.35L21.38 84.35Q23.17 82.56 24.38 82.56Q25.60 82.56 28.16 83.97L28.16 83.97Q30.85 85.63 30.85 88.58L30.85 88.58Q30.85 91.39 29.12 92.99Q27.39 94.59 24.58 94.08L24.58 94.08Q21.12 93.70 19.90 90.37Q18.69 87.04 21.38 84.35ZM61.57 83.33L61.57 83.33Q63.74 81.28 67.26 81.47Q70.78 81.66 72.32 83.84L72.32 83.84Q75.26 88.32 71.81 91.65L71.81 91.65Q70.27 93.06 67.90 93.76Q65.54 94.46 64.64 93.70L64.64 93.70Q63.87 93.18 62.40 90.88Q60.93 88.58 60.42 86.91L60.42 86.91Q59.90 85.38 61.57 83.33ZM107.26 81.28L107.26 81.28Q109.44 81.02 109.95 80.64L109.95 80.64Q110.98 80.38 112.26 83.65Q113.54 86.91 113.41 88.70L113.41 88.70Q112.90 93.44 106.50 91.90L106.50 91.90Q102.53 90.75 102.02 88.96L102.02 88.96Q101.38 87.30 103.30 84.48Q105.22 81.66 107.26 81.28Z"/>
</g>
</g>
</svg>