<?xml version="1.0" encoding="utf-8"?>
<!DOCTYPE svg PUBLIC "-//W3C//DTD SVG 1.1//EN" "http://www.w3.org/Graphics/SVG/1.1/DTD/svg11.dtd">
<svg version="1.1" xmlns="http://www.w3.org/2000/svg" width="844.7740973126132" height="482.825058046875" viewBox="0 0 844.7740973126132 482.825058046875">
<g>
<g>
<rect fill="#FFFFFF" width="0" height="0" />
</g>
<g transform="translate(0,0)">
<path fill="#ce30d5" d="M40.19 51.71L40.19 51.71Q43.39 48 45.82 51.71L45.82 51.71Q46.59 53.25 43.78 56.96L43.78 56.96Q41.98 59.01 40 62.66Q38.02 66.30 38.02 66.94L38.02 66.94Q38.02 67.20 39.30 66.94L39.30 66.94Q41.86 66.82 42.37 69.63Q42.88 72.45 41.86 80.90L41.86 80.90Q40.70 91.26 40.32 95.74L40.32 95.74L39.55 100.22L46.59 99.46Q52.22 98.94 53.57 99.78Q54.91 100.61 54.14 103.42L54.14 103.42Q53.76 105.09 52.80 105.41Q51.84 105.73 47.23 105.73L47.23 105.73Q41.34 105.73 40 107.33Q38.66 108.93 38.66 116.10L38.66 116.10Q38.40 121.98 37.38 123.84Q36.35 125.70 34.18 124.42L34.18 124.42Q30.46 122.50 32.26 112.38L32.26 112.38Q33.02 107.39 32.26 107.01Q31.49 106.62 22.78 108.03L22.78 108.03Q11.14 109.82 8.06 111.10L8.06 111.10Q6.53 111.87 5.82 111.55Q5.12 111.23 4.35 109.70L4.35 109.70Q3.58 108.42 3.58 107.39Q3.58 106.37 4.74 104.45L4.74 104.45Q6.53 101.12 8 99.46Q9.47 97.79 14.34 90.62L14.34 90.62L22.14 79.74Q24.83 75.78 24.83 74.88Q24.83 73.98 25.73 73.98Q26.62 73.98 27.78 70.78Q28.93 67.58 29.50 67.58Q30.08 67.58 34.11 60.80Q38.14 54.02 40.19 51.71ZM36.35 74.24L36.35 74.24Q36.61 72.58 36.61 71.23Q36.61 69.89 36.61 69.18Q36.61 68.48 36.61 68.48L36.61 68.48Q36.22 68.48 32 75.65L32 75.65Q23.55 89.34 15.87 98.82L15.87 98.82Q12.67 102.66 12.67 103.30L12.67 103.30Q13.06 103.55 15.23 103.49Q17.41 103.42 20.35 102.98Q23.30 102.53 24.58 101.89L24.58 101.89Q26.88 101.12 30.02 101.12Q33.15 101.12 33.54 100.29Q33.92 99.46 34.50 92.61Q35.07 85.76 35.65 82.94Q36.22 80.13 36.35 74.24Z"/>
</g>
<g transform="translate(58.007234375,0)">
<path fill="#ce30d5" d="M12.16 54.40L12.16 54.40Q13.70 52.22 15.23 53.12L15.23 53.12Q17.02 54.27 17.60 56.58Q18.18 58.88 17.15 61.18L17.15 61.18Q14.98 67.07 13.76 87.30Q12.54 107.52 14.08 114.43L14.08 114.43Q15.49 120.19 12.42 121.73L12.42 121.73Q10.11 122.75 8.19 119.81L8.19 119.81Q6.78 117.50 6.78 102.21Q6.78 86.91 7.30 85.63Q7.81 84.35 8.70 74.11L8.70 74.11Q10.11 57.34 12.16 54.40Z"/>
</g>
<g transform="translate(82.59859375,0)">
<path fill="#ce30d5" d="M40.19 51.71L40.19 51.71Q43.39 48 45.82 51.71L45.82 51.71Q46.59 53.25 43.78 56.96L43.78 56.96Q41.98 59.01 40 62.66Q38.02 66.30 38.02 66.94L38.02 66.94Q38.02 67.20 39.30 66.94L39.30 66.94Q41.86 66.82 42.37 69.63Q42.88 72.45 41.86 80.90L41.86 80.90Q40.70 91.26 40.32 95.74L40.32 95.74L39.55 100.22L46.59 99.46Q52.22 98.94 53.57 99.78Q54.91 100.61 54.14 103.42L54.14 103.42Q53.76 105.09 52.80 105.41Q51.84 105.73 47.23 105.73L47.23 105.73Q41.34 105.73 40 107.33Q38.66 108.93 38.66 116.10L38.66 116.10Q38.40 121.98 37.38 123.84Q36.35 125.70 34.18 124.42L34.18 124.42Q30.46 122.50 32.26 112.38L32.26 112.38Q33.02 107.39 32.26 107.01Q31.49 106.62 22.78 108.03L22.78 108.03Q11.14 109.82 8.06 111.10L8.06 111.10Q6.53 111.87 5.82 111.55Q5.12 111.23 4.35 109.70L4.35 109.70Q3.58 108.42 3.58 107.39Q3.58 106.37 4.74 104.45L4.74 104.45Q6.53 101.12 8 99.46Q9.47 97.79 14.34 90.62L14.34 90.62L22.14 79.74Q24.83 75.78 24.83 74.88Q24.83 73.98 25.73 73.98Q26.62 73.98 27.78 70.78Q28.93 67.58 29.50 67.58Q30.08 67.58 34.11 60.80Q38.14 54.02 40.19 51.71ZM36.35 74.24L36.35 74.24Q36.61 72.58 36.61 71.23Q36.61 69.89 36.61 69.18Q36.61 68.48 36.61 68.48L36.61 68.48Q36.22 68.48 32 75.65L32 75.65Q23.55 89.34 15.87 98.82L15.87 98.82Q12.67 102.66 12.67 103.30L12.67 103.30Q13.06 103.55 15.23 103.49Q17.41 103.42 20.35 102.98Q23.30 102.53 24.58 101.89L24.58 101.89Q26.88 101.12 30.02 101.12Q33.15 101.12 33.54 100.29Q33.92 99.46 34.50 92.61Q35.07 85.76 35.65 82.94Q36.22 80.13 36.35 74.24Z"/>
</g>
<g transform="translate(0,153.94422140625)">
<path fill="#ce30d5" d="M54.78 82.18L54.78 82.18Q60.54 78.98 62.08 81.41L62.08 81.41Q62.85 82.56 59.78 84.99Q56.70 87.42 50.05 90.50L50.05 90.50Q43.14 93.70 41.47 95.55Q39.81 97.41 40.58 100.61L40.58 100.61L41.22 102.91L43.26 100.99Q47.74 97.02 54.66 95.17Q61.57 93.31 63.49 95.62L63.49 95.62Q65.02 97.54 63.55 102.53Q62.08 107.52 59.26 110.08L59.26 110.08Q56.96 112.13 53.50 113.22Q50.05 114.30 48.58 113.41Q47.10 112.51 47.62 110.72Q48.13 108.93 50.18 107.90L50.18 107.90Q52.35 106.75 55.30 103.81Q58.24 100.86 57.73 100.48L57.73 100.48Q57.34 99.84 52.10 101.76L52.10 101.76Q46.98 103.94 45.31 106.62Q43.65 109.31 44.80 114.05L44.80 114.05Q45.95 118.66 44.61 120Q43.26 121.34 41.73 120.83L41.73 120.83Q40.06 120.19 38.53 114.43Q36.99 108.67 36.99 102.91L36.99 102.91Q36.99 98.69 36.67 97.34Q36.35 96 35.20 95.62L35.20 95.62Q33.92 95.23 33.73 93.50Q33.54 91.78 34.69 91.01L34.69 91.01Q35.84 90.24 38.59 90.05Q41.34 89.86 45.31 86.98Q49.28 84.10 50.30 84.10Q51.33 84.10 54.78 82.18ZM43.52 77.38Q48.13 74.50 52.22 72.26Q56.32 70.02 57.47 70.02L57.47 70.02Q59.26 70.02 59.46 71.68Q59.65 73.34 58.24 74.62L58.24 74.62Q55.94 76.80 47.81 80.83Q39.68 84.86 37.50 84.86L37.50 84.86Q35.20 84.86 34.37 83.52Q33.54 82.18 34.69 80.26L34.69 80.26Q35.97 77.57 37.89 79.36L37.89 79.36Q38.91 80.26 43.52 77.38ZM57.86 56.58L57.86 56.58Q69.76 52.22 68.99 56.06L68.99 56.06Q68.86 56.83 67.84 58.11L67.84 58.11Q66.94 59.14 61.25 61.31Q55.55 63.49 53.50 63.49L53.50 63.49Q51.97 63.49 44.48 66.11Q36.99 68.74 31.62 71.04L31.62 71.04Q21.38 75.39 18.69 72.32L18.69 72.32Q17.54 70.78 18.24 69.38Q18.94 67.97 20.61 68.48L20.61 68.48Q23.68 69.25 41.73 61.82L41.73 61.82Q48.64 58.88 50.18 58.82Q51.71 58.75 57.86 56.58ZM48.13 41.86L48.13 41.86Q52.48 40.32 56.51 40.32Q60.54 40.32 62.02 41.73Q63.49 43.14 63.36 43.90Q63.23 44.67 61.70 46.21L61.70 46.21Q60.03 47.74 57.98 46.72Q55.94 45.70 49.41 45.70L49.41 45.70Q43.65 45.70 43.26 44.61Q42.88 43.52 48.13 41.86ZM89.86 29.18L89.86 29.18Q91.01 27.78 92.42 28.35Q93.82 28.93 94.98 31.10L94.98 31.10Q96.13 33.54 98.43 33.54L98.43 33.54Q100.61 33.54 102.14 34.82Q103.68 36.10 103.30 37.38L103.30 37.38Q102.66 38.78 98.43 40.96Q94.21 43.14 93.31 46.59L93.31 46.59Q91.90 51.97 93.31 51.97L93.31 51.97Q93.70 51.97 94.21 51.84L94.21 51.84Q96 51.20 97.92 53.06Q99.84 54.91 99.20 56.58L99.20 56.58Q98.69 58.37 95.62 62.21L95.62 62.21Q92.67 65.79 93.06 66.11Q93.44 66.43 96.90 63.49L96.90 63.49Q100.61 60.80 103.87 59.46Q107.14 58.11 108.67 58.88L108.67 58.88Q110.72 60.03 109.89 61.70Q109.06 63.36 104.83 65.79L104.83 65.79Q96.13 71.42 94.21 75.01L94.21 75.01Q93.44 76.29 94.85 76.29L94.85 76.29Q95.74 76.29 98.69 76.03L98.69 76.03Q102.66 75.65 103.62 75.97Q104.58 76.29 105.98 78.21L105.98 78.21Q107.26 79.87 107.58 83.26Q107.90 86.66 107.90 98.94L107.90 98.94Q107.90 117.12 106.50 120.83L106.50 120.83Q104.06 127.87 101.12 127.87L101.12 127.87Q99.46 127.87 97.34 125.38Q95.23 122.88 95.23 120.96L95.23 120.96Q95.23 118.91 95.81 118.78Q96.38 118.66 98.05 120.58L98.05 120.58L99.58 122.75L100.74 119.81Q102.53 115.84 103.10 101.06Q103.68 86.27 102.27 82.94L102.27 82.94Q101.50 81.41 98.05 82.05L98.05 82.05Q90.75 82.94 89.09 85.89L89.09 85.89Q88.06 87.17 90.62 87.55L90.62 87.55Q90.75 87.55 91.14 87.55L91.14 87.55Q94.08 87.81 94.66 88.77Q95.23 89.73 94.85 92.80L94.85 92.80Q93.70 102.02 94.85 102.02L94.85 102.02Q95.74 101.76 98.30 103.94L98.30 103.94Q99.97 105.22 100.16 105.92Q100.35 106.62 99.46 107.78L99.46 107.78Q98.05 109.44 95.68 108.86Q93.31 108.29 90.37 105.60L90.37 105.60Q88.83 103.94 88.38 102.85Q87.94 101.76 88.32 99.71L88.32 99.71Q89.09 96.64 89.86 95.10L89.86 95.10Q90.62 93.57 89.66 92.86Q88.70 92.16 87.55 93.25Q86.40 94.34 86.40 108.16L86.40 108.16Q86.40 116.99 86.78 120.70Q87.17 124.42 88.70 129.41L88.70 129.41Q90.37 135.42 90.18 137.73Q89.98 140.03 87.68 140.03L87.68 140.03Q86.02 140.03 85.12 137.98Q84.22 135.94 82.56 128.26L82.56 128.26Q80.77 120.83 80.77 107.01L80.77 107.01Q80.90 97.02 81.54 92.67Q82.18 88.32 84.61 79.49L84.61 79.49L85.25 77.44L81.54 79.36Q75.14 82.82 72.70 79.74L72.70 79.74Q71.94 78.72 72.90 77.25Q73.86 75.78 78.46 71.42L78.46 71.42Q89.09 61.57 85.76 61.57L85.76 61.57Q84.61 61.57 81.92 64.13L81.92 64.13Q80.38 65.66 79.62 65.86Q78.85 66.05 77.82 65.41L77.82 65.41Q75.90 63.74 77.06 62.21Q78.21 60.67 85.25 55.81L85.25 55.81Q86.78 54.66 87.30 50.69L87.30 50.69Q87.94 47.62 87.62 47.10Q87.30 46.59 85.76 47.23L85.76 47.23Q83.46 47.74 80.26 49.60Q77.06 51.46 76.29 50.69L76.29 50.69Q73.22 47.62 82.30 43.14L82.30 43.14L88.45 39.94L88.45 35.07Q88.70 30.46 89.86 29.18Z"/>
</g>
<g transform="translate(127.9548955078125,153.94422140625)">
<path fill="#ce30d5" d="M88.83 50.94Q88.06 50.94 88.06 49.09Q88.06 47.23 89.60 47.23L89.60 47.23Q91.39 47.36 97.02 50.24Q102.66 53.12 103.17 54.27L103.17 54.27Q103.94 55.42 102.72 57.79Q101.50 60.16 100.48 60.16L100.48 60.16Q99.46 60.16 94.53 55.55Q89.60 50.94 88.83 50.94ZM59.65 42.24L59.65 42.24Q60.16 40.96 61.63 40.83Q63.10 40.70 64.77 41.60L64.77 41.60Q65.54 42.11 65.54 44.29Q65.54 46.46 64.77 53.63L64.77 53.63Q63.49 66.69 65.54 66.69L65.54 66.69Q65.92 66.69 66.69 66.18L66.69 66.18Q68.10 65.41 68.48 65.41L68.48 65.41Q73.09 64.77 73.09 61.70L73.09 61.70Q73.09 59.65 74.69 59.20Q76.29 58.75 78.98 60.16L78.98 60.16Q86.02 64.26 74.37 68.61L74.37 68.61Q72.58 69.50 70.40 70.14L70.40 70.14Q66.56 71.17 65.60 72Q64.64 72.83 64.26 74.62L64.26 74.62Q63.62 78.72 64.13 83.14Q64.64 87.55 65.79 88.19L65.79 88.19Q67.20 89.09 65.98 90.37Q64.77 91.65 64.77 94.72L64.77 94.72L64.77 97.92L68.99 93.82Q74.24 88.96 77.82 83.65Q81.41 78.34 80.90 76.54L80.90 76.54Q80.51 74.37 82.30 73.98L82.30 73.98Q84.61 73.09 86.34 73.86Q88.06 74.62 88.06 76.54L88.06 76.54Q88.06 79.10 84.35 84.29Q80.64 89.47 76.29 92.67L76.29 92.67Q71.30 96.64 71.30 97.47Q71.30 98.30 77.06 98.94L77.06 98.94Q99.97 100.61 106.37 106.62L106.37 106.62Q109.31 109.31 106.37 111.49L106.37 111.49Q105.47 112.38 104.70 112.19Q103.94 112 102.66 110.98L102.66 110.98Q98.43 106.88 87.17 105.09L87.17 105.09L74.11 102.91Q66.05 101.50 65.41 102.14Q64.77 102.78 64.64 116.03Q64.51 129.28 63.49 131.20L63.49 131.20Q61.57 135.04 58.11 133.70Q54.66 132.35 50.56 126.21L50.56 126.21Q45.95 119.04 47.36 119.04L47.36 119.04Q48.51 118.91 52.86 123.26L52.86 123.26Q57.09 127.49 58.24 127.49Q59.39 127.49 59.39 112.64L59.39 112.64L59.39 98.05L55.55 101.63Q52.10 105.60 46.85 112L46.85 112Q41.73 118.53 39.17 120.70Q36.61 122.88 35.20 122.75L35.20 122.75Q30.98 121.98 35.84 114.56L35.84 114.56Q37.89 111.23 39.68 106.05Q41.47 100.86 41.47 97.92L41.47 97.92Q41.47 96 39.81 94.91Q38.14 93.82 36.22 94.59L36.22 94.59Q34.30 95.10 33.54 93.95Q32.77 92.80 34.05 91.65L34.05 91.65Q35.97 89.73 38.78 89.66Q41.60 89.60 43.65 91.14L43.65 91.14Q45.57 92.67 45.89 93.89Q46.21 95.10 46.08 99.71L46.08 99.71L45.57 105.98L52.35 99.20L59.39 92.54L59.14 83.20Q58.88 74.75 57.86 74.62L57.86 74.62Q57.60 74.37 56.96 74.62L56.96 74.62Q55.04 75.26 47.62 77.06Q40.19 78.85 33.22 81.28Q26.24 83.71 24.32 83.71L24.32 83.71Q20.86 83.71 20.35 81.02Q19.84 78.34 22.78 76.29L22.78 76.29Q23.94 75.65 24.38 75.78Q24.83 75.90 25.47 77.18L25.47 77.18Q25.73 78.59 26.69 78.46Q27.65 78.34 32.64 76.54L32.64 76.54Q39.04 74.24 46.53 72.32Q54.02 70.40 56.58 69.50L56.58 69.50L59.39 68.48L59.14 56.19Q59.14 43.90 59.65 42.24Z"/>
</g>
<g transform="translate(255.909791015625,153.94422140625)">
<path fill="#ce30d5" d="M73.47 75.26L73.47 75.26Q84.74 69.63 89.86 71.49Q94.98 73.34 97.28 83.71L97.28 83.71Q99.20 91.39 97.09 100.93Q94.98 110.46 90.11 114.94L90.11 114.94Q87.94 117.38 86.78 117.70Q85.63 118.02 81.28 117.50L81.28 117.50Q68.86 116.22 67.07 109.31L67.07 109.31Q66.43 106.11 66.94 102.91L66.94 102.91Q67.58 99.71 71.17 95.74Q74.75 91.78 77.44 91.14L77.44 91.14Q80.51 90.62 84.22 92.67Q87.94 94.72 89.86 98.18L89.86 98.18L91.52 101.50L92.29 96.13Q93.44 86.91 90.11 80.26L90.11 80.26Q88.96 77.44 88.13 76.93Q87.30 76.42 84.61 76.54L84.61 76.54Q81.28 76.67 75.33 79.42Q69.38 82.18 64.38 85.50L64.38 85.50L59.65 88.96L59.65 97.15Q59.39 105.47 57.34 110.08L57.34 110.08Q55.55 114.30 52.29 117.50Q49.02 120.70 47.62 120.19L47.62 120.19Q46.21 119.55 45.25 116.99Q44.29 114.43 44.29 111.23Q44.29 108.03 46.59 100.67Q48.90 93.31 50.43 91.78L50.43 91.78Q52.86 88.96 50.43 87.04L50.43 87.04Q49.02 86.27 47.36 87.94Q45.70 89.60 44.29 93.31L44.29 93.31Q40.58 103.94 38.78 103.94L38.78 103.94Q37.38 103.94 38.27 100.48L38.27 100.48Q38.78 98.43 40.70 92.67L40.70 92.67Q43.65 83.84 46.21 82.43L46.21 82.43Q48.38 81.28 50.75 81.73Q53.12 82.18 54.78 83.84L54.78 83.84Q55.94 84.86 56.83 84.61Q57.73 84.35 60.54 82.43L60.54 82.43Q64.90 79.36 73.47 75.26ZM54.27 100.10L54.27 100.10Q54.78 95.36 53.89 95.62L53.89 95.62Q52.35 95.87 50.43 104.70L50.43 104.70Q49.02 110.46 49.79 110.98L49.79 110.98Q50.56 111.36 51.39 109.70Q52.22 108.03 53.12 105.28Q54.02 102.53 54.27 100.10ZM83.07 99.46L83.07 99.46Q81.15 97.54 78.78 97.41Q76.42 97.28 74.75 98.94L74.75 98.94Q70.27 104.19 72.13 108.22Q73.98 112.26 80.90 112.26L80.90 112.26Q87.30 112.26 89.86 105.60L89.86 105.60Q90.75 103.30 90.11 103.30L90.11 103.30Q89.98 103.30 89.22 103.55L89.22 103.55Q87.94 104.32 86.53 104.13Q85.12 103.94 85.12 102.78L85.12 102.78Q85.12 101.38 83.07 99.46ZM36.99 57.47L36.99 57.47Q37.50 55.55 38.08 54.98Q38.66 54.40 39.94 54.66L39.94 54.66Q41.22 54.78 41.47 55.49Q41.73 56.19 41.73 58.62L41.73 58.62Q41.73 63.10 38.91 82.56Q36.10 102.02 35.20 105.22L35.20 105.22Q34.82 106.62 36.16 106.62Q37.50 106.62 36.86 109.82L36.86 109.82Q35.71 113.66 35.01 114.94Q34.30 116.22 32.51 116.22L32.51 116.22Q30.59 116.22 30.21 115.01Q29.82 113.79 29.95 109.06L29.95 109.06Q30.34 99.71 33.92 80.26L33.92 80.26Q34.82 75.26 35.39 67.90Q35.97 60.54 36.99 57.47Z"/>
</g>
<g transform="translate(383.8646865234375,153.94422140625)">
<path fill="#ce30d5" d="M65.92 43.52L65.92 43.52Q66.69 41.47 67.78 41.15Q68.86 40.83 70.91 42.37L70.91 42.37Q71.81 43.26 71.94 44.10Q72.06 44.93 71.55 47.74L71.55 47.74Q70.27 51.84 69.70 55.10Q69.12 58.37 65.02 67.07L65.02 67.07L59.52 78.98Q57.60 83.58 53.12 96.38Q48.64 109.18 48 112.64L48 112.64Q46.08 122.50 42.75 123.14L42.75 123.14Q41.47 123.26 40.83 122.75Q40.19 122.24 40 121.15Q39.81 120.06 40.26 118.14Q40.70 116.22 41.73 113.15L41.73 113.15Q44.03 105.98 44.61 103.81Q45.18 101.63 44.35 101.63Q43.52 101.63 41.47 103.94L41.47 103.94Q38.27 106.62 21.50 117.89L21.50 117.89Q14.85 122.50 10.37 117.63L10.37 117.63Q6.91 114.18 5.95 110.72Q4.99 107.26 5.76 102.66L5.76 102.66Q7.42 93.70 13.82 76.80Q20.22 59.90 23.81 55.30L23.81 55.30Q25.47 52.99 25.98 49.79L25.98 49.79Q26.24 47.62 27.26 47.04Q28.29 46.46 30.59 47.10L30.59 47.10Q32.51 47.87 31.62 50.94Q30.72 54.02 26.62 61.82L26.62 61.82Q18.43 77.57 13.31 93.95L13.31 93.95Q11.14 101.38 11.90 108.10Q12.67 114.82 15.62 114.82L15.62 114.82Q16.64 114.82 25.60 109.06L25.60 109.06Q39.81 99.84 45.18 94.02Q50.56 88.19 54.14 78.72L54.14 78.72L58.75 66.30Q60.93 60.67 60.93 57.98Q60.93 55.30 61.89 54.72Q62.85 54.14 63.74 50.24Q64.64 46.34 65.92 43.52Z"/>
</g>
<g transform="translate(461.24495279947917,153.94422140625)">
<path fill="#ce30d5" d="M35.20 43.90L35.20 43.90Q38.91 41.60 45.57 41.86Q52.22 42.11 55.81 44.54L55.81 44.54Q59.01 46.59 59.65 47.94Q60.29 49.28 60.29 52.99L60.29 52.99Q60.29 58.88 51.07 69.50L51.07 69.50Q47.62 73.60 44.67 75.46Q41.73 77.31 37.38 78.72L37.38 78.72Q34.43 79.74 33.54 80.45Q32.64 81.15 33.02 81.79L33.02 81.79Q38.02 93.70 38.02 97.15L38.02 97.15Q38.02 99.46 40.45 104.45Q42.88 109.44 45.06 111.62L45.06 111.62Q48.13 114.56 51.07 114.56L51.07 114.56Q53.76 114.56 57.28 113.22Q60.80 111.87 62.72 109.82L62.72 109.82Q64.90 108.16 66.43 108.67Q67.97 109.18 67.33 111.23L67.33 111.23Q66.69 113.41 66.62 113.41Q66.56 113.41 62.59 115.84L62.59 115.84Q56.83 119.81 51.20 119.74Q45.57 119.68 41.22 115.58L41.22 115.58Q38.53 112.64 36.99 109.44Q35.46 106.24 32.51 96.51L32.51 96.51Q30.21 89.47 27.65 85.25Q25.09 81.02 23.68 81.41L23.68 81.41Q22.27 81.92 21.76 81.28L21.76 81.28Q20.99 80 20.16 80.19Q19.33 80.38 19.33 81.79L19.33 81.79Q19.33 83.58 18.56 84.42Q17.79 85.25 16.19 91.78Q14.59 98.30 13.76 101.12Q12.93 103.94 12.16 107.90L12.16 107.90Q11.52 112.51 10.88 115.52Q10.24 118.53 9.34 120.38Q8.45 122.24 7.42 122.50Q6.40 122.75 5.12 121.98L5.12 121.98Q3.20 120.96 3.71 118.14L3.71 118.14Q4.99 110.72 10.88 90.75L10.88 90.75L16.13 73.22Q19.20 62.08 22.27 53.38L22.27 53.38Q23.94 47.87 25.09 46.21Q26.24 44.54 27.39 44.16L27.39 44.16Q29.57 43.52 30.72 44.48Q31.87 45.44 35.20 43.90ZM54.72 52.80Q54.91 50.56 52.99 48.90Q51.07 47.23 44.67 46.85L44.67 46.85L38.40 46.46L35.07 50.18Q31.49 53.50 31.49 54.27Q31.49 55.04 29.70 55.04L29.70 55.04Q28.03 55.04 27.20 56.45Q26.37 57.86 23.94 64.77L23.94 64.77Q20.74 74.88 22.91 74.11L22.91 74.11Q23.68 73.73 26.37 75.14L26.37 75.14Q31.23 77.82 39.10 72.90Q46.98 67.97 51.97 59.14L51.97 59.14Q54.53 55.04 54.72 52.80Z"/>
</g>
<g transform="translate(532.3691715494792,153.94422140625)">
<path fill="#ce30d5" d="M33.15 44.67L33.15 44.67Q34.82 43.90 36.10 44.93Q37.38 45.95 37.38 48.19Q37.38 50.43 33.92 58.11L33.92 58.11Q26.11 76.29 24.58 81.92L24.58 81.92Q22.91 86.53 19.71 93.95L19.71 93.95Q17.02 99.84 14.85 105.92Q12.67 112 13.31 112.51L13.31 112.51Q13.82 113.15 25.98 112.96Q38.14 112.77 40.06 112.13L40.06 112.13Q41.47 111.62 43.26 113.15L43.26 113.15Q44.42 113.92 44.48 114.62Q44.54 115.33 43.90 116.99L43.90 116.99Q43.14 118.66 42.30 118.91Q41.47 119.17 37.76 118.66L37.76 118.66Q28.54 117.25 14.21 119.17L14.21 119.17Q6.27 120.32 4.99 119.17L4.99 119.17Q3.71 117.89 3.65 116.16Q3.58 114.43 4.99 114.05L4.99 114.05Q6.02 113.54 7.42 110.46Q8.83 107.39 13.31 96.77L13.31 96.77Q21.63 75.78 20.86 74.37L20.86 74.37Q20.22 73.47 21.06 73.47Q21.89 73.47 25.41 64.32Q28.93 55.17 29.18 52.48L29.18 52.48Q29.82 46.59 33.15 44.67Z"/>
</g>
<g transform="translate(580.5002063235961,153.94422140625)">
<path fill="#ce30d5" d="M41.34 114.94L41.34 114.94Q41.47 112.38 45.18 114.94L45.18 114.94Q45.95 115.33 46.46 116.10L46.46 116.10Q49.02 118.53 49.66 118.66L49.66 118.66Q51.07 119.30 53.25 122.94Q55.42 126.59 55.30 128.13L55.30 128.13Q54.40 132.74 46.46 124.42L46.46 124.42Q43.01 120.96 41.98 119.17Q40.96 117.38 41.34 114.94ZM55.74 88.45Q53.50 85.89 53.95 84.93Q54.40 83.97 55.04 83.97L55.04 83.97Q55.68 83.97 58.88 86.21Q62.08 88.45 63.87 90.37L63.87 90.37Q65.92 92.93 73.34 99.71L73.34 99.71L80.64 106.24L94.21 110.59Q106.11 114.18 110.08 115.84Q114.05 117.50 114.05 118.53L114.05 118.53Q114.05 119.81 111.81 119.87Q109.57 119.94 103.42 118.91L103.42 118.91Q93.31 116.86 84.67 113.73Q76.03 110.59 72.96 107.52L72.96 107.52Q58.88 94.34 58.37 92.29L58.37 92.29Q57.98 91.01 55.74 88.45ZM48.38 46.08L48.38 46.08Q49.66 45.06 50.75 45.31Q51.84 45.57 52.16 47.23Q52.48 48.90 52.22 51.58L52.22 51.58Q51.84 55.94 53.63 57.86L53.63 57.86Q56.45 60.54 59.01 61.50Q61.57 62.46 67.58 62.98L67.58 62.98Q75.52 63.36 76.93 63.87L76.93 63.87Q79.23 64.90 78.53 66.82Q77.82 68.74 74.88 69.38L74.88 69.38Q72.06 70.53 61.89 75.46Q51.71 80.38 50.94 81.41L50.94 81.41Q49.66 82.69 48.77 87.81L48.77 87.81Q47.23 96.77 42.62 106.50Q38.02 116.22 32.77 121.22L32.77 121.22Q30.08 123.90 25.15 126.27Q20.22 128.64 16.90 128.90L16.90 128.90Q13.95 129.41 13.95 128.38L13.95 128.38Q13.95 127.36 18.94 125.18L18.94 125.18Q24.06 123.26 27.52 119.68L27.52 119.68Q31.74 115.46 36.35 107.01Q40.96 98.56 42.37 92.54L42.37 92.54L43.78 86.02L44.03 84.10L39.30 86.53Q34.43 88.58 33.22 88.58Q32 88.58 30.40 89.54Q28.80 90.50 25.47 89.86L25.47 89.86Q20.35 88.45 22.27 84.10L22.27 84.10Q22.66 83.07 22.78 83.07Q22.91 83.07 23.81 84.10L23.81 84.10Q24.70 85.89 27.33 85.57Q29.95 85.25 36.48 82.30L36.48 82.30L44.67 78.98L45.31 73.34Q46.08 67.84 46.21 57.60L46.21 57.60Q46.46 50.94 46.85 48.96Q47.23 46.98 48.38 46.08ZM55.42 62.98L55.42 62.98Q52.99 60.16 52.22 63.36L52.22 63.36Q51.71 65.02 51.20 69.63L51.20 69.63L50.69 75.52L54.14 73.98Q57.98 72.32 62.34 70.14Q66.69 67.97 66.69 67.71Q66.69 67.46 61.57 65.86Q56.45 64.26 55.42 62.98Z"/>
</g>
<g transform="translate(708.4551018314086,153.94422140625)">
<path fill="#ce30d5" d="M69.89 94.59L69.89 94.59Q73.98 91.52 76.80 89.73Q79.62 87.94 81.54 87.04Q83.46 86.14 84.42 86.34Q85.38 86.53 85.89 87.68L85.89 87.68Q86.66 89.86 80.77 93.31L80.77 93.31L72.06 98.43Q67.46 101.12 67.20 101.50L67.20 101.50Q67.07 101.89 67.97 101.89L67.97 101.89Q68.35 102.14 68.74 102.14L68.74 102.14Q97.41 102.27 109.31 105.60L109.31 105.60Q115.71 107.14 117.44 107.90Q119.17 108.67 119.17 109.95L119.17 109.95Q119.17 110.72 118.78 111.23Q118.40 111.74 117.76 111.49L117.76 111.49Q116.48 111.36 106.69 109.44Q96.90 107.52 73.60 107.26L73.60 107.26Q49.15 106.37 48.77 105.73L48.77 105.73Q48.77 104.83 52.22 104.19L52.22 104.19Q56.70 103.68 59.01 102.34Q61.31 100.99 69.89 94.59ZM59.90 52.48L59.90 52.48Q63.62 50.18 67.46 53.25L67.46 53.25Q68.61 54.27 68.80 55.10Q68.99 55.94 68.35 57.86L68.35 57.86Q67.46 60.93 64.13 65.54L64.13 65.54L60.93 70.14L65.28 70.40Q68.22 70.53 68.99 71.04Q69.76 71.55 69.76 72.83L69.76 72.83Q69.76 75.01 66.88 76.74Q64 78.46 59.14 79.10L59.14 79.10Q56.32 79.62 55.81 79.42Q55.30 79.23 55.68 77.95L55.68 77.95Q56.32 76.16 54.85 75.01Q53.38 73.86 53.38 73.15Q53.38 72.45 58.24 66.18L58.24 66.18Q64.90 56.96 61.44 56.70L61.44 56.70Q60.67 56.70 59.78 56.96L59.78 56.96Q56.70 57.34 55.62 57.60Q54.53 57.86 53.38 57.09L53.38 57.09Q51.71 56.19 54.02 54.27L54.02 54.27Q55.17 53.50 56.70 53.50L56.70 53.50Q58.62 53.50 59.90 52.48ZM46.46 47.87L46.46 47.87Q47.10 46.72 48.45 47.04Q49.79 47.36 50.18 48.64L50.18 48.64Q50.69 50.18 51.07 68.29Q51.46 86.40 51.78 86.66Q52.10 86.91 58.62 84.22L58.62 84.22L76.93 77.31L90.88 71.94Q94.59 70.53 96.64 73.09L96.64 73.09Q98.18 74.75 96.13 76.54L96.13 76.54Q94.98 77.57 91.26 78.08L91.26 78.08Q86.27 79.10 74.43 83.14Q62.59 87.17 55.55 90.37L55.55 90.37Q52.86 91.52 52.29 92.42Q51.71 93.31 51.71 95.62L51.71 95.62Q51.46 98.82 49.41 99.97L49.41 99.97Q47.23 101.12 46.59 104.38Q45.95 107.65 45.31 119.04L45.31 119.04Q44.80 129.92 46.34 132.22L46.34 132.22Q48.77 136.32 53.25 131.46L53.25 131.46Q55.30 129.41 60.54 118.66L60.54 118.66Q65.66 108.42 66.30 109.18L66.30 109.18Q66.69 110.34 63.49 120.13Q60.29 129.92 58.62 132.22L58.62 132.22Q54.02 138.75 49.28 140.03Q44.54 141.31 41.86 136.45L41.86 136.45Q38.78 131.07 40.70 107.65L40.70 107.65Q40.96 104.96 41.15 102.59Q41.34 100.22 41.22 98.75Q41.09 97.28 41.09 97.28L41.09 97.28Q40.58 97.28 33.66 100.35L33.66 100.35Q20.99 106.37 15.68 107.90Q10.37 109.44 9.09 107.52L9.09 107.52Q8.45 106.50 10.18 104.70Q11.90 102.91 13.06 103.30L13.06 103.30Q14.08 103.68 21.76 100.67Q29.44 97.66 38.27 93.44L38.27 93.44L45.95 89.86L46.08 78.46Q46.08 66.94 46.02 57.92Q45.95 48.90 46.46 47.87ZM54.78 33.92L63.74 29.82Q68.22 27.78 69.95 27.78Q71.68 27.78 71.81 30.08L71.81 30.08Q72.06 31.23 71.36 32Q70.66 32.77 68.22 33.66L68.22 33.66Q63.62 35.84 56.19 38.14Q48.77 40.45 47.10 40.45L47.10 40.45Q44.54 40.45 44.54 39.42L44.54 39.42Q44.54 38.27 47.62 37.12L47.62 37.12Q51.07 35.58 54.78 33.92L54.78 33.92Z"/>
</g>
<g transform="translate(0,307.8884428125)">
<path fill="#ce30d5" d="M21.38 84.35L21.38 84.35Q23.17 82.56 24.38 82.56Q25.60 82.56 28.16 83.97L28.16 83.97Q30.85 85.63 30.85 88.58L30.85 88.58Q30.85 91.39 29.12 92.99Q27.39 94.59 24.58 94.08L24.58 94.08Q21.12 93.70 19.90 90.37Q18.69 87.04 21.38 84.35ZM61.57 83.33L61.57 83.33Q63.74 81.28 67.26 81.47Q70.78 81.66 72.32 83.84L72.32 83.84Q75.26 88.32 71.81 91.65L71.81 91.65Q70.27 93.06 67.90 93.76Q65.54 94.46 64.64 93.70L64.64 93.70Q63.87 93.18 62.40 90.88Q60.93 88.58 60.42 86.91L60.42 86.91Q59.90 85.38 61.57 83.33ZM107.26 81.28L107.26 81.28Q109.44 81.02 109.95 80.64L109.95 80.64Q110.98 80.38 112.26 83.65Q113.54 86.91 113.41 88.70L113.41 88.70Q112.90 93.44 106.50 91.90L106.50 91.90Q102.53 90.75 102.02 88.96L102.02 88.96Q101.38 87.30 103.30 84.48Q105.22 81.66 107.26 81.28Z"/>
</g>
<g transform="translate(127.9548955078125,307.8884428125)">
<path fill="#ce30d5" d="M21.38 84.35L21.38 84.35Q23.17 82.56 24.38 82.56Q25.60 82.56 28.16 83.97L28.16 83.97Q30.85 85.63 30.85 88.58L30.85 88.58Q30.85 91.39 29.12 92.99Q27.39 94.59 24.58 94.08L24.58 94.08Q21.12 93.70 19.90 90.37Q18.69 87.04 21.38 84.35ZM61.57 83.33L61.57 83.33Q63.74 81.28 67.26 81.47Q70.78 81.66 72.32 83.84L72.32 83.84Q75.26 88.32 71.81 91.65L71.81 91.65Q70.27 93.06 67.90 93.76Q65.54 94.46 64.64 93.70L64.64 93.70Q63.87 93.18 62.40 90.88Q60.93 88.58 60.42 86.91L60.42 86.91Q59.90 85.38 61.57 83.33ZM107.26 81.28L107.26 81.28Q109.44 81.02 109.95 80.64L109.95 80.64Q110.98 80.38 112.26 83.65Q113.54 86.91 113.41 88.70L113.41 88.70Q112.90 93.44 106.50 91.90L106.50 91.90Q102.53 90.75 102.02 88.96L102.02 88.96Q101.38 87.30 103.30 84.48Q105.22 81.66 107.26 81.28Z"/>
</g>
</g>
</svg>