<?xml version="1.0" encoding="utf-8"?>
<!DOCTYPE svg PUBLIC "-//W3C//DTD SVG 1.1//EN" "http://www.w3.org/Graphics/SVG/1.1/DTD/svg11.dtd">
<svg version="1.1" xmlns="http://www.w3.org/2000/svg" width="1163.1100001660154" height="328.880836640625" viewBox="0 0 1163.1100001660154 328.880836640625">
<g>
<g>
<rect fill="#FFFFFF" width="0" height="0" />
</g>
<g transform="translate(0,0)">
<path fill="#72cee4" d="M69.12 42.62L69.12 42.62Q79.23 38.02 83.84 41.47L83.84 41.47Q87.42 43.78 84.10 49.92L84.10 49.92Q82.56 52.61 78.66 56.96Q74.75 61.31 73.34 61.31L73.34 61.31Q72.32 61.31 70.21 64Q68.10 66.69 67.26 76.35Q66.43 86.02 67.14 86.78Q67.84 87.55 71.04 87.30L71.04 87.30Q73.09 87.04 74.50 85.82Q75.90 84.61 78.72 80.26L78.72 80.26Q91.39 62.21 89.60 60.03L89.60 60.03Q88.45 58.62 90.11 57.15Q91.78 55.68 94.21 55.68L94.21 55.68Q97.15 55.68 97.60 57.28Q98.05 58.88 95.87 63.36L95.87 63.36Q93.95 67.71 87.23 77.12Q80.51 86.53 79.36 86.53L79.36 86.53Q78.08 86.53 78.46 87.49Q78.85 88.45 87.17 90.37L87.17 90.37Q102.14 93.31 108.29 97.86Q114.43 102.40 110.59 105.22L110.59 105.22Q109.44 106.11 107.65 104.32L107.65 104.32Q101.50 97.92 80.38 94.34L80.38 94.34Q70.40 92.80 68.61 92.16L68.61 92.16Q67.20 91.39 66.75 91.84Q66.30 92.29 65.92 94.08L65.92 94.08Q65.15 96.77 65.47 106.43Q65.79 116.10 66.30 118.27L66.30 118.27Q66.94 120.19 67.58 119.17L67.58 119.17Q67.84 118.66 69.63 115.97L69.63 115.97Q72.58 111.36 74.75 105.60L74.75 105.60Q78.34 95.87 78.34 101.76L78.34 101.76Q78.34 106.88 75.01 115.65Q71.68 124.42 68.86 126.85L68.86 126.85Q66.05 129.28 64.38 128.13Q62.72 126.98 61.44 121.86L61.44 121.86Q59.90 116.86 60.10 107.46Q60.29 98.05 62.08 67.07L62.08 67.07Q62.46 63.36 62.85 61.44Q63.23 59.52 63.81 58.50Q64.38 57.47 65.22 57.60Q66.05 57.73 67.58 58.37L67.58 58.37Q68.99 59.52 70.02 58.82Q71.04 58.11 74.62 54.27L74.62 54.27Q79.36 48.64 79.36 47.10L79.36 47.10Q79.36 45.57 77.70 45.38Q76.03 45.18 73.41 45.95Q70.78 46.72 68.10 48.38L68.10 48.38Q63.36 51.33 61.82 50.37Q60.29 49.41 60.29 48.13L60.29 48.13Q60.29 47.36 61.50 46.46Q62.72 45.57 69.12 42.62ZM35.84 40.96L35.84 40.96Q42.11 39.04 44.35 40.70Q46.59 42.37 45.70 48.38L45.70 48.38Q45.18 52.86 44.67 63.30Q44.16 73.73 44.80 75.65L44.80 75.65Q44.93 76.42 45.31 76.54Q45.70 76.67 46.59 76.03L46.59 76.03Q49.66 74.24 48.90 76.42L48.90 76.42Q48.38 78.46 45.70 82.82L45.70 82.82Q44.16 85.12 44.29 91.01L44.29 91.01Q45.31 108.16 44.80 113.66Q44.29 119.17 42.11 119.17L42.11 119.17Q40.83 119.17 37.76 116.03Q34.69 112.90 34.43 111.62L34.43 111.62Q33.79 109.95 34.69 109.31Q35.58 108.67 36.61 109.70L36.61 109.70Q37.76 110.72 38.40 110.72L38.40 110.72Q39.17 110.72 39.30 101.57Q39.42 92.42 38.40 91.78L38.40 91.78Q38.02 91.01 34.43 94.34L34.43 94.34Q31.49 97.15 28.99 97.60Q26.50 98.05 25.34 96.13L25.34 96.13Q24.70 94.98 24.32 96.77L24.32 96.77Q24.19 98.18 24.06 101.12L24.06 101.12Q23.04 111.10 21.31 122.37Q19.58 133.63 18.94 134.27L18.94 134.27Q17.92 135.17 16.90 134.66L16.90 134.66Q15.87 133.89 16.06 130.11Q16.26 126.34 17.66 111.62L17.66 111.62Q20.74 81.41 21.76 65.54L21.76 65.54Q22.14 61.57 20.54 57.28Q18.94 52.99 20.22 51.33L20.22 51.33Q22.27 48.13 25.60 53.25L25.60 53.25Q28.03 57.73 28.03 63.87L28.03 63.87L28.03 68.99L30.72 68.48Q33.41 67.71 36.35 70.27L36.35 70.27L39.42 72.58L39.17 58.75L38.91 44.93L35.58 44.80Q32.64 44.42 32.64 43.07Q32.64 41.73 35.84 40.96ZM32.51 74.24L32.51 74.24Q31.23 73.47 30.66 73.54Q30.08 73.60 28.16 74.88L28.16 74.88Q26.24 76.29 26.18 80.19Q26.11 84.10 25.34 88.77Q24.58 93.44 24.70 93.70L24.70 93.70Q24.83 93.95 25.66 92.86Q26.50 91.78 27.58 89.86Q28.67 87.94 29.70 85.95Q30.72 83.97 31.62 81.98Q32.51 80 32.64 78.98L32.64 78.98Q33.92 75.01 32.51 74.24ZM39.17 80.51L39.17 80.51Q39.42 77.95 38.91 77.95L38.91 77.95Q38.14 77.95 35.97 82.82Q33.79 87.68 34.18 88.19L34.18 88.19Q34.56 88.45 35.78 87.17Q36.99 85.89 38.08 83.90Q39.17 81.92 39.17 80.51Z"/>
</g>
<g transform="translate(127.9548955078125,0)">
<path fill="#72cee4" d="M38.78 45.44L38.78 45.44Q43.14 43.52 46.78 43.20Q50.43 42.88 51.07 44.42L51.07 44.42Q52.35 47.74 45.44 55.17L45.44 55.17Q42.24 58.62 41.92 59.39Q41.60 60.16 43.14 61.31L43.14 61.31Q46.98 63.87 42.62 67.58L42.62 67.58Q39.55 70.02 33.02 77.18L33.02 77.18Q29.70 81.02 30.72 80.77L30.72 80.77Q44.16 75.39 50.05 75.65L50.05 75.65Q54.14 75.65 55.30 76.22Q56.45 76.80 56.45 78.72L56.45 78.72Q56.45 81.54 51.65 85.31Q46.85 89.09 41.47 90.62L41.47 90.62L39.17 91.14L38.78 108.42Q38.40 119.81 38.02 123.14Q37.63 126.46 36.61 127.62L36.61 127.62Q35.46 128.77 34.62 128.70Q33.79 128.64 30.85 127.10L30.85 127.10Q28.54 125.95 26.37 124.10Q24.19 122.24 22.91 120.83Q21.63 119.42 22.27 118.78L22.27 118.78Q22.78 118.27 26.88 120.19L26.88 120.19Q31.49 122.62 32.38 121.86L32.38 121.86Q33.41 120.70 33.15 107.26L33.15 107.26Q33.02 97.66 32.70 97.28Q32.38 96.90 28.54 100.74L28.54 100.74Q21.63 107.65 19.97 106.37L19.97 106.37Q19.33 105.73 20.48 103.68L20.48 103.68Q21.89 100.99 22.66 100.74L22.66 100.74Q24.19 99.97 27.90 93.95Q31.62 87.94 30.85 87.17L30.85 87.17Q30.46 86.78 25.34 89.98L25.34 89.98Q7.42 101.38 5.76 96.77L5.76 96.77Q5.12 95.23 8.96 92.16L8.96 92.16L17.02 85.38L25.86 78.08Q30.34 74.62 32.26 71.94L32.26 71.94L33.92 69.25L32 69.89Q30.72 70.27 29.57 69.38Q28.42 68.48 28.42 67.20L28.42 67.20Q28.42 66.56 36.48 58.24L36.48 58.24Q44.93 49.66 42.24 49.41L42.24 49.41Q41.09 49.41 37.25 50.94L37.25 50.94Q33.15 52.35 30.46 52.10L30.46 52.10Q28.80 51.97 28.29 51.26Q27.78 50.56 27.65 48.26L27.65 48.26Q27.39 46.21 27.71 45.50Q28.03 44.80 29.31 44.80L29.31 44.80Q31.23 44.80 31.23 46.21L31.23 46.21Q31.23 46.98 31.55 47.23Q31.87 47.49 32.70 47.42Q33.54 47.36 34.88 46.85Q36.22 46.34 38.78 45.44ZM48.90 80.77L48.90 80.77Q48.90 80.38 47.55 80.38Q46.21 80.38 44.48 80.70Q42.75 81.02 41.98 81.41L41.98 81.41Q41.47 81.79 40.96 82.94Q40.45 84.10 40.45 84.93Q40.45 85.76 41.09 86.02L41.09 86.02Q41.47 86.02 45.18 83.52Q48.90 81.02 48.90 80.77ZM70.53 39.30L70.53 39.30Q71.81 38.27 72.90 38.40Q73.98 38.53 75.90 39.81L75.90 39.81Q77.95 41.34 77.44 43.65L77.44 43.65Q77.06 45.18 77.25 45.50Q77.44 45.82 78.59 45.44L78.59 45.44Q85.12 42.75 87.94 45.82L87.94 45.82Q90.11 48.13 90.11 48.70Q90.11 49.28 84.93 56.06Q79.74 62.85 78.34 65.41L78.34 65.41Q77.18 67.33 77.38 68.03Q77.57 68.74 79.49 69.89L79.49 69.89Q86.27 74.62 96.45 78.66Q106.62 82.69 114.69 83.71L114.69 83.71Q119.81 84.48 121.47 85.50Q123.14 86.53 121.73 88.45L121.73 88.45Q120.96 89.86 112.38 88.32L112.38 88.32Q94.46 85.25 77.18 75.01L77.18 75.01L73.98 73.34L72.19 75.65Q70.27 77.95 65.28 84.99L65.28 84.99Q62.21 89.22 61.50 90.75Q60.80 92.29 61.57 92.67L61.57 92.67Q63.49 93.82 66.43 92.10Q69.38 90.37 69.76 87.94L69.76 87.94Q70.53 84.22 73.98 83.46L73.98 83.46Q77.06 82.94 77.06 86.14L77.06 86.14Q77.06 87.30 77.50 87.49Q77.95 87.68 79.87 87.30L79.87 87.30Q88.58 85.63 90.88 86.78L90.88 86.78Q94.34 88.70 90.88 101.50L90.88 101.50Q87.55 114.18 83.71 121.86L83.71 121.86Q81.28 126.46 79.74 128.13Q78.21 129.79 76.03 129.79L76.03 129.79Q71.04 129.79 68.10 121.09L68.10 121.09Q65.66 113.41 67.20 112.90L67.20 112.90Q68.35 112.51 70.46 117.57Q72.58 122.62 74.05 123.52Q75.52 124.42 77.44 121.86L77.44 121.86Q79.87 118.66 83.52 108.10Q87.17 97.54 87.17 93.31L87.17 93.31Q87.17 91.90 86.59 91.65Q86.02 91.39 83.20 91.90L83.20 91.90Q79.36 92.54 78.40 93.38Q77.44 94.21 76.03 94.21L76.03 94.21Q75.14 94.21 72.83 97.22Q70.53 100.22 69.38 102.91L69.38 102.91Q68.35 105.22 64 111.42Q59.65 117.63 57.98 119.42L57.98 119.42Q54.91 122.24 54.91 119.81L54.91 119.81Q55.04 117.63 57.73 112.90L57.73 112.90Q61.18 106.88 63.36 101.89L63.36 101.89L65.66 97.15L63.10 97.15Q60.80 97.15 59.65 95.74L59.65 95.74Q59.14 94.85 58.05 95.42Q56.96 96 54.14 98.82L54.14 98.82Q47.23 105.60 44.29 105.60L44.29 105.60Q41.86 105.60 44.67 102.27L44.67 102.27Q45.44 101.50 46.59 100.61L46.59 100.61Q49.92 97.92 53.76 92.67L53.76 92.67Q58.37 86.40 63.94 78.14Q69.50 69.89 69.50 69.12L69.50 69.12Q69.50 68.35 64.32 65.92Q59.14 63.49 59.14 62.46L59.14 62.46Q59.14 61.70 60.54 61.25Q61.95 60.80 63.10 61.18Q64.26 61.57 66.56 62.02Q68.86 62.46 70.91 63.10L70.91 63.10Q72.06 63.23 73.22 62.08Q74.37 60.93 76.80 57.34L76.80 57.34Q80.90 51.33 80.58 50.94Q80.26 50.56 74.75 53.89L74.75 53.89Q70.27 56.58 67.78 56.96Q65.28 57.34 65.47 55.42Q65.66 53.50 68.10 49.41L68.10 49.41Q70.53 46.21 70.78 45.06Q71.04 43.90 70.27 42.37L70.27 42.37Q69.50 40.96 69.50 40.38Q69.50 39.81 70.53 39.30Z"/>
</g>
<g transform="translate(255.909791015625,0)">
<path fill="#72cee4" d="M65.92 103.17L65.92 103.17Q66.43 102.02 67.33 101.95Q68.22 101.89 69.25 102.78Q70.27 103.68 71.04 105.09L71.04 105.09Q71.94 107.01 72.38 107.07Q72.83 107.14 74.24 105.73L74.24 105.73Q77.82 102.53 84.03 101.89Q90.24 101.25 92.16 103.94L92.16 103.94Q93.44 105.98 93.38 107.78Q93.31 109.57 91.65 113.54L91.65 113.54Q89.60 117.89 90.82 119.17Q92.03 120.45 90.75 122.82Q89.47 125.18 85.63 125.18L85.63 125.18Q75.39 125.18 82.69 116.74L82.69 116.74Q85.38 113.92 86.40 111.17Q87.42 108.42 86.27 107.33Q85.12 106.24 81.15 107.20Q77.18 108.16 74.88 109.70L74.88 109.70L72.45 112L73.98 119.04Q74.88 124.03 74.82 125.18Q74.75 126.34 73.98 127.62L73.98 127.62Q72.45 128.64 70.98 128.38Q69.50 128.13 68.86 126.34L68.86 126.34Q68.22 124.54 66.94 114.24Q65.66 103.94 65.92 103.17ZM66.56 91.14L66.56 91.14Q67.58 89.98 73.22 90.24Q78.85 90.50 84.61 92.16L84.61 92.16Q98.56 96 108.61 99.97Q118.66 103.94 118.66 105.98L118.66 105.98Q118.66 107.78 117.18 108.93Q115.71 110.08 114.18 110.08Q112.64 110.08 111.87 108.93L111.87 108.93Q111.36 107.52 109.95 107.52Q108.54 107.52 108.54 106.62L108.54 106.62Q108.54 105.98 106.82 105.22Q105.09 104.45 96.38 101.12L96.38 101.12Q71.68 92.29 69.76 93.06L69.76 93.06Q68.35 93.57 66.88 92.99Q65.41 92.42 66.56 91.14ZM56.83 76.16L56.83 76.16Q59.39 70.78 61.06 69.63Q62.72 68.48 64.64 70.66L64.64 70.66Q65.79 72.06 71.42 72.06L71.42 72.06Q76.93 72.06 79.10 72.64Q81.28 73.22 81.79 74.88L81.79 74.88Q82.05 76.80 80.45 77.76Q78.85 78.72 72.06 81.02L72.06 81.02Q64 83.33 63.23 84.16Q62.46 84.99 60.74 84.99Q59.01 84.99 52.10 93.70Q45.18 102.40 40.70 106.62L40.70 106.62Q37.76 109.44 36.99 110.78Q36.22 112.13 36.35 113.66L36.35 113.66Q37.12 117.25 39.30 114.56L39.30 114.56Q40.45 113.41 46.59 110.91Q52.74 108.42 55.17 108.42L55.17 108.42Q59.39 108.42 60.03 112.13L60.03 112.13Q60.54 113.66 61.18 114.18L61.18 114.18Q62.59 115.20 61.12 118.21Q59.65 121.22 56.70 124.03L56.70 124.03Q50.43 129.79 47.74 126.34L47.74 126.34Q46.98 125.70 47.36 124.42Q47.74 123.14 49.79 119.81L49.79 119.81Q53.12 114.30 53.12 114.18L53.12 114.18Q52.48 113.92 48.19 115.58Q43.90 117.25 42.50 118.53L42.50 118.53Q40.96 119.94 40.70 120.96Q40.45 121.98 40.83 125.57L40.83 125.57Q41.60 130.69 40.83 132.67Q40.06 134.66 37.76 134.40L37.76 134.40Q36.22 134.14 35.52 133.44Q34.82 132.74 34.43 130.30L34.43 130.30Q33.66 126.85 32 121.34L32 121.34L30.59 115.97L26.24 119.42Q22.27 122.88 17.66 127.36L17.66 127.36Q10.62 134.14 9.60 130.69L9.60 130.69Q9.47 130.30 9.47 130.05L9.47 130.05Q9.47 128.26 10.94 127.04Q12.42 125.82 12.42 126.66Q12.42 127.49 16 123.78Q19.58 120.06 24.83 115.58Q30.08 111.10 29.82 110.46L29.82 110.46Q29.06 109.44 30.78 107.52Q32.51 105.60 33.28 105.98L33.28 105.98Q34.82 106.50 40.77 99.78Q46.72 93.06 45.44 91.90L45.44 91.90Q45.06 91.26 39.04 93.57L39.04 93.57Q35.20 94.98 33.92 95.04Q32.64 95.10 31.62 94.46L31.62 94.46Q27.26 90.88 34.30 89.09L34.30 89.09Q35.71 88.96 37.12 88.58L37.12 88.58Q40.83 87.94 46.27 85.57Q51.71 83.20 52.48 83.20Q53.25 83.20 56.83 76.16ZM71.55 75.65L71.55 75.65Q71.94 75.14 71.04 75.01L71.04 75.01Q70.27 74.88 68.61 74.88L68.61 74.88Q64.26 74.88 62.85 76.93L62.85 76.93Q62.46 77.57 62.85 78.02Q63.23 78.46 67.07 77.44Q70.91 76.42 71.55 75.65ZM84.61 65.54L84.61 65.54Q85.63 63.87 88.96 64.70Q92.29 65.54 93.31 67.84L93.31 67.84Q94.21 69.76 92.54 71.94L92.54 71.94Q90.24 74.50 88.32 73.73L88.32 73.73Q87.81 73.60 87.81 72.96L87.81 72.96Q87.81 71.94 85.89 69.25Q83.97 66.56 84.61 65.54ZM26.75 47.87L26.75 47.87Q28.03 46.59 28.54 46.46Q29.06 46.34 31.10 47.36L31.10 47.36Q33.92 48.90 35.84 52.10L35.84 52.10L37.76 55.30L40.70 53.12Q43.52 50.69 49.02 48.26L49.02 48.26Q55.55 44.93 58.05 46.91Q60.54 48.90 57.73 55.30L57.73 55.30Q56.83 57.34 56.83 57.98Q56.83 58.62 57.73 59.52L57.73 59.52Q59.65 60.80 58.62 63.10Q57.60 65.41 54.40 66.69L54.40 66.69Q47.36 69.76 45.18 66.56L45.18 66.56Q44.54 65.41 44.99 64.13Q45.44 62.85 48.26 59.65L48.26 59.65Q53.12 53.76 52.22 52.86Q51.33 51.97 44.80 55.68L44.80 55.68Q41.98 57.22 41.41 58.05Q40.83 58.88 40.96 61.57L40.96 61.57Q41.34 65.54 42.69 67.58Q44.03 69.63 44.03 72.06Q44.03 74.50 42.50 75.78L42.50 75.78Q41.60 76.54 40.70 76.54Q39.81 76.54 39.10 75.39Q38.40 74.24 37.44 72.19Q36.48 70.14 35.58 66.69L35.58 66.69Q31.10 52.48 28.54 52.48L28.54 52.48Q26.75 52.48 26.30 51.01Q25.86 49.54 26.75 47.87ZM63.62 45.63Q62.59 43.01 63.68 41.60Q64.77 40.19 65.66 40.26Q66.56 40.32 67.97 42.11L67.97 42.11Q69.50 43.90 71.04 43.01L71.04 43.01Q74.11 41.60 80 41.73Q85.89 41.86 86.78 43.65L86.78 43.65Q87.17 45.06 85.82 48.19Q84.48 51.33 81.92 53.38L81.92 53.38Q79.23 56.19 80.32 57.28Q81.41 58.37 81.41 59.01L81.41 59.01Q81.41 60.29 79.62 61.50Q77.82 62.72 76.29 62.72L76.29 62.72Q74.24 62.72 71.68 64.77L71.68 64.77Q67.58 67.97 65.92 65.41L65.92 65.41Q65.41 64.26 65.02 56.26Q64.64 48.26 63.62 45.63ZM79.36 47.62L79.36 47.62Q79.36 47.10 77.70 46.98Q76.03 46.85 73.98 47.10Q71.94 47.36 71.42 47.87L71.42 47.87Q70.27 48.90 70.27 51.26Q70.27 53.63 71.04 55.17L71.04 55.17Q71.55 55.94 72.51 55.49Q73.47 55.04 75.90 52.48L75.90 52.48Q79.36 48.77 79.36 47.62Z"/>
</g>
<g transform="translate(383.8646865234375,0)">
<path fill="#72cee4" d="M61.06 83.33L61.06 83.33Q61.06 81.02 71.42 83.20L71.42 83.20Q76.42 84.10 79.74 84.48L79.74 84.48Q86.78 85.25 84.10 89.09L84.10 89.09Q83.20 90.50 81.54 90.30Q79.87 90.11 72.06 87.81L72.06 87.81Q61.06 84.48 61.06 83.33ZM59.14 43.52L59.14 43.52Q62.21 42.75 63.55 45.18Q64.90 47.62 64.32 52.67Q63.74 57.73 64.64 57.73Q65.54 57.73 74.94 54.98Q84.35 52.22 87.04 52.22L87.04 52.22Q91.26 52.22 93.18 57.02Q95.10 61.82 97.02 76.42L97.02 76.42Q98.18 85.50 97.92 90.88Q97.66 96.26 95.74 108.16L95.74 108.16Q93.95 119.04 92.61 122.05Q91.26 125.06 87.94 124.80L87.94 124.80Q82.05 124.80 76.74 119.74Q71.42 114.69 65.54 103.55L65.54 103.55Q62.21 97.15 63.55 96.70Q64.90 96.26 64.90 97.54L64.90 97.54Q64.90 98.94 70.40 106.43Q75.90 113.92 78.98 116.74L78.98 116.74Q82.18 119.68 84.99 120.26Q87.81 120.83 88.58 118.59Q89.34 116.35 91.07 104Q92.80 91.65 92.80 87.81L92.80 87.81Q92.80 82.05 90.94 71.04Q89.09 60.03 87.81 57.98L87.81 57.98Q87.04 56.83 84.93 57.02Q82.82 57.22 77.18 59.14L77.18 59.14Q70.66 61.44 66.82 62.08L66.82 62.08Q63.62 62.59 62.46 63.94Q61.31 65.28 58.37 72.19L58.37 72.19Q55.30 79.74 53.76 82.05L53.76 82.05Q50.18 87.81 49.02 90.11L49.02 90.11Q48.26 91.78 45.82 94.08Q43.39 96.38 42.24 95.36Q41.09 94.34 42.62 92.54L42.62 92.54Q44.16 90.62 49.09 80.77Q54.02 70.91 54.78 68.35L54.78 68.35Q55.30 65.66 54.40 65.54L54.40 65.54Q53.38 65.28 47.10 66.69L47.10 66.69Q37.25 68.74 35.71 71.30L35.71 71.30Q34.94 72.58 35.52 89.66Q36.10 106.75 37.12 107.90L37.12 107.90Q38.02 109.06 38.14 115.71Q38.27 122.37 36.74 123.39Q35.20 124.42 34.05 123.52L34.05 123.52Q30.59 120.06 30.21 86.40L30.21 86.40L29.95 66.69L32.64 66.69Q35.58 66.69 37.57 65.54Q39.55 64.38 48.26 62.21L48.26 62.21Q54.78 60.42 56 59.65Q57.22 58.88 57.98 56.19L57.98 56.19Q60.29 48.51 57.22 46.21L57.22 46.21Q55.55 44.93 56.32 44.54L56.32 44.54Q56.83 44.29 59.14 43.52Z"/>
</g>
<g transform="translate(511.81958203125,0)">
<path fill="#72cee4" d="M95.87 39.81L95.87 39.81Q98.82 39.04 99.52 39.10Q100.22 39.17 101.89 40.70L101.89 40.70Q103.30 41.73 103.68 42.94Q104.06 44.16 104.06 47.10L104.06 47.10Q103.94 51.84 102.78 54.02L102.78 54.02Q102.02 55.30 102.14 55.87Q102.27 56.45 103.30 57.09L103.30 57.09Q109.18 60.54 113.02 67.46L113.02 67.46Q118.14 76.29 113.66 80.26L113.66 80.26Q111.87 82.05 107.97 83.46Q104.06 84.86 103.17 84.22L103.17 84.22Q102.27 83.71 96.70 82.75Q91.14 81.79 88.58 81.28L88.58 81.28L86.14 80.64L86.14 104.70Q86.14 128.90 85.25 134.02L85.25 134.02Q83.46 143.49 82.05 144.26L82.05 144.26Q81.79 144.13 81.02 116.99Q80.26 89.86 80.38 82.69L80.38 82.69Q80.26 68.86 78.46 65.66L78.46 65.66Q77.57 66.94 66.56 88.06L66.56 88.06Q63.49 93.82 59.14 98.56L59.14 98.56Q51.58 106.50 47.87 102.91L47.87 102.91Q46.98 101.89 47.17 101.25Q47.36 100.61 48.90 98.82L48.90 98.82Q51.33 96.13 52.93 93.57Q54.53 91.01 54.02 90.50L54.02 90.50Q53.12 89.73 49.41 91.33Q45.70 92.93 43.90 95.10L43.90 95.10Q41.34 98.05 40.83 103.17L40.83 103.17Q39.94 110.21 39.55 112.45Q39.17 114.69 37.89 115.20L37.89 115.20Q36.74 115.58 36.10 115.14Q35.46 114.69 34.75 113.09Q34.05 111.49 33.73 108.48Q33.41 105.47 33.02 100.61L33.02 100.61Q31.74 87.94 31.42 87.62Q31.10 87.30 23.17 91.65Q15.23 96 13.70 95.49L13.70 95.49Q9.86 94.08 15.49 90.24L15.49 90.24Q16 89.86 16.77 89.47L16.77 89.47Q29.18 82.05 39.42 71.94L39.42 71.94Q45.82 65.66 45.50 65.28Q45.18 64.90 42.82 65.86Q40.45 66.82 38.27 65.02L38.27 65.02L36.22 63.36L38.78 59.78Q41.22 56.19 44.29 52.61L44.29 52.61Q47.10 49.41 46.59 49.15L46.59 49.15Q46.34 49.15 45.06 49.54L45.06 49.54Q42.50 50.05 37.25 50.69L37.25 50.69Q33.15 51.33 32.45 51.01Q31.74 50.69 32.13 49.15L32.13 49.15Q32.26 46.85 34.75 46.66Q37.25 46.46 40.96 45.44Q44.67 44.42 45.82 44.16L45.82 44.16Q53.12 42.88 55.81 41.09L55.81 41.09Q57.98 39.81 59.46 40.38Q60.93 40.96 60.74 42.62Q60.54 44.29 58.62 45.70L58.62 45.70Q55.42 48.77 51.20 52.74Q46.98 56.70 46.34 57.73L46.34 57.73Q45.18 58.88 45.82 58.88L45.82 58.88Q46.46 58.88 48.13 58.50L48.13 58.50Q50.94 57.60 53.50 57.60Q56.06 57.60 56.70 58.50L56.70 58.50Q57.73 60.29 54.66 63.62Q51.58 66.94 40.45 76.29L40.45 76.29L39.17 77.57Q39.30 77.44 42.11 76.03L42.11 76.03Q45.44 74.37 52.99 71.23Q60.54 68.10 63.23 67.46L63.23 67.46Q65.54 66.82 66.50 67.84Q67.46 68.86 67.07 70.78L67.07 70.78Q66.82 72.06 65.79 72.70Q64.77 73.34 62.59 73.73L62.59 73.73Q59.01 73.98 50.75 77.70Q42.50 81.41 39.81 83.33L39.81 83.33Q35.97 86.78 37.25 93.18L37.25 93.18L37.76 96L41.98 91.78Q48.64 85.38 55.55 84.10L55.55 84.10Q59.14 83.58 60.54 85.25L60.54 85.25Q61.70 86.66 62.34 86.21Q62.98 85.76 67.07 80.38L67.07 80.38Q70.53 76.29 75.14 66.11Q79.74 55.94 80.26 52.48L80.26 52.48Q80.51 46.85 81.15 45.25Q81.79 43.65 83.33 43.65L83.33 43.65Q85.25 43.65 85.70 44.99Q86.14 46.34 89.66 43.52Q93.18 40.70 95.87 39.81ZM98.18 45.06L98.18 45.06Q97.02 43.78 96.32 43.78Q95.62 43.78 93.18 45.18L93.18 45.18Q87.30 49.15 86.14 53.76L86.14 53.76Q85.38 56.19 85.18 62.46Q84.99 68.74 85.50 73.22L85.50 73.22L86.14 77.82L95.49 78.46Q104.58 79.10 107.46 77.70Q110.34 76.29 110.34 75.39Q110.34 74.50 107.26 69.06Q104.19 63.62 101.38 62.85L101.38 62.85Q97.54 61.44 96.58 60.03Q95.62 58.62 96.77 56.19L96.77 56.19Q98.30 52.61 98.62 49.41Q98.94 46.21 98.18 45.06ZM43.33 33.15Q42.37 32 42.82 31.23Q43.26 30.46 48.19 30.59Q53.12 30.72 54.02 31.49L54.02 31.49Q54.78 32.26 54.40 34.62Q54.02 36.99 52.86 38.14L52.86 38.14Q51.58 39.17 47.62 36.48L47.62 36.48Q44.29 34.30 43.33 33.15Z"/>
</g>
<g transform="translate(639.7744775390624,0)">
<path fill="#72cee4" d="M84.86 76.80L84.86 76.80Q94.08 75.26 98.82 77.70L98.82 77.70Q104.19 80.64 96.51 88.32L96.51 88.32Q95.36 89.47 94.53 90.50Q93.70 91.52 93.31 92.29Q92.93 93.06 93.31 93.06L93.31 93.06Q93.82 93.70 93.63 94.66Q93.44 95.62 92.29 96.45Q91.14 97.28 89.86 97.66L89.86 97.66Q80.64 99.97 78.85 99.07L78.85 99.07Q76.67 97.92 77.38 96.19Q78.08 94.46 81.41 92.93L81.41 92.93Q85.38 91.01 90.37 86.40L90.37 86.40L95.62 81.54L89.60 81.54Q83.71 81.54 80.58 82.88Q77.44 84.22 76.16 87.94L76.16 87.94Q74.62 91.52 74.75 94.85L74.75 94.85Q75.01 100.22 71.68 100.22L71.68 100.22Q70.40 100.22 69.63 98.69Q68.86 97.15 68.22 93.06L68.22 93.06Q67.84 89.47 66.18 87.94L66.18 87.94Q64.77 86.91 64.13 84.16Q63.49 81.41 64 79.87L64 79.87Q64.64 78.46 66.43 78.85Q68.22 79.23 69.76 81.15L69.76 81.15L71.68 83.71L73.86 81.79Q78.08 77.95 84.86 76.80ZM40.58 34.43L40.58 34.43Q42.37 32.90 44.86 34.94Q47.36 36.99 48.51 40.83L48.51 40.83Q49.02 43.52 49.60 44.10Q50.18 44.67 51.20 44.03L51.20 44.03Q52.74 43.26 56.19 44.16Q59.65 45.06 59.65 46.34L59.65 46.34Q59.65 48.13 57.92 48.96Q56.19 49.79 53.50 49.66L53.50 49.66Q50.82 49.41 50.30 49.73Q49.79 50.05 50.05 52.10L50.05 52.10Q50.18 54.78 50.82 57.86L50.82 57.86Q51.20 60.16 51.65 60.54Q52.10 60.93 53.89 60.42L53.89 60.42Q56.32 59.65 59.65 59.65L59.65 59.65Q61.57 59.65 62.21 59.90Q62.85 60.16 62.85 61.31L62.85 61.31Q62.85 62.85 61.44 63.74Q60.03 64.64 55.94 65.54L55.94 65.54Q52.35 66.56 52.48 66.94L52.48 66.94Q52.48 67.33 53.63 68.10L53.63 68.10Q55.55 69.25 55.87 72.26Q56.19 75.26 54.78 76.54L54.78 76.54Q53.89 77.57 54.53 78.53Q55.17 79.49 57.34 79.62L57.34 79.62Q59.01 80 59.33 82.05Q59.65 84.10 58.11 85.38L58.11 85.38Q56.32 86.53 56.19 87.94L56.19 87.94Q56.19 89.86 55.68 90.30Q55.17 90.75 53.50 90.75L53.50 90.75Q52.10 90.75 51.65 91.26Q51.20 91.78 51.20 93.44L51.20 93.44Q51.20 96.13 50.56 97.66L50.56 97.66Q50.43 98.69 51.07 98.94Q51.71 99.20 54.27 99.20L54.27 99.20Q56.96 99.20 57.79 98.82Q58.62 98.43 59.01 97.15L59.01 97.15Q59.65 94.98 57.47 93.31L57.47 93.31Q55.94 92.29 55.94 91.84Q55.94 91.39 57.09 90.37L57.09 90.37Q58.62 89.22 60.54 89.73Q62.46 90.24 63.49 91.90L63.49 91.90Q64.64 94.08 64.06 101.25Q63.49 108.42 62.08 111.10L62.08 111.10Q60.80 113.79 58.88 113.54Q56.96 113.28 56.19 110.59L56.19 110.59Q55.94 109.06 55.68 108.35Q55.42 107.65 55.10 107.26Q54.78 106.88 54.53 107.01Q54.27 107.14 53.63 107.52L53.63 107.52Q52.74 108.29 46.66 110.40Q40.58 112.51 39.68 113.28L39.68 113.28Q37.89 114.43 29.18 116.99Q20.48 119.55 19.07 119.42L19.07 119.42Q14.85 118.27 14.72 105.60L14.72 105.60Q14.46 93.70 17.41 93.70L17.41 93.70Q18.56 93.70 18.62 94.34Q18.69 94.98 19.07 101.89L19.07 101.89Q19.71 110.21 20.16 112.13Q20.61 114.05 22.53 114.05L22.53 114.05Q24.70 114.05 27.01 112.70Q29.31 111.36 31.30 111.36Q33.28 111.36 34.43 109.95L34.43 109.95Q35.97 108.03 33.66 107.90L33.66 107.90Q32.13 107.90 30.46 109.06L30.46 109.06Q28.67 110.21 26.88 109.89Q25.09 109.57 25.09 108.03L25.09 108.03Q25.09 106.88 27.90 104.19L27.90 104.19Q32.51 99.58 29.82 99.84L29.82 99.84Q29.06 99.84 27.39 100.61L27.39 100.61Q23.94 102.14 22.53 101.50L22.53 101.50Q21.25 101.12 21.50 99.58Q21.76 98.05 23.30 97.66L23.30 97.66Q25.09 97.15 25.09 94.98L25.09 94.98Q25.09 93.31 28.03 87.62Q30.98 81.92 34.05 77.95L34.05 77.95Q37.38 73.73 36.99 73.34Q36.61 72.96 30.08 75.01L30.08 75.01Q24.83 76.80 22.66 76.61Q20.48 76.42 20.48 74.24L20.48 74.24Q20.48 72.32 21.89 71.17Q23.30 70.02 24.26 70.98Q25.22 71.94 30.78 70.02Q36.35 68.10 36.74 66.56L36.74 66.56Q37.50 64.26 33.92 58.11L33.92 58.11Q32.77 56.19 32.83 53.31Q32.90 50.43 34.30 49.79L34.30 49.79Q35.46 49.66 36.29 51.97Q37.12 54.27 38.14 54.78L38.14 54.78Q39.04 55.42 40.51 58.75Q41.98 62.08 41.98 63.87L41.98 63.87Q41.98 65.54 42.75 65.54L42.75 65.54Q43.52 65.54 44.54 64.32Q45.57 63.10 45.18 62.72L45.18 62.72Q44.80 62.34 44.35 51.20Q43.90 40.06 42.05 37.57Q40.19 35.07 40.58 34.43ZM49.79 72.70L49.79 72.70Q49.28 71.17 48.51 71.17Q47.74 71.17 44.74 74.18Q41.73 77.18 40.19 79.23L40.19 79.23Q39.04 81.15 39.74 82.30Q40.45 83.46 42.50 83.07L42.50 83.07Q44.29 82.94 47.23 78.53Q50.18 74.11 49.79 72.70ZM37.12 88.45L37.12 88.45Q36.22 87.17 35.20 87.17L35.20 87.17Q34.69 87.17 32.77 90.11Q30.85 93.06 31.23 93.44L31.23 93.44Q31.36 93.70 34.82 91.78L34.82 91.78Q36.99 90.37 37.44 89.79Q37.89 89.22 37.12 88.45ZM45.57 94.59L45.57 94.59Q45.57 93.06 45.12 92.86Q44.67 92.67 41.98 93.44L41.98 93.44Q40.19 94.08 39.42 95.10Q38.66 96.13 37.50 99.84L37.50 99.84Q36.61 102.91 37.89 103.30L37.89 103.30Q40.19 104.19 42.88 101.12Q45.57 98.05 45.57 94.59ZM76.93 33.54L76.93 33.54Q78.46 32 81.15 32L81.15 32Q82.94 32 83.58 32.45Q84.22 32.90 84.61 34.43L84.61 34.43Q85.38 37.50 83.20 46.27Q81.02 55.04 76.67 65.15L76.67 65.15Q76.29 66.18 77.06 65.79L77.06 65.79Q77.82 65.41 79.62 63.87L79.62 63.87Q88.45 56.32 100.35 55.55L100.35 55.55Q109.57 54.78 111.81 58.56Q114.05 62.34 112.90 76.16L112.90 76.16Q111.87 88.45 111.49 102.91L111.49 102.91Q110.72 122.11 109.89 127.87Q109.06 133.63 106.75 135.17L106.75 135.17Q104.96 136.32 104 136Q103.04 135.68 99.20 132.99L99.20 132.99Q90.75 127.23 79.62 111.10L79.62 111.10Q74.75 104.19 76.29 104.19L76.29 104.19Q77.70 104.45 83.07 111.10L83.07 111.10Q87.94 117.12 94.66 123.52Q101.38 129.92 102.72 129.92Q104.06 129.92 105.22 117.63L105.22 117.63Q105.98 109.82 106.75 92.22Q107.52 74.62 107.52 68.22L107.52 68.22Q107.26 62.34 106.05 60.67Q104.83 59.01 100.74 59.01L100.74 59.01Q91.14 59.01 82.30 66.69L82.30 66.69Q70.40 77.57 67.46 76.42L67.46 76.42Q63.87 75.01 67.84 69.38L67.84 69.38Q70.53 65.54 72.70 60.16L72.70 60.16L76.54 50.56Q78.21 46.21 78.85 40.96L78.85 40.96Q79.49 36.22 78.72 36.22L78.72 36.22Q78.46 36.22 78.08 36.22L78.08 36.22Q76.54 36.99 76.03 35.90Q75.52 34.82 76.93 33.54Z"/>
</g>
<g transform="translate(767.7293730468749,0)">
<path fill="#72cee4" d="M81.66 36.22L81.66 36.22Q87.17 35.07 88.32 38.91Q89.47 42.75 89.09 61.70L89.09 61.70Q88.70 82.94 88.70 95.23Q88.70 107.52 87.81 109.82L87.81 109.82Q87.04 111.74 85.31 112.13Q83.58 112.51 82.18 110.72L82.18 110.72Q79.87 108.03 79.36 113.28L79.36 113.28Q79.36 114.43 79.36 115.97L79.36 115.97Q79.36 120.58 80.70 122.75Q82.05 124.93 85.63 126.34L85.63 126.34Q87.94 127.23 94.59 126.66Q101.25 126.08 105.09 124.80L105.09 124.80Q107.78 123.78 110.34 121.79Q112.90 119.81 112.51 118.78L112.51 118.78Q112.13 118.27 111.49 112.70Q110.85 107.14 109.95 102.53Q109.06 97.92 109.70 97.54L109.70 97.54Q110.46 96.51 112 99.84L112 99.84Q112.90 101.76 114.69 105.98L114.69 105.98Q118.53 115.33 117.18 120.64Q115.84 125.95 108.93 128.77L108.93 128.77Q103.55 131.33 96.13 131.90Q88.70 132.48 83.20 130.94L83.20 130.94Q79.87 129.92 76.93 127.23Q73.98 124.54 73.34 121.73L73.34 121.73Q72.58 118.78 74.11 109.18L74.11 109.18Q74.88 105.22 73.34 104.06L73.34 104.06Q72.32 103.30 69.57 105.60Q66.82 107.90 57.73 116.86L57.73 116.86Q43.52 130.94 42.24 130.94L42.24 130.94Q41.22 130.94 41.02 129.60Q40.83 128.26 41.86 127.87L41.86 127.87Q43.39 127.49 52.80 116.22Q62.21 104.96 61.95 104.19L61.95 104.19Q61.06 100.99 60.54 100.67Q60.03 100.35 57.73 101.50L57.73 101.50Q54.91 102.91 53.50 101.89L53.50 101.89Q51.97 100.61 52.48 99.07Q52.99 97.54 56.19 93.82L56.19 93.82Q58.88 90.75 59.78 89.02Q60.67 87.30 61.06 83.46L61.06 83.46Q61.95 74.11 60.29 70.27L60.29 70.27Q59.90 69.63 59.65 69.89L59.65 69.89Q58.75 70.40 56.45 75.26L56.45 75.26Q50.82 86.40 48.38 89.09L48.38 89.09Q46.59 90.75 46.59 91.52L46.59 91.52Q46.59 92.93 36.74 102.53Q26.88 112.13 22.78 114.82L22.78 114.82Q17.79 118.02 15.42 118.91Q13.06 119.81 11.65 118.66L11.65 118.66Q9.73 117.25 10.82 115.14Q11.90 113.02 17.28 107.26L17.28 107.26Q24.32 99.84 24.32 98.82L24.32 98.82Q24.32 97.54 21.06 95.68Q17.79 93.82 14.98 93.44L14.98 93.44Q11.26 93.06 11.46 91.33Q11.65 89.60 15.49 87.17L15.49 87.17Q20.10 84.22 24.58 82.56L24.58 82.56L28.93 81.02L28.93 76.42Q28.93 71.55 29.57 66.69L29.57 66.69Q29.95 63.10 29.76 62.40Q29.57 61.70 27.78 61.70L27.78 61.70Q25.86 61.70 24.06 60.35Q22.27 59.01 22.78 58.11L22.78 58.11Q23.42 57.47 27.46 57.02Q31.49 56.58 34.30 54.40L34.30 54.40Q36.22 52.86 37.18 52.67Q38.14 52.48 39.68 53.25L39.68 53.25Q41.22 54.02 41.60 54.59Q41.98 55.17 41.54 56.13Q41.09 57.09 39.17 58.62L39.17 58.62Q36.48 61.31 35.46 66.30L35.46 66.30Q34.56 71.17 34.56 76.35Q34.56 81.54 35.46 83.33L35.46 83.33Q36.48 85.25 35.33 89.15Q34.18 93.06 34.05 94.72Q33.92 96.38 29.57 100.74L29.57 100.74Q24.96 105.34 25.86 105.34L25.86 105.34Q26.50 105.60 29.57 103.04L29.57 103.04Q34.56 99.07 40.90 91.97Q47.23 84.86 50.30 79.62L50.30 79.62Q54.53 72.58 54.91 72.19L54.91 72.19Q55.42 71.55 57.54 67.20Q59.65 62.85 60.03 61.18L60.03 61.18Q60.67 59.26 60.74 53.95Q60.80 48.64 62.34 47.87L62.34 47.87Q64.51 46.72 65.54 48.19Q66.56 49.66 66.82 54.02L66.82 54.02Q66.82 58.50 67.46 58.94Q68.10 59.39 73.98 58.50L73.98 58.50Q77.18 57.86 77.95 59.39Q78.72 60.93 77.18 65.15L77.18 65.15Q76.03 68.22 76.16 68.93Q76.29 69.63 77.57 70.40L77.57 70.40Q79.74 71.42 78.98 74.50Q78.21 77.57 74.75 81.54L74.75 81.54L70.78 86.02L76.29 82.69Q81.66 79.62 82.82 78.08L82.82 78.08Q83.97 76.54 83.84 59.90Q83.71 43.26 82.56 41.60L82.56 41.60Q81.79 40.58 81.02 40.58Q80.26 40.58 77.95 41.34L77.95 41.34Q74.50 42.75 72.19 44.67L72.19 44.67Q69.25 46.34 69.12 45.06L69.12 45.06Q69.12 42.88 72.96 40.13Q76.80 37.38 81.66 36.22ZM66.50 73.09Q66.82 73.09 69.70 68.35Q72.58 63.62 71.55 63.87L71.55 63.87Q67.71 64.26 66.94 65.02Q66.18 65.79 66.18 68.86L66.18 68.86Q66.18 73.09 66.50 73.09ZM69.89 80.38L69.89 80.38L71.94 77.70L69.63 77.70Q67.58 77.70 66.88 78.40Q66.18 79.10 66.18 81.15L66.18 81.15Q66.18 85.38 69.89 80.38ZM28.54 90.62L28.54 90.62Q28.93 87.55 27.97 87.23Q27.01 86.91 23.42 88.83L23.42 88.83L20.35 90.37L23.17 92.54Q27.39 95.36 28.03 94.21L28.03 94.21Q28.03 94.08 28.54 90.62ZM82.94 97.28L82.94 97.28Q82.94 88.83 82.30 88.96Q81.66 89.09 77.82 94.08L77.82 94.08Q74.11 98.43 74.75 99.07L74.75 99.07Q75.14 99.20 76.03 99.46L76.03 99.46Q78.34 99.97 78.85 101.89Q79.36 103.81 81.28 104.83L81.28 104.83Q82.56 105.60 82.82 104.06L82.82 104.06Q82.94 102.66 82.94 97.28ZM69.25 95.36L69.25 95.36Q71.04 92.67 70.66 92.67L70.66 92.67Q70.02 92.67 68.10 94.59Q66.18 96.51 66.18 97.28L66.18 97.28Q66.18 99.84 68.48 96.77L68.48 96.77Q68.86 96.13 69.25 95.36Z"/>
</g>
<g transform="translate(895.6842685546874,0)">
<path fill="#72cee4" d="M52.86 42.37L52.86 42.37Q54.27 41.47 56.96 41.54Q59.65 41.60 61.31 42.37L61.31 42.37Q65.41 44.67 60.16 49.54L60.16 49.54Q57.34 52.22 55.42 54.91L55.42 54.91L53.50 57.60L59.39 57.22Q64.64 56.83 66.56 57.47Q68.48 58.11 68.10 60.29L68.10 60.29Q67.71 61.57 66.37 61.89Q65.02 62.21 58.62 61.82L58.62 61.82L49.79 61.57L45.18 67.58Q40.83 73.73 40.83 74.50L40.83 74.50Q40.96 75.14 42.62 75.20Q44.29 75.26 47.04 74.50Q49.79 73.73 51.97 72.83L51.97 72.83Q59.26 69.12 60.80 71.42L60.80 71.42Q61.31 72.45 60.03 74.11L60.03 74.11Q57.47 76.80 59.39 79.74L59.39 79.74Q59.78 80.64 60.29 80.58Q60.80 80.51 61.57 79.36L61.57 79.36Q62.85 77.57 63.87 78.34L63.87 78.34Q65.41 79.10 64.90 80.96Q64.38 82.82 62.72 83.71L62.72 83.71Q61.18 84.35 60.67 85.38Q60.16 86.40 60.16 89.73L60.16 89.73Q60.16 94.72 61.06 94.72Q61.95 94.72 62.34 96.38L62.34 96.38Q63.23 99.46 52.74 110.21L52.74 110.21Q46.98 116.22 47.49 116.22L47.49 116.22Q48.26 116.22 53.76 112.26Q59.26 108.29 64.38 104.06L64.38 104.06Q66.30 102.53 67.97 101.38Q69.63 100.22 70.66 99.65Q71.68 99.07 71.94 99.33L71.94 99.33Q72.45 100.22 70.14 103.94L70.14 103.94Q68.10 107.39 56.19 116.42Q44.29 125.44 40.96 125.95L40.96 125.95Q38.66 126.34 36.86 125.57Q35.07 124.80 35.07 123.14L35.07 123.14Q35.07 121.98 43.20 113.34Q51.33 104.70 52.74 102.91L52.74 102.91Q53.50 101.76 53.31 101.57Q53.12 101.38 51.58 102.14L51.58 102.14Q49.28 102.91 45.44 104.83L45.44 104.83Q41.73 106.75 39.17 106.56Q36.61 106.37 36.22 104.32L36.22 104.32Q35.97 102.91 36.86 102.14Q37.76 101.38 40.19 100.10L40.19 100.10Q44.42 97.92 45.18 99.07Q45.95 100.22 50.18 98.18L50.18 98.18Q53.25 96.77 53.95 95.94Q54.66 95.10 54.66 92.54L54.66 92.54Q54.66 89.09 53.70 89.09Q52.74 89.09 47.87 91.39L47.87 91.39Q43.90 93.57 41.09 93.57Q38.27 93.57 38.14 91.39L38.14 91.39Q37.89 89.47 39.04 87.81L39.04 87.81Q39.81 86.78 40.38 86.59Q40.96 86.40 42.11 87.17Q43.26 87.94 44.54 87.68Q45.82 87.42 49.02 85.89L49.02 85.89Q52.10 84.35 52.99 83.46Q53.89 82.56 53.63 80.90L53.63 80.90Q53.25 78.34 51.97 78.72L51.97 78.72Q48.51 79.74 45.25 79.62Q41.98 79.49 40.58 78.21L40.58 78.21Q39.30 77.06 38.78 77.06Q38.27 77.06 37.50 77.95L37.50 77.95L32.38 84.86Q21.76 98.69 14.34 109.31L14.34 109.31Q11.01 114.05 9.47 111.36L9.47 111.36Q9.09 110.59 13.95 102.91L13.95 102.91Q19.07 94.46 40.58 65.79L40.58 65.79Q48.64 55.04 51.71 50.43L51.71 50.43Q54.02 47.36 54.21 46.53Q54.40 45.70 53.12 44.67L53.12 44.67Q52.10 43.78 52.03 43.39Q51.97 43.01 52.86 42.37ZM95.23 38.40L95.23 38.40Q100.61 33.15 101.76 44.67L101.76 44.67Q101.89 46.08 102.14 47.62L102.14 47.62L102.53 55.68L106.11 55.04Q109.82 54.53 110.34 56.06L110.34 56.06Q111.49 59.14 105.22 60.80L105.22 60.80Q102.91 61.57 101.95 62.53Q100.99 63.49 99.84 66.43L99.84 66.43Q97.15 73.60 94.46 76.67L94.46 76.67Q91.39 80.26 91.39 77.95L91.39 77.95Q91.39 77.57 91.52 76.80L91.52 76.80Q94.85 65.79 93.70 65.79L93.70 65.79Q92.93 65.79 89.22 67.58L89.22 67.58Q86.53 68.99 86.08 69.95Q85.63 70.91 85.63 74.88L85.63 74.88Q85.63 80.26 86.53 81.41L86.53 81.41Q88.45 83.20 100.99 76.29L100.99 76.29Q118.40 66.43 118.66 71.81L118.66 71.81Q118.66 73.73 109.06 78.34L109.06 78.34Q102.14 81.79 97.54 85.25Q92.93 88.70 92.93 90.88L92.93 90.88Q92.93 92.03 94.46 90.88L94.46 90.88Q95.74 89.73 100.93 90.18Q106.11 90.62 107.65 92.16L107.65 92.16Q109.18 93.95 109.18 104.70L109.18 104.70Q109.06 131.58 104.83 131.33L104.83 131.33Q103.68 131.33 102.27 130.18L102.27 130.18Q98.69 126.98 101.89 125.82L101.89 125.82Q103.30 125.18 103.30 121.60L103.30 121.60Q103.30 118.53 102.66 118.53L102.66 118.53Q102.53 118.53 102.14 118.66L102.14 118.66Q100.99 119.68 96.77 120.51Q92.54 121.34 92.54 122.88Q92.54 124.42 91.39 125.50Q90.24 126.59 88.83 126.21L88.83 126.21Q87.17 125.82 85.89 122.37Q84.61 118.91 84.61 113.92L84.61 113.92Q84.61 109.70 85.76 100.48Q86.91 91.26 87.94 88.96L87.94 88.96Q88.32 87.94 87.30 88.19L87.30 88.19Q86.14 88.19 80.26 90.11L80.26 90.11Q71.94 92.93 70.02 92.54L70.02 92.54Q65.79 92.03 70.53 89.34L70.53 89.34Q71.94 88.32 74.24 87.55L74.24 87.55Q80.38 85.12 80.70 84.80Q81.02 84.48 80.38 77.95L80.38 77.95Q79.87 73.34 79.49 72.51Q79.10 71.68 77.70 72.19L77.70 72.19Q75.78 72.96 73.34 72.19L73.34 72.19Q71.68 71.42 71.62 71.17Q71.55 70.91 72.83 69.89L72.83 69.89Q74.62 68.61 76.42 68.61L76.42 68.61Q80.38 68.61 79.62 61.06L79.62 61.06Q79.10 56.19 78.46 55.30L78.46 55.30Q77.57 53.76 79.62 53.38L79.62 53.38Q80.77 53.12 81.92 53.76L81.92 53.76Q83.46 54.53 84.16 58.75Q84.86 62.98 85.63 63.36L85.63 63.36Q86.53 64.13 90.69 61.70Q94.85 59.26 94.85 58.11L94.85 58.11Q94.85 56.58 96 56.19Q97.15 55.81 97.15 49.09Q97.15 42.37 95.36 41.22L95.36 41.22Q94.21 40.32 94.21 39.94Q94.21 39.55 95.23 38.40ZM99.07 94.72L99.07 94.72Q97.92 92.80 94.53 94.59Q91.14 96.38 91.14 98.94L91.14 98.94Q91.14 100.61 91.52 100.93Q91.90 101.25 93.82 100.86L93.82 100.86Q96.38 100.22 97.92 101.12Q99.46 102.02 98.82 103.68L98.82 103.68Q98.43 104.83 95.74 104.83L95.74 104.83Q92.16 104.83 91.20 105.92Q90.24 107.01 90.24 110.98L90.24 110.98L90.24 115.97L94.08 115.58Q98.05 115.20 101.12 115.07L101.12 115.07L104.19 114.82L104.19 107.39Q104.19 100.48 103.55 98.05Q102.91 95.62 101.25 95.62Q99.58 95.62 99.07 94.72Z"/>
</g>
<g transform="translate(1023.6391640624998,0)">
<path fill="#72cee4" d="M88.32 105.86L88.32 105.86Q89.47 104.06 96.38 107.01L96.38 107.01Q99.33 108.16 100.93 109.76Q102.53 111.36 105.22 115.20L105.22 115.20Q108.67 120.83 109.06 123.14Q109.44 125.44 107.14 126.59L107.14 126.59Q101.76 128.90 101.76 123.52L101.76 123.52Q101.76 120.19 98.30 115.33Q94.85 110.46 91.65 108.67L91.65 108.67Q90.11 107.78 89.15 107.01Q88.19 106.24 88.32 105.86ZM43.52 96L43.52 96Q48.13 94.85 51.97 95.10L51.97 95.10L55.68 95.10L55.68 100.22L55.68 105.22L49.92 109.31Q45.31 112.51 41.66 113.66Q38.02 114.82 36.99 113.54L36.99 113.54Q36.22 112.13 37.12 110.40Q38.02 108.67 39.68 108.29L39.68 108.29Q40.70 108.16 43.01 106.43Q45.31 104.70 47.10 102.98Q48.90 101.25 48.51 100.86L48.51 100.86Q48 100.22 42.62 101.38Q37.25 102.53 34.94 103.68L34.94 103.68Q32.26 105.22 31.94 107.46Q31.62 109.70 33.79 113.66L33.79 113.66Q35.46 116.74 35.58 118.21Q35.71 119.68 34.30 120.83L34.30 120.83Q33.02 121.73 31.10 120.90Q29.18 120.06 29.18 118.27L29.18 118.27Q29.18 116.99 26.50 110.98L26.50 110.98Q21.12 99.84 23.94 97.54L23.94 97.54Q25.09 96.38 26.24 97.09Q27.39 97.79 26.88 99.07L26.88 99.07Q26.24 100.61 27.33 101.89Q28.42 103.17 31.10 101.25L31.10 101.25Q35.07 98.18 43.52 96ZM46.46 81.66L46.46 81.66Q46.98 80.64 48.70 80.77Q50.43 80.90 51.46 81.79L51.46 81.79Q52.35 83.20 51.58 84.10L51.58 84.10Q51.07 85.12 43.78 88.96Q36.48 92.80 33.15 93.70L33.15 93.70Q30.08 94.85 28.16 94.21Q26.24 93.57 26.50 91.65L26.50 91.65Q26.88 89.47 29.25 89.79Q31.62 90.11 36.54 86.85Q41.47 83.58 43.65 83.01Q45.82 82.43 46.46 81.66ZM43.52 72.96L43.52 72.96Q48.38 70.27 50.69 72.83L50.69 72.83Q51.46 73.73 51.26 74.30Q51.07 74.88 49.66 76.03L49.66 76.03Q47.62 77.95 46.34 77.95Q45.06 77.95 40.32 80.26L40.32 80.26Q37.25 82.05 35.78 82.30Q34.30 82.56 32 82.05L32 82.05Q28.54 81.28 28.42 78.98L28.42 78.98Q28.16 77.44 28.54 77.25Q28.93 77.06 30.85 77.44L30.85 77.44Q32.77 77.82 35.07 77.06Q37.38 76.29 43.52 72.96ZM31.23 64.64L46.46 58.75Q55.68 55.04 56.83 57.98L56.83 57.98Q57.34 59.65 54.85 61.70Q52.35 63.74 48.90 64.26L48.90 64.26Q45.44 64.90 33.28 69.06Q21.12 73.22 19.20 73.22L19.20 73.22Q17.41 73.22 16.26 72.13Q15.10 71.04 15.10 69.38L15.10 69.38Q15.10 67.20 17.28 66.82L17.28 66.82Q18.43 66.69 18.56 67.46L18.56 67.46Q19.20 68.74 21.31 68.29Q23.42 67.84 31.23 64.64L31.23 64.64ZM40.45 42.24L40.45 42.24Q42.37 41.22 49.79 43.14Q57.22 45.06 57.73 46.59L57.73 46.59Q58.37 48.13 56.90 49.47Q55.42 50.82 52.99 51.46L52.99 51.46Q49.92 51.97 47.87 51.20Q45.82 50.43 45.82 48.90L45.82 48.90Q45.82 46.98 42.62 45.70L42.62 45.70Q37.25 43.52 40.45 42.24ZM88.19 41.98L88.19 41.98Q95.23 39.55 97.15 41.86L97.15 41.86Q99.33 44.29 91.39 52.99L91.39 52.99Q87.04 58.37 88.32 57.73L88.32 57.73Q90.88 56.83 92.86 57.02Q94.85 57.22 95.23 58.50L95.23 58.50Q95.49 59.90 92.61 64.26Q89.73 68.61 87.94 68.99L87.94 68.99Q86.40 69.50 84.35 72.19L84.35 72.19L82.43 75.14L88.32 72.19Q94.34 69.38 96.38 69.76L96.38 69.76Q102.02 70.53 93.31 78.98L93.31 78.98Q93.18 79.10 92.54 79.49L92.54 79.49Q82.82 88.96 87.81 87.94L87.81 87.94Q89.34 87.81 89.60 85.70Q89.86 83.58 91.78 83.58Q93.70 83.58 102.02 80.64L102.02 80.64Q112.38 77.06 112.90 79.49L112.90 79.49Q112.90 80.13 112.90 80.90L112.90 80.90Q112.77 82.05 111.23 83.01Q109.70 83.97 105.60 85.50L105.60 85.50Q100.22 87.42 93.06 90.94Q85.89 94.46 84.48 95.87L84.48 95.87Q83.58 97.02 81.02 103.30L81.02 103.30Q78.34 110.46 75.46 114.56Q72.58 118.66 68.10 121.98L68.10 121.98Q63.10 125.57 61.18 124.42L61.18 124.42Q60.80 124.03 60.80 123.65L60.80 123.65Q60.80 122.88 65.92 117.89Q71.04 112.90 73.34 107.26Q75.65 101.63 75.33 101.31Q75.01 100.99 70.27 102.91L70.27 102.91Q61.06 106.62 59.52 103.94L59.52 103.94Q58.88 102.91 62.72 99.07Q66.56 95.23 71.04 92.16L71.04 92.16Q78.46 87.04 78.85 84.86L78.85 84.86Q78.72 84.48 78.46 84.48L78.46 84.48Q77.18 84.48 75.46 85.82Q73.73 87.17 71.10 87.17Q68.48 87.17 67.46 85.82Q66.43 84.48 67.26 83.14Q68.10 81.79 73.47 76.67L73.47 76.67Q79.49 71.04 78.98 70.59Q78.46 70.14 77.31 71.30L77.31 71.30Q75.39 73.22 73.22 71.74Q71.04 70.27 71.04 66.69L71.04 66.69Q71.04 64.90 68.61 56.70Q66.18 48.51 65.34 47.68Q64.51 46.85 64.51 45.18Q64.51 43.52 65.41 43.01L65.41 43.01Q66.43 42.37 69.18 44.99Q71.94 47.62 71.55 48.77L71.55 48.77Q71.04 50.05 72.64 49.66Q74.24 49.28 78.72 46.59L78.72 46.59Q84.10 43.39 88.19 41.98ZM88.70 47.74L88.70 47.74Q88.70 46.85 86.02 48L86.02 48Q84.74 48.77 81.02 50.43L81.02 50.43Q76.93 52.61 75.90 53.57Q74.88 54.53 74.88 56.19L74.88 56.19Q74.88 58.75 75.78 60.03L75.78 60.03Q76.16 60.42 76.54 60.54Q76.93 60.67 77.70 59.97Q78.46 59.26 79.68 58.11Q80.90 56.96 82.82 55.04L82.82 55.04Q88.70 48.51 88.70 47.74ZM73.41 95.55Q74.24 95.49 76.10 94.14Q77.95 92.80 77.57 92.42Q77.18 92.03 74.88 93.82Q72.58 95.62 73.41 95.55Z"/>
</g>
<g transform="translate(0,153.94422140625)">
<path fill="#72cee4" d="M21.38 84.35L21.38 84.35Q23.17 82.56 24.38 82.56Q25.60 82.56 28.16 83.97L28.16 83.97Q30.85 85.63 30.85 88.58L30.85 88.58Q30.85 91.39 29.12 92.99Q27.39 94.59 24.58 94.08L24.58 94.08Q21.12 93.70 19.90 90.37Q18.69 87.04 21.38 84.35ZM61.57 83.33L61.57 83.33Q63.74 81.28 67.26 81.47Q70.78 81.66 72.32 83.84L72.32 83.84Q75.26 88.32 71.81 91.65L71.81 91.65Q70.27 93.06 67.90 93.76Q65.54 94.46 64.64 93.70L64.64 93.70Q63.87 93.18 62.40 90.88Q60.93 88.58 60.42 86.91L60.42 86.91Q59.90 85.38 61.57 83.33ZM107.26 81.28L107.26 81.28Q109.44 81.02 109.95 80.64L109.95 80.64Q110.98 80.38 112.26 83.65Q113.54 86.91 113.41 88.70L113.41 88.70Q112.90 93.44 106.50 91.90L106.50 91.90Q102.53 90.75 102.02 88.96L102.02 88.96Q101.38 87.30 103.30 84.48Q105.22 81.66 107.26 81.28Z"/>
</g>
<g transform="translate(127.9548955078125,153.94422140625)">
<path fill="#72cee4" d="M21.38 84.35L21.38 84.35Q23.17 82.56 24.38 82.56Q25.60 82.56 28.16 83.97L28.16 83.97Q30.85 85.63 30.85 88.58L30.85 88.58Q30.85 91.39 29.12 92.99Q27.39 94.59 24.58 94.08L24.58 94.08Q21.12 93.70 19.90 90.37Q18.69 87.04 21.38 84.35ZM61.57 83.33L61.57 83.33Q63.74 81.28 67.26 81.47Q70.78 81.66 72.32 83.84L72.32 83.84Q75.26 88.32 71.81 91.65L71.81 91.65Q70.27 93.06 67.90 93.76Q65.54 94.46 64.64 93.70L64.64 93.70Q63.87 93.18 62.40 90.88Q60.93 88.58 60.42 86.91L60.42 86.91Q59.90 85.38 61.57 83.33ZM107.26 81.28L107.26 81.28Q109.44 81.02 109.95 80.64L109.95 80.64Q110.98 80.38 112.26 83.65Q113.54 86.91 113.41 88.70L113.41 88.70Q112.90 93.44 106.50 91.90L106.50 91.90Q102.53 90.75 102.02 88.96L102.02 88.96Q101.38 87.30 103.30 84.48Q105.22 81.66 107.26 81.28Z"/>
</g>
</g>
</svg>